<svg xmlns="http://www.w3.org/2000/svg" id="b" viewBox="0 0 361.63 212.04"><g id="c"><path d="M90.48,126.75c-.87-6.25-5.68-10.87-12.23-10.87s-10.77,4.33-12.02,10.87h24.25ZM90.28,140.32l12.6,2.79c-2.6,8.56-12.7,14.82-24.34,14.82-15.88,0-27.14-11.07-27.14-26.94s11.26-26.17,27.14-26.17,26.55,10.77,26.55,26.36c0,1.25,0,3.27-.19,4.33l-38.58-.09c1.25,6.93,6.06,11.45,12.61,11.45,5.19,0,9.62-2.79,11.35-6.54" fill="#00b2e3" stroke-width="0"/><polygon points="106.59 106.74 121.99 106.74 134.11 145.04 146.13 106.74 161.63 106.74 144.4 156.01 123.81 156.01 106.59 106.74" fill="#00b2e3" stroke-width="0"/><path d="M201.74,126.75c-.87-6.25-5.69-10.87-12.23-10.87s-10.77,4.33-12.02,10.87h24.25ZM201.55,140.32l12.6,2.79c-2.6,8.56-12.7,14.82-24.34,14.82-15.88,0-27.14-11.07-27.14-26.94s11.26-26.17,27.14-26.17,26.55,10.77,26.55,26.36c0,1.25,0,3.27-.19,4.33l-38.58-.09c1.25,6.93,6.06,11.45,12.6,11.45,5.2,0,9.62-2.79,11.36-6.54" fill="#00b2e3" stroke-width="0"/><path d="M273.99,125.21v30.79h-14.44v-28.29c0-5.96-3.46-10.2-9.14-10.2s-10.3,4.52-10.3,10.78v27.71h-14.43v-49.27h14.05v6.64c3.46-5.3,9.24-8.57,15.59-8.57,11.16,0,18.67,8.57,18.67,20.4" fill="#00b2e3" stroke-width="0"/><path d="M315.54,139.55h12.22c0,4.91,4.62,8.37,10.87,8.37,5.3,0,9.14-2.5,9.14-5.87-.1-9.91-31.75-.09-31.75-20.88.1-9.62,9.14-16.55,21.17-16.55,13.18,0,22.71,7.12,22.81,17.03h-12.7c-.09-4.04-4.33-6.83-10.1-6.83-4.52,0-8.08,2.31-8.08,5.48-.1,9.43,32.43,1.64,32.52,20.21,0,10.2-9.52,17.61-23.19,17.61s-22.9-7.79-22.9-18.57" fill="#00b2e3" stroke-width="0"/><path d="M282.62,96.17l14.72-5.45v15.22h11.38v11.18h-11.38v21.29c0,4.22,2.55,7.06,6.67,7.06,1.38,0,3.53-.3,5.2-.68l-.1,11.77c-2.95.98-6.87,1.57-10,1.57-10.01,0-16.48-7.55-16.48-18.25v-43.71Z" fill="#00b2e3" stroke-width="0"/><path d="M0,51.22C0,35.2,12.36,23.83,29.66,23.83c11.17,0,19.98,4.84,23.83,13.54l-11.97,6.43c-2.86-5.05-7.12-7.32-11.97-7.32-7.81,0-13.94,5.44-13.94,14.73s6.13,14.73,13.94,14.73c4.85,0,9.1-2.18,11.97-7.32l11.97,6.53c-3.86,8.5-12.66,13.44-23.83,13.44C12.36,78.6,0,67.24,0,51.22" fill="#6f7271" stroke-width="0"/><path d="M186.9,51.22c0,16.71-11.57,27.39-26.5,27.39-6.62,0-12.06-2.08-16.01-6.42v22.84l-15.43,5.34V24.62h14.73v6.13c3.86-4.65,9.6-6.92,16.71-6.92,14.94,0,26.5,10.68,26.5,27.39M171.28,51.22c0-9.19-5.83-14.73-13.55-14.73s-13.55,5.54-13.55,14.73,5.83,14.73,13.55,14.73,13.55-5.54,13.55-14.73" fill="#6f7271" stroke-width="0"/><path d="M194.66,8.6c0-4.85,3.85-8.6,9.59-8.6s9.59,3.55,9.59,8.3c0,5.14-3.86,8.9-9.59,8.9s-9.59-3.76-9.59-8.6M196.53,24.62h15.42v53.2h-15.42V24.62Z" fill="#6f7271" stroke-width="0"/><path d="M258.29,74.6c-5.53,2.92-10.17,4.01-14.82,4.01-12.65,0-19.87-6.42-19.87-19.08V16.21l15.43-3.36v46.47c0,4.55,2.37,7.02,6.52,7.02,2.27,0,4.55-.69,8.69-2.62l4.06,10.88Z" fill="#6f7271" stroke-width="0"/><path d="M334.54,60.22V7.8l15.42-3.36v54.88c0,4.55,2.38,7.02,6.63,7.02,1.68,0,3.46-.49,4.35-.99l.7,11.96c-2.67.89-5.34,1.28-8.01,1.28-11.96,0-19.08-6.52-19.08-18.39" fill="#6f7271" stroke-width="0"/><polygon points="268.35 24.71 249.57 24.71 239.14 38.78 257.91 38.78 268.35 24.71" fill="#00b2e3" stroke-width="0"/><path d="M102.37,51.22c0-8.52-5.75-14.78-13.76-14.78s-13.76,6.26-13.76,14.78,5.75,14.79,13.76,14.79,13.76-6.26,13.76-14.79M102.48,24.93h15.4v52.57h-15.4v-7.29c-4.11,5.85-10.37,9.34-17.87,9.34-14.79,0-25.15-11.7-25.15-28.33s10.37-28.33,25.15-28.33c7.5,0,13.76,3.49,17.87,9.34v-7.29Z" fill="#6f7271" stroke-width="0"/><path d="M310.01,51.22c0-8.52-5.75-14.78-13.75-14.78s-13.76,6.26-13.76,14.78,5.75,14.79,13.76,14.79,13.75-6.26,13.75-14.79M310.11,24.93h15.4v52.57h-15.4v-7.29c-4.11,5.85-10.37,9.34-17.87,9.34-14.79,0-25.15-11.7-25.15-28.33s10.37-28.33,25.15-28.33c7.5,0,13.76,3.49,17.87,9.34v-7.29Z" fill="#6f7271" stroke-width="0"/><path d="M32.14,188.42c-.01-.63-.03-1.34-.06-2.14,0-.49-.3-.73-.89-.73h-4.15c-.23,0-.42.07-.56.21-.14.14-.21.31-.21.52.03,1.74.03,3.42.02,5.02-.02,1.61-.02,3.02-.02,4.25,0,.59-.09.94-.29,1.04-.19.1-.56.15-1.1.15h-11.23c-1.62,0-2.94-.13-3.98-.38-1.04-.26-1.86-.66-2.46-1.19-.61-.54-1.02-1.22-1.25-2.06-.23-.84-.35-1.83-.35-2.98,0-.36.02-.77.06-1.23.04-.46.06-.95.06-1.46.03-.23-.03-.41-.17-.54-.14-.13-.31-.19-.52-.19H1.27c-.28,0-.48.06-.6.19-.11.13-.2.32-.25.58-.15.83-.26,1.58-.33,2.27-.07.69-.1,1.38-.1,2.07,0,1.72.2,3.26.6,4.6.4,1.35,1.1,2.49,2.1,3.42,1,.94,2.36,1.65,4.08,2.14,1.72.49,3.88.73,6.5.73h8.12c.72,0,1.57,0,2.54-.02.97-.02,1.94-.04,2.9-.08.96-.03,1.84-.08,2.64-.15.79-.07,1.35-.14,1.65-.22.31-.1.51-.24.63-.42.11-.18.2-.4.25-.66.08-.74.13-1.7.15-2.87.03-1.16.04-2.7.04-4.6v-1.78c0-.56,0-1.12-.02-1.7s-.03-1.18-.04-1.81" fill="#00b2e3" stroke-width="0"/><path d="M16.83,180.9c0,1.88,1.53,3.4,3.4,3.4s3.41-1.52,3.41-3.4-1.53-3.4-3.41-3.4-3.4,1.52-3.4,3.4" fill="#00b2e3" stroke-width="0"/><path d="M9.02,180.9c0,1.88,1.53,3.4,3.4,3.4s3.41-1.52,3.41-3.4-1.53-3.4-3.41-3.4-3.4,1.52-3.4,3.4" fill="#00b2e3" stroke-width="0"/><path d="M62.15,208.64c0,1.88,1.53,3.4,3.4,3.4s3.41-1.52,3.41-3.4-1.53-3.4-3.41-3.4-3.4,1.52-3.4,3.4" fill="#00b2e3" stroke-width="0"/><path d="M69.96,208.64c0,1.88,1.53,3.4,3.4,3.4s3.41-1.52,3.41-3.4-1.53-3.4-3.41-3.4-3.4,1.52-3.4,3.4" fill="#00b2e3" stroke-width="0"/><path d="M93.22,173.2h-4.42c-.23,0-.42.08-.58.23-.15.16-.23.35-.23.58v21.54c0,.59-.1.94-.31,1.04-.2.11-.58.15-1.11.15h-11.5c-.15,0-.33,0-.54-.02-.2-.02-.42-.04-.63-.08-.22-.03-.42-.09-.6-.15-.18-.06-.3-.14-.39-.25v-9.97c0-.2-.08-.38-.23-.52-.15-.14-.33-.21-.54-.21h-4.35c-.25,0-.46.07-.6.21s-.21.31-.21.52v9.23c0,.28-.06.51-.17.67-.12.17-.26.29-.44.37-.18.07-.39.12-.62.15-.23.03-.45.03-.66.03h-19.46c-.67,0-1.16-.1-1.46-.3-.31-.2-.46-.68-.46-1.42v-21.01c0-.23-.07-.42-.21-.58-.14-.15-.34-.23-.6-.23h-4.39c-.23,0-.42.08-.58.23-.15.16-.23.35-.23.58v22.93c0,1.23.15,2.23.44,2.98.29.76.71,1.34,1.25,1.75.54.41,1.18.68,1.94.83.76.14,1.6.21,2.52.21h20.35c.46,0,.95-.01,1.44-.06.5-.03,1-.1,1.5-.21.5-.1.99-.24,1.46-.4.48-.17.89-.38,1.25-.63.72.54,1.61.89,2.68,1.06,1.06.16,2.14.24,3.21.24h9.93c.57,0,1.21,0,1.92-.01.72-.02,1.41-.04,2.08-.08.67-.04,1.29-.09,1.87-.15.57-.07,1.02-.14,1.33-.21.31-.1.52-.24.63-.42.11-.18.2-.4.25-.66.08-.75.13-1.52.17-2.33.04-.81.06-1.6.06-2.37v-22.47c0-.23-.08-.42-.23-.58-.16-.15-.34-.23-.54-.23" fill="#00b2e3" stroke-width="0"/><path d="M157.14,176.98c0,1.88,1.53,3.4,3.4,3.4s3.41-1.52,3.41-3.4-1.53-3.4-3.41-3.4-3.4,1.52-3.4,3.4" fill="#00b2e3" stroke-width="0"/><path d="M194.59,173.43c-.15-.15-.33-.23-.54-.23h-4.42c-.23,0-.42.08-.58.23-.15.16-.23.35-.23.58v21.54c0,.6-.1.94-.31,1.04-.21.1-.58.15-1.11.15h-3.27c-.31,0-.7-.03-1.16-.09-.46-.06-.8-.2-1-.4v-22.24c0-.23-.07-.42-.21-.58-.14-.15-.33-.23-.56-.23h-4.42c-.23,0-.42.08-.58.23-.15.16-.23.35-.23.58v21.51c0,.28-.06.51-.17.67-.12.17-.27.29-.46.37-.19.07-.4.13-.63.15-.23.03-.45.04-.65.04h-4.92v-12.2c0-.21-.04-.37-.14-.5-.09-.13-.28-.23-.56-.3-.31-.08-.72-.16-1.23-.25-.51-.08-1.06-.16-1.65-.21-.59-.05-1.2-.1-1.83-.13-.63-.04-1.21-.06-1.75-.06-1.56,0-3,.18-4.31.53-1.31.35-2.43.91-3.37,1.65-.94.74-1.66,1.67-2.17,2.78-.51,1.11-.77,2.41-.77,3.9v.62c0,.97.11,1.8.35,2.49.23.69.54,1.26.92,1.69h-15.97c.51-.48.93-1.2,1.23-2.15.31-.94.46-1.85.46-2.72v-.92c0-1.49-.25-2.72-.77-3.72-.51-1-1.22-1.8-2.1-2.41-.89-.62-1.92-1.05-3.1-1.31-1.18-.26-2.42-.38-3.73-.38-.74,0-1.52.06-2.33.2-.81.12-1.6.3-2.36.53-.77.23-1.5.5-2.19.82-.69.32-1.28.66-1.77,1.02-.23.18-.42.35-.56.51-.14.17-.23.35-.25.56l-.11,2.49c-.03.18-.03.41,0,.68.03.27.09.46.19.59l2.39,6.21h-14.2c-.67,0-1.15-.1-1.46-.3-.31-.2-.46-.68-.46-1.42v-21.01c0-.23-.07-.42-.21-.58-.14-.15-.34-.23-.6-.23h-4.38c-.23,0-.42.08-.58.23-.16.16-.23.35-.23.58v22.93c0,1.23.15,2.23.44,2.98.3.75.71,1.34,1.25,1.75.54.41,1.18.68,1.94.83.76.14,1.6.21,2.52.21h67.67c.89,0,1.87-.09,2.94-.27,1.06-.18,1.97-.52,2.71-1.04.69.54,1.57.89,2.63,1.06,1.06.16,2.14.24,3.21.24h1.65c.56,0,1.21,0,1.92-.02.72-.01,1.41-.04,2.08-.08.67-.03,1.29-.09,1.87-.15.57-.07,1.02-.14,1.33-.21.31-.1.52-.24.64-.42.11-.18.2-.4.25-.66.08-.74.14-1.52.17-2.32.04-.81.06-1.6.06-2.37v-22.47c0-.23-.08-.42-.23-.58M132.57,192.24c0,.56-.06,1.12-.19,1.68-.13.55-.32,1.05-.58,1.5-.25.45-.58.8-.98,1.07-.4.27-.87.41-1.4.41h-1.73l-2.96-7.73c.62-.36,1.29-.59,2.04-.69.74-.1,1.37-.16,1.89-.16,1.23,0,2.19.29,2.89.87.69.58,1.04,1.5,1.04,2.75v.31ZM163.2,196.94h-2.35c-1.26,0-2.17-.35-2.73-1.06-.56-.71-.84-1.72-.84-3.06v-.58c0-2.64,1.35-3.96,4.04-3.96.66,0,1.29.03,1.88.12v8.54Z" fill="#00b2e3" stroke-width="0"/><path d="M229.94,173.2h-4.42c-.2,0-.39.08-.56.23-.17.16-.25.35-.25.58v26.37c0,.94-.03,1.99-.08,3.17-.36.08-.78.13-1.25.16-.48.03-.89.04-1.25.04-1.54,0-2.79-.21-3.73-.64-.95-.42-1.7-1.04-2.23-1.85-.54-.8-.9-1.79-1.1-2.96-.19-1.16-.29-2.49-.29-3.98,0-.36,0-.8.02-1.31.01-.51.04-1.02.1-1.54,0-.51-.23-.77-.69-.77h-3.81c-.26,0-.44.06-.54.19-.1.13-.18.31-.23.54-.08.38-.15.84-.21,1.38-.07.54-.12,1.08-.16,1.62-.04.54-.07,1.05-.09,1.54-.03.49-.04.88-.04,1.19,0,2.26.29,4.17.87,5.76.57,1.57,1.42,2.86,2.54,3.86,1.12,1,2.47,1.73,4.08,2.19,1.6.46,3.44.69,5.52.69,1.2,0,2.49-.07,3.85-.21,1.36-.14,2.58-.34,3.65-.59.54-.16.82-.45.85-.89.03-.38.05-.92.08-1.62.03-.69.05-1.41.08-2.15.03-.75.05-1.47.06-2.17s.02-1.25.02-1.64v-26.39c0-.23-.08-.42-.23-.58-.16-.15-.34-.23-.54-.23" fill="#6f7271" stroke-width="0"/><path d="M261.16,179.01c0,1.88,1.53,3.4,3.4,3.4s3.41-1.52,3.41-3.4-1.53-3.4-3.41-3.4-3.4,1.52-3.4,3.4" fill="#6f7271" stroke-width="0"/><path d="M268.97,179.01c0,1.88,1.53,3.4,3.4,3.4s3.41-1.52,3.41-3.4-1.53-3.4-3.41-3.4-3.4,1.52-3.4,3.4" fill="#6f7271" stroke-width="0"/><path d="M281.63,208.64c0,1.88,1.53,3.4,3.4,3.4s3.41-1.52,3.41-3.4-1.53-3.4-3.41-3.4-3.4,1.52-3.4,3.4" fill="#6f7271" stroke-width="0"/><path d="M289.44,208.64c0,1.88,1.53,3.4,3.4,3.4s3.41-1.52,3.41-3.4-1.53-3.4-3.41-3.4-3.4,1.52-3.4,3.4" fill="#6f7271" stroke-width="0"/><path d="M304.1,208.64c0,1.88,1.53,3.4,3.4,3.4s3.41-1.52,3.41-3.4-1.53-3.4-3.41-3.4-3.4,1.52-3.4,3.4" fill="#6f7271" stroke-width="0"/><path d="M313.22,188.3c-.01-.66-.03-1.38-.06-2.17-.03-.2-.11-.38-.25-.52-.14-.14-.35-.21-.63-.21h-4.23c-.23,0-.42.07-.56.21-.14.14-.21.32-.21.52.05,1.77.08,3.48.08,5.11v4.31c0,.59-.1.94-.29,1.04-.19.11-.57.15-1.13.15h-11.39c-.16,0-.34,0-.54-.02-.21-.01-.42-.04-.64-.08-.22-.03-.41-.09-.59-.15-.18-.07-.31-.15-.39-.25v-9.97c0-.2-.08-.38-.23-.52-.16-.14-.34-.21-.54-.21h-4.35c-.26,0-.46.07-.6.21-.14.14-.21.31-.21.52v9.23c0,.28-.06.51-.17.67-.12.17-.26.29-.44.37-.18.08-.38.13-.62.15-.23.03-.45.03-.65.03h-10.96c-.15,0-.34,0-.54-.02-.21-.01-.41-.04-.63-.08-.22-.03-.41-.09-.6-.15-.18-.07-.31-.15-.38-.25v-9.97c0-.2-.08-.38-.23-.52-.15-.14-.33-.21-.54-.21h-4.35c-.26,0-.46.07-.6.21-.14.14-.21.31-.21.52v9.23c0,.28-.06.51-.17.67-.12.17-.26.29-.44.37-.18.08-.39.13-.62.15-.23.03-.45.03-.66.03h-19.46c-.67,0-1.16-.1-1.46-.3-.31-.2-.46-.68-.46-1.42v-21.01c0-.23-.07-.42-.21-.58-.14-.15-.34-.23-.6-.23h-4.39c-.23,0-.42.08-.57.23-.16.16-.23.35-.23.58v22.93c0,1.23.15,2.23.44,2.98.3.76.71,1.34,1.25,1.75.54.41,1.19.68,1.94.83.76.14,1.6.21,2.52.21h20.35c.46,0,.94-.02,1.44-.06.5-.03,1-.1,1.5-.21.5-.1.99-.23,1.46-.4.47-.17.89-.38,1.25-.63.72.54,1.61.89,2.67,1.06,1.06.16,2.14.25,3.22.25h9.39c.46,0,.94-.02,1.44-.06.5-.03,1-.1,1.5-.21.5-.1.99-.23,1.46-.4.48-.17.89-.38,1.25-.63.72.54,1.61.89,2.68,1.06,1.06.16,2.14.25,3.21.25h9.96c.57,0,1.19,0,1.89-.02.69-.02,1.37-.04,2.02-.08.66-.04,1.26-.09,1.81-.15.55-.07.98-.14,1.29-.21.3-.1.51-.24.63-.42.11-.18.2-.4.25-.66.08-.75.13-1.7.15-2.87.03-1.16.04-2.7.04-4.6v-1.83c0-.58,0-1.16-.02-1.73-.01-.58-.03-1.2-.04-1.85" fill="#6f7271" stroke-width="0"/><path d="M361.04,190.69c-.4-1.5-1.07-2.77-2.02-3.81-.95-1.04-2.21-1.84-3.79-2.39-1.58-.55-3.53-.82-5.87-.82-.46,0-.98,0-1.56.04-.58.02-1.35.06-2.33.11,0-.08.05-.23.14-.46.09-.23.2-.49.33-.79s.26-.58.4-.87.26-.51.36-.69l3.62-6.92c.08-.15.12-.3.12-.43s-.04-.24-.12-.33c-.08-.09-.22-.14-.42-.14h-4.46c-.28,0-.51.08-.67.23-.17.16-.31.33-.44.54l-2.92,5.42c-.41.75-.77,1.44-1.08,2.08-.31.64-.57,1.27-.79,1.87-.22.6-.39,1.21-.5,1.81-.12.6-.18,1.24-.18,1.91v.27c0,.15,0,.32.02.5.02.18.03.35.04.5.02.16.02.26.02.31.03.46.36.69,1,.69h8.58c2.31,0,4.07.41,5.27,1.23,1.21.82,1.81,2.18,1.81,4.08,0,.29,0,.63-.02,1.02-.02.4-.03.75-.06,1.06-.13,0-.44,0-.94.02-.5,0-1.04.02-1.62.02h-26.26c-.67,0-1.16-.1-1.46-.3-.31-.2-.46-.68-.46-1.42v-21.01c0-.23-.07-.42-.21-.58-.14-.15-.34-.23-.6-.23h-4.39c-.23,0-.42.08-.58.23-.15.16-.23.35-.23.58v22.93c0,1.23.15,2.23.44,2.98s.71,1.34,1.25,1.75,1.18.68,1.94.83c.76.14,1.6.21,2.52.21h28.82c.87,0,1.73,0,2.58-.04.84-.03,1.63-.05,2.35-.06.72-.01,1.29-.05,1.73-.1.54-.03.85-.27.92-.73.03-.28.06-.65.1-1.09.04-.45.08-.91.12-1.38.04-.48.06-.94.08-1.39,0-.45.02-.8.02-1.06v-1.11c0-1.87-.2-3.56-.6-5.06" fill="#6f7271" stroke-width="0"/></g></svg>