<svg xmlns="http://www.w3.org/2000/svg" width="47" height="47" viewBox="0 0 47 47" fill="none"><path d="M29.6098 1.49072L28.9452 2.15533L25.9305 5.16994L29.6098 8.84916L33.289 5.16994L29.6098 1.49072ZM17.8598 3.75994C17.6105 3.75997 17.3714 3.85901 17.1951 4.03529C17.0188 4.21157 16.9198 4.45065 16.9198 4.69994V9.39994C16.9198 9.64924 17.0188 9.88832 17.1951 10.0646C17.3714 10.2409 17.6105 10.3399 17.8598 10.3399H18.7998C19.9235 10.3399 20.1679 10.6778 20.408 11.2175C20.6482 11.7572 20.6798 12.5682 20.6798 13.1599C20.6798 13.9273 20.5867 14.7342 20.4558 15.5099C19.6295 15.2189 18.8366 15.0451 18.1021 15.0399C17.2721 15.034 16.4466 15.267 15.8568 15.8569C15.6051 16.1086 15.4365 16.4092 15.306 16.7272L15.2895 16.7217L4.95863 42.9095L32.0809 33.6233L32.0754 33.6068C32.4236 33.4754 32.7508 33.2947 33.0228 33.0229C33.7259 32.3198 33.9165 31.3063 33.8122 30.2929C33.7465 29.654 33.5614 28.9793 33.2945 28.2789C34.0367 28.2339 34.826 28.1999 35.7198 28.1999C37.0598 28.1999 38.3276 28.362 39.1511 28.6479C39.5629 28.7909 39.853 28.966 39.9938 29.0996C40.1347 29.2331 40.1425 29.2719 40.1425 29.3749V30.0799C40.1426 30.3292 40.2416 30.5683 40.4179 30.7446C40.5942 30.9209 40.8332 31.0199 41.0825 31.0199H45.1198C45.2456 31.02 45.3701 30.9948 45.4859 30.9458C45.6018 30.8969 45.7067 30.8252 45.7943 30.7349C45.882 30.6447 45.9507 30.5378 45.9962 30.4206C46.0418 30.3033 46.0634 30.1781 46.0598 30.0524C46.0598 30.0524 46.0321 28.894 46.0322 28.8811V28.8792C46.0495 26.7453 44.7053 25.0915 43.047 24.0746C41.3887 23.0577 39.376 22.5599 37.5796 22.5599C34.6065 22.5599 32.395 23.3312 30.9151 24.0948C30.4485 23.461 29.9343 22.8224 29.3729 22.1872C29.7082 22.0803 30.0484 21.9807 30.3772 21.8917C31.0395 21.7124 31.6654 21.5654 32.1525 21.4565C32.6396 21.3477 32.9085 21.301 33.1531 21.2326C33.912 21.0199 34.9478 20.7599 35.8758 20.1402C36.8038 19.5204 37.5998 18.4058 37.5998 16.9199C37.5998 16.5132 37.4025 16.2869 37.273 15.9799H37.5998C39.6093 15.9799 41.3598 14.3573 41.3598 12.2199V10.9274C41.3598 10.9274 41.3668 10.7994 41.4552 10.6557C41.5436 10.5121 41.6143 10.3399 42.2998 10.3399H43.2398C43.4891 10.3399 43.7281 10.2409 43.9044 10.0646C44.0807 9.88832 44.1797 9.64924 44.1798 9.39994V5.64178C44.1797 5.39248 44.0807 5.1534 43.9044 4.97712C43.7281 4.80085 43.4891 4.7018 43.2398 4.70178H41.7159C39.2175 4.69967 37.6744 5.85617 36.8489 6.95631C36.2368 7.77167 36.0483 8.77929 35.9034 9.64412C35.8398 10.0234 35.8525 10.0644 35.8244 10.3399H35.7198C34.1009 10.3399 32.8324 10.9268 32.0607 11.8528C31.2891 12.7787 31.0198 13.9433 31.0198 15.0399V16.3159C29.4791 16.8238 27.7147 17.6487 26.1968 19.0845C25.302 18.3236 24.4127 17.6436 23.5402 17.076C24.5036 15.3772 25.3798 13.0851 25.3798 10.3399C25.3798 8.72105 24.8432 7.08634 23.7201 5.83455C22.5969 4.58276 20.8759 3.75994 18.73 3.75994H18.7282H18.7153H17.8598ZM29.6098 4.14916L30.6305 5.16994L29.6098 6.19072L28.589 5.16994L29.6098 4.14916ZM9.86977 5.25072L9.20516 5.91533L6.19055 8.92994L9.86977 12.6092L13.549 8.92994L9.86977 5.25072ZM18.7998 5.65279C20.4392 5.67155 21.5592 6.2412 22.3211 7.09033C23.0956 7.95354 23.4998 9.13883 23.4998 10.3399C23.4998 12.2971 22.9298 13.8938 22.266 15.2694C22.3715 14.549 22.5598 13.9119 22.5598 13.1599C22.5598 12.5682 22.5913 11.4982 22.1265 10.4538C21.6617 9.40931 20.496 8.45994 18.7998 8.45994V5.65279ZM41.7141 6.58178H41.7159H42.2998V8.45994C41.1052 8.45994 40.2359 9.05157 39.8543 9.67166C39.4727 10.2918 39.4798 10.9274 39.4798 10.9274V12.2199C39.4798 13.3726 38.6452 14.0999 37.5998 14.0999H35.7198C35.5485 14.1 35.3805 14.1468 35.2339 14.2353C35.0873 14.3238 34.9677 14.4507 34.8879 14.6023C34.8082 14.7538 34.7713 14.9243 34.7814 15.0953C34.7914 15.2662 34.848 15.4312 34.945 15.5724C34.945 15.5724 35.0183 15.6652 35.0239 15.6715C35.0296 15.6778 35.0332 15.6823 35.0368 15.6862C35.0439 15.694 35.0521 15.7021 35.0625 15.7137C35.0832 15.7369 35.1129 15.7715 35.1488 15.8147C35.2206 15.9011 35.3158 16.0237 35.4077 16.1635C35.5914 16.4432 35.7198 16.794 35.7198 16.9199C35.7198 17.8198 35.4008 18.1955 34.8312 18.576C34.2615 18.9564 33.417 19.2064 32.6464 19.4223C32.6776 19.4136 32.2438 19.5101 31.7413 19.6224C31.2388 19.7348 30.5883 19.8879 29.887 20.0778C28.8101 20.3693 27.7383 20.8373 26.7439 21.3354C28.3181 19.3766 30.4795 18.3113 32.2131 17.8251C32.4106 17.7698 32.5847 17.6514 32.7086 17.488C32.8326 17.3245 32.8997 17.1251 32.8998 16.9199V15.0399C32.8998 14.2566 33.1004 13.5412 33.5038 13.0571C33.9071 12.5731 34.5187 12.2199 35.7198 12.2199H36.6598C36.9004 12.2198 37.1318 12.1274 37.3063 11.9617C37.4808 11.7961 37.5852 11.5698 37.5979 11.3295C37.5979 11.3295 37.6321 10.7038 37.7577 9.95439C37.8832 9.205 38.1647 8.33135 38.3507 8.08357H38.3525C38.9372 7.304 39.7426 6.58012 41.7141 6.58178ZM9.86977 7.90916L10.8905 8.92994L9.86977 9.95072L8.84898 8.92994L9.86977 7.90916ZM42.7698 15.9799L40.4198 18.3299L42.7698 20.6799L45.1179 18.3299L42.7698 15.9799ZM6.10977 16.9199L3.75977 19.2699L6.10977 21.6199L8.45793 19.2699L6.10977 16.9199ZM18.0874 16.9199C18.5802 16.9234 19.2609 17.1035 20.0427 17.4193C19.7739 18.4456 19.5149 19.2024 19.435 19.4444C19.3705 19.6398 19.372 19.8511 19.4392 20.0457C19.5064 20.2402 19.6356 20.4074 19.807 20.5214C19.9784 20.6354 20.1824 20.6901 20.3879 20.6769C20.5933 20.6638 20.7887 20.5836 20.9441 20.4486C21.076 20.3338 21.3069 20.1185 21.7262 19.6408C21.9503 19.3856 22.2116 19.0627 22.4863 18.6935C23.2867 19.1958 24.1221 19.8047 24.9575 20.5019C24.8359 20.6681 24.7088 20.8248 24.594 21.0031L22.7103 23.9314C22.5936 24.1141 22.5437 24.3315 22.5689 24.5468C22.5941 24.7621 22.693 24.962 22.8487 25.1128C23.0045 25.2636 23.2075 25.3559 23.4235 25.3741C23.6395 25.3924 23.8552 25.3354 24.034 25.2129L26.8614 23.2613C27.0272 23.1467 27.2443 23.0283 27.4893 22.9106C28.1635 23.6368 28.7776 24.3688 29.3142 25.088C29.0137 25.319 28.7788 25.5232 28.734 25.5672L28.7322 25.569L26.5988 27.6767C26.4453 27.8285 26.3486 28.0286 26.3252 28.2432C26.3017 28.4579 26.3529 28.6741 26.4701 28.8554C26.5873 29.0368 26.7633 29.1723 26.9687 29.2392C27.174 29.306 27.3961 29.3002 27.5976 29.2226C27.5976 29.2226 28.8315 28.7541 31.3337 28.4515C31.6786 29.2386 31.8875 29.9436 31.9432 30.4857C32.0126 31.1598 31.8787 31.5085 31.6936 31.6937C31.6212 31.7661 31.5174 31.8265 31.387 31.8737L31.2915 31.9067C31.1247 31.9503 30.9138 31.9711 30.6342 31.9544C30.0475 31.9195 29.2402 31.6993 28.3264 31.2843C26.4989 30.4544 24.251 28.8672 22.132 26.7477C20.0129 24.6282 18.4255 22.3809 17.5954 20.5533C17.1803 19.6394 16.9603 18.8302 16.9253 18.2437C16.9079 17.9521 16.9309 17.7318 16.9785 17.5625C16.9841 17.5428 16.9925 17.5295 16.9987 17.5111C17.0465 17.37 17.1098 17.2623 17.186 17.1862C17.3406 17.0316 17.594 16.9164 18.0874 16.9199ZM15.6823 20.8488C15.7476 21.0092 15.8082 21.1683 15.8825 21.3317C16.8426 23.4457 18.549 25.8226 20.8028 28.0769C23.0567 30.3313 25.4339 32.0372 27.548 32.9972C27.6332 33.0359 27.7152 33.0656 27.7995 33.1019L8.2009 39.8122L15.6823 20.8488ZM37.5796 24.4399C39.0111 24.4399 40.7668 24.8815 42.0648 25.6774C43.3627 26.4733 44.1632 27.5055 44.1522 28.8627C44.1514 28.9351 44.1557 29.0253 44.1577 29.1399H41.9179C41.8452 28.605 41.6515 28.0801 41.2882 27.7354C40.8641 27.3332 40.3426 27.0727 39.7662 26.8726C38.6133 26.4723 37.1997 26.3199 35.7198 26.3199C33.3005 26.3199 31.6454 26.5678 30.2101 26.8028C30.4257 26.5969 32.744 24.4399 37.5796 24.4399ZM36.1898 35.3307L35.5252 35.9953L32.5105 39.0099L36.1898 42.6892L39.869 39.0099L36.1898 35.3307ZM36.1898 37.9892L37.2105 39.0099L36.1898 40.0307L35.169 39.0099L36.1898 37.9892Z" fill="white"/></svg>