<svg xmlns="http://www.w3.org/2000/svg" version="1.2" viewBox="0 0 28 28" width="28" height="28"><style>.s0 { fill: #000000 } </style><path class="s0" d="m12.95 3.85c0-0.58 0.47-1.05 1.05-1.05 0.58 0 1.05 0.47 1.05 1.05v1.75h2.45c0.77 0 1.4 0.63 1.4 1.4 0 0.77-0.63 1.4-1.4 1.4h-5.03c-1.09 0-1.97 0.88-1.97 1.97 0 0.99 0.72 1.82 1.69 1.96l4.01 0.57c2.35 0.34 4.1 2.35 4.1 4.73 0 2.63-2.14 4.77-4.77 4.77h-0.48v1.75c0 0.58-0.47 1.05-1.05 1.05-0.58 0-1.05-0.47-1.05-1.05v-1.75h-3.15c-0.77 0-1.4-0.63-1.4-1.4 0-0.77 0.63-1.4 1.4-1.4h5.73c1.09 0 1.97-0.88 1.97-1.97 0-0.99-0.72-1.82-1.69-1.96l-4.01-0.57c-2.35-0.33-4.1-2.35-4.1-4.73 0-2.63 2.14-4.77 4.77-4.77h0.48z"/></svg>