<svg xmlns="http://www.w3.org/2000/svg" width="44" height="43" viewBox="0 0 44 43" fill="none"><g clip-path="url(#clip0_17_1821)"><path d="M12.7598 0C8.6392 0 5.27979 3.28307 5.27979 7.31C5.27979 11.3369 8.6392 14.62 12.7598 14.62C13.126 14.62 13.4847 14.5892 13.8374 14.5394L14.5885 26.7709C14.7764 29.8229 16.6885 32.3958 19.3598 33.624V36.76C19.3598 37.6642 18.877 38.4997 18.0862 38.9671V38.9688L15.4221 40.5443C15.2578 40.6416 15.1306 40.7887 15.0599 40.9633C14.9892 41.1378 14.9788 41.3302 15.0304 41.511C15.082 41.6918 15.1928 41.8512 15.3457 41.9648C15.4987 42.0783 15.6855 42.1399 15.8776 42.14H22.8798H29.882C30.0741 42.1399 30.2609 42.0783 30.4138 41.9648C30.5668 41.8512 30.6775 41.6918 30.7291 41.511C30.7808 41.3302 30.7704 41.1378 30.6997 40.9633C30.629 40.7887 30.5017 40.6416 30.3374 40.5443L27.6734 38.9688C26.8818 38.5002 26.3998 37.6642 26.3998 36.76V33.624C27.4984 33.1188 28.4652 32.3873 29.2392 31.4857C29.2982 31.4361 29.3502 31.3791 29.3938 31.3161C30.7282 29.4536 33.2886 29.5894 34.569 29.5894C37.3301 29.5894 39.5878 27.383 39.5878 24.6847C39.5878 21.9866 37.3308 19.78 34.569 19.78C33.4328 19.78 32.3823 20.1518 31.5388 20.7777L31.984 13.5366C32.0533 12.4108 32.2724 11.301 32.6371 10.231L33.3951 8.01211C33.4392 7.88279 33.4512 7.74507 33.4302 7.61031C33.4092 7.47555 33.3556 7.34761 33.274 7.23704C33.1925 7.12647 33.0852 7.03644 32.961 6.97436C32.8368 6.91228 32.6993 6.87994 32.5598 6.88H29.2065L31.1934 2.32637C31.3843 1.88949 31.1781 1.38424 30.731 1.19762L29.1103 0.522383C28.6632 0.335763 28.1479 0.539019 27.957 0.975898L25.3788 6.88H22.8506H20.2174C19.9873 3.05303 16.7319 0 12.7598 0ZM12.7598 1.72C15.7804 1.72 18.2334 3.98607 18.4574 6.88H13.1998C13.0603 6.87994 12.9228 6.91228 12.7986 6.97436C12.6744 7.03644 12.5671 7.12647 12.4855 7.23704C12.4039 7.34761 12.3504 7.47555 12.3294 7.61031C12.3083 7.74507 12.3204 7.88279 12.3645 8.01211L13.1224 10.231C13.4087 11.0702 13.6022 11.9365 13.7068 12.8143C13.3983 12.8648 13.0842 12.9 12.7598 12.9C9.59045 12.9 7.03979 10.4073 7.03979 7.31C7.03979 4.21269 9.59045 1.72 12.7598 1.72ZM14.4201 8.6H19.3598H22.8506H24.6278L21.9998 14.62H18.4798C18.3632 14.6184 18.2474 14.6394 18.1392 14.6819C18.031 14.7244 17.9325 14.7875 17.8494 14.8675C17.7664 14.9476 17.7004 15.0429 17.6554 15.1481C17.6104 15.2532 17.5873 15.366 17.5873 15.48C17.5873 15.594 17.6104 15.7068 17.6554 15.8119C17.7004 15.9171 17.7664 16.0124 17.8494 16.0925C17.9325 16.1725 18.031 16.2356 18.1392 16.2781C18.2474 16.3206 18.3632 16.3416 18.4798 16.34H30.0487L29.4145 26.6667C29.2061 30.0532 26.3512 32.68 22.8798 32.68C19.4084 32.68 16.5535 30.0522 16.3451 26.6667L15.5321 13.4358V13.4341C15.4544 12.1586 15.2044 10.8994 14.7913 9.68844L14.4201 8.6ZM28.4554 8.6H31.3395L30.9682 9.68676C30.555 10.8992 30.306 12.1588 30.2274 13.4341L30.1553 14.62H25.8274L28.4554 8.6ZM34.569 21.5C36.3797 21.5 37.8278 22.916 37.8278 24.6847C37.8278 26.4532 36.3786 27.8694 34.569 27.8694C33.9398 27.8694 32.4498 27.7947 30.9321 28.2641C31.0566 27.7814 31.1394 27.2827 31.171 26.7692L31.3395 24.0296C31.3831 23.959 31.4161 23.8826 31.4374 23.8029C31.8282 22.4747 33.0734 21.5 34.569 21.5ZM21.1198 34.2102C21.6882 34.3308 22.2763 34.4 22.8798 34.4C23.4832 34.4 24.0713 34.3308 24.6398 34.2102V36.76C24.6398 38.2547 25.4406 39.6389 26.7418 40.42H22.8798H19.0178C20.3185 39.6392 21.1198 38.2539 21.1198 36.76V34.2102Z" fill="white"/></g><defs><clipPath id="clip0_17_1821"><rect width="44" height="43" fill="white"/></clipPath></defs></svg>