<svg xmlns="http://www.w3.org/2000/svg" width="44" height="43" viewBox="0 0 44 43" fill="none"><path d="M16.72 2.58008C15.62 2.58008 14.683 3.01417 14.0817 3.67523C13.4804 4.3363 13.2 5.18397 13.2 6.02008C13.2 6.85619 13.4804 7.70386 14.0817 8.36492C14.683 9.02599 15.62 9.46008 16.72 9.46008C17.82 9.46008 18.757 9.02599 19.3583 8.36492C19.9596 7.70386 20.24 6.85619 20.24 6.02008C20.24 5.18397 19.9596 4.3363 19.3583 3.67523C18.757 3.01417 17.82 2.58008 16.72 2.58008ZM16.72 4.30008C17.38 4.30008 17.763 4.51099 18.0417 4.81742C18.3204 5.12386 18.48 5.56619 18.48 6.02008C18.48 6.47397 18.3204 6.9163 18.0417 7.22273C17.763 7.52917 17.38 7.74008 16.72 7.74008C16.06 7.74008 15.677 7.52917 15.3983 7.22273C15.1196 6.9163 14.96 6.47397 14.96 6.02008C14.96 5.56619 15.1196 5.12386 15.3983 4.81742C15.677 4.51099 16.06 4.30008 16.72 4.30008ZM3.61453 6.02008C2.33693 6.02008 1.13113 6.87203 0.914375 8.17344C0.651421 9.75183 1.92787 11.1801 3.52 11.1801H6.67562L7.13797 11.6319L3.80016 14.8939C2.47039 16.1934 2.2799 18.2054 3.25531 19.7045C3.33831 19.8323 3.36189 19.8516 3.45469 19.9749C3.54786 20.0987 3.67316 20.2638 3.81906 20.4553C4.11088 20.8383 4.48758 21.3297 4.86062 21.8159C5.07184 22.0911 5.08573 22.1096 5.27828 22.3601H2.64C1.19234 22.3601 0 23.5253 0 24.9401C0 26.3548 1.19234 27.5201 2.64 27.5201H3.30687L2.53344 28.2759C1.50993 29.2762 1.50993 30.924 2.53344 31.9242C3.04515 32.4243 3.726 32.6801 4.4 32.6801C5.074 32.6801 5.75485 32.4243 6.26656 31.9242L10.8041 27.4898C11.611 27.4152 12.349 26.9978 12.7875 26.3225C13.2714 25.5777 13.3328 24.6384 12.9473 23.8399L10.7336 19.1065L11.923 17.9442C11.9611 18.0071 12.0059 18.0806 12.0381 18.134C12.1185 18.2673 12.2211 18.4575 12.1619 18.3439L12.1636 18.3456C12.6049 19.1869 13.4963 19.7801 14.52 19.7801H18.48C19.9276 19.7801 21.12 18.6148 21.12 17.2001C21.12 15.7854 19.9276 14.6201 18.48 14.6201H16.5L15.6888 11.9007C15.4072 10.9569 14.8027 10.1369 13.9769 9.57598L9.42906 6.48367C8.98588 6.18204 8.45878 6.02008 7.92 6.02008H3.61453ZM3.61453 7.74008H7.92C8.0993 7.74008 8.27541 7.79376 8.42359 7.89461L12.9714 10.9869H12.9731C13.469 11.3238 13.8302 11.8163 13.9992 12.3827L14.9944 15.7203C15.0476 15.8991 15.1589 16.0563 15.3114 16.1681C15.4639 16.2798 15.6494 16.3402 15.84 16.3401H18.48C18.9772 16.3401 19.36 16.7142 19.36 17.2001C19.36 17.686 18.9772 18.0601 18.48 18.0601H14.52C14.1823 18.0601 13.8972 17.876 13.7311 17.5612L13.7294 17.5595C13.6491 17.406 13.636 17.3964 13.5541 17.2605C13.4715 17.1238 13.3669 16.9516 13.2636 16.7818C13.057 16.4422 12.8562 16.1133 12.8562 16.1133C12.7875 16.0009 12.6935 15.9054 12.5812 15.8339C12.469 15.7625 12.3416 15.717 12.2086 15.7009C12.0757 15.6849 11.9407 15.6987 11.8141 15.7414C11.6874 15.784 11.5724 15.8544 11.4778 15.947L9.05781 18.312C8.93078 18.436 8.84558 18.5949 8.81363 18.7676C8.78168 18.9402 8.80451 19.1183 8.87906 19.2779L11.3523 24.5655C11.3535 24.5683 11.3546 24.5711 11.3558 24.5739C11.4843 24.8401 11.4646 25.1509 11.3025 25.4003C11.1412 25.6493 10.8622 25.8001 10.56 25.8001H2.64C2.14462 25.8001 1.76 25.4242 1.76 24.9401C1.76 24.456 2.14462 24.0801 2.64 24.0801H7.04C7.20356 24.08 7.36387 24.0355 7.50295 23.9514C7.64204 23.8672 7.75438 23.7469 7.82738 23.6039C7.90039 23.4608 7.93116 23.3008 7.91625 23.1416C7.90134 22.9824 7.84133 22.8304 7.74297 22.7027C7.74297 22.7027 7.01313 21.7552 6.26828 20.7845C5.89585 20.2992 5.51972 19.8073 5.23016 19.4273C5.08537 19.2373 4.96204 19.0758 4.87266 18.957C4.78327 18.8383 4.68789 18.6989 4.74203 18.7823V18.7807C4.20208 17.9508 4.29574 16.8417 5.04453 16.11L9.00453 12.24C9.1695 12.0787 9.26217 11.86 9.26217 11.6319C9.26217 11.4039 9.1695 11.1852 9.00453 11.0239L7.66219 9.71203C7.49718 9.55075 7.27338 9.46012 7.04 9.46008H3.52C2.97373 9.46008 2.55594 9.02567 2.65203 8.44891C2.71688 8.05956 3.13918 7.74008 3.61453 7.74008ZM40.48 11.1801C39.38 11.1801 38.443 11.6142 37.8417 12.2752C37.2404 12.9363 36.96 13.784 36.96 14.6201C36.96 15.4562 37.2404 16.3039 37.8417 16.9649C38.443 17.626 39.38 18.0601 40.48 18.0601C41.58 18.0601 42.517 17.626 43.1183 16.9649C43.7196 16.3039 44 15.4562 44 14.6201C44 13.784 43.7196 12.9363 43.1183 12.2752C42.517 11.6142 41.58 11.1801 40.48 11.1801ZM25.422 12.0434C24.2005 12.0906 23.1255 12.9717 22.9161 14.1968C22.6767 15.5995 23.6499 16.9309 25.0852 17.1648L29.4284 17.872L30.5645 19.6558L30.0798 20.1328C27.2668 18.8719 23.76 18.9201 23.76 18.9201C23.6434 18.9185 23.5276 18.9395 23.4194 18.982C23.3112 19.0245 23.2127 19.0876 23.1297 19.1676C23.0466 19.2476 22.9807 19.343 22.9357 19.4481C22.8906 19.5533 22.8675 19.6661 22.8675 19.7801C22.8675 19.8941 22.8906 20.0069 22.9357 20.112C22.9807 20.2172 23.0466 20.3125 23.1297 20.3925C23.2127 20.4726 23.3112 20.5356 23.4194 20.5781C23.5276 20.6206 23.6434 20.6417 23.76 20.6401C23.76 20.6401 26.542 20.703 28.7341 21.453L27.7269 22.4424C27.1942 22.3911 26.6734 22.3601 26.18 22.3601C22.6565 22.3601 19.9619 23.0288 18.1397 23.7072C16.3174 24.3856 15.3123 25.1114 15.3123 25.1114C15.2198 25.1791 15.1418 25.264 15.0828 25.3612C15.0239 25.4583 14.985 25.5659 14.9686 25.6777C14.9522 25.7896 14.9584 25.9035 14.987 26.0129C15.0156 26.1224 15.066 26.2253 15.1353 26.3157C15.2046 26.4062 15.2914 26.4824 15.3909 26.54C15.4903 26.5977 15.6004 26.6356 15.7148 26.6517C15.8293 26.6677 15.9458 26.6616 16.0578 26.6337C16.1698 26.6057 16.2751 26.5565 16.3677 26.4888C16.3677 26.4888 17.1226 25.9246 18.7653 25.313C20.4081 24.7014 22.8835 24.0801 26.18 24.0801C29.407 24.0801 34.8975 25.7564 34.8975 25.7564L34.9078 25.7598L35.4114 25.9193L35.6366 25.6976C35.7779 25.6198 35.8945 25.5053 35.9734 25.3667L37.5616 23.8063C38.3087 23.0753 38.72 22.1038 38.72 21.0701C38.72 20.0364 38.3078 19.0649 37.5598 18.3339C37.5581 18.3313 37.5556 18.3297 37.553 18.3271L32.6442 13.6341C32.257 13.2643 31.769 13.0222 31.2331 12.9354L25.9514 12.0754C25.773 12.0466 25.5965 12.0367 25.422 12.0434ZM40.48 12.9001C41.14 12.9001 41.523 13.111 41.8017 13.4174C42.0804 13.7239 42.24 14.1662 42.24 14.6201C42.24 15.074 42.0804 15.5163 41.8017 15.8227C41.523 16.1292 41.14 16.3401 40.48 16.3401C39.82 16.3401 39.437 16.1292 39.1583 15.8227C38.8796 15.5163 38.72 15.074 38.72 14.6201C38.72 14.1662 38.8796 13.7239 39.1583 13.4174C39.437 13.111 39.82 12.9001 40.48 12.9001ZM25.5217 13.7601C25.5692 13.7601 25.616 13.7641 25.6644 13.7718L30.9444 14.6318C31.123 14.6611 31.2868 14.7423 31.4153 14.8653L36.3189 19.5533C36.7316 19.9575 36.96 20.4973 36.96 21.0701C36.96 21.6446 36.7309 22.1834 36.3138 22.5919L34.9181 23.9642C34.1388 23.7259 32.1952 23.1673 29.8925 22.7548L30.8808 21.7839L30.8945 21.7722C30.898 21.7683 30.9014 21.7644 30.9048 21.7604L32.3039 20.3864C32.5917 20.1035 32.6433 19.6645 32.4277 19.3266L30.7123 16.634C30.5786 16.4242 30.3607 16.2797 30.1108 16.2393L25.3756 15.4683C24.8969 15.3901 24.572 14.9476 24.652 14.4807C24.7242 14.0601 25.0993 13.7601 25.5217 13.7601ZM26.18 25.8001C25.967 25.8001 25.7655 25.8084 25.5595 25.8135C25.5584 25.8241 25.5606 25.8348 25.5595 25.8454L22.2028 30.5318L16.6134 35.9941C15.5838 37.0003 15.5838 38.6362 16.6134 39.6424C17.1115 40.1291 17.7751 40.3982 18.48 40.3982C19.1849 40.3982 19.8485 40.13 20.3466 39.6424L28.942 31.2423C29.5169 31.8276 28.9613 31.2638 30.4562 32.7842L28.1291 35.0602C27.1171 36.0483 27.0219 37.6189 27.9125 38.6346C28.4167 39.209 29.1474 39.5382 29.9183 39.5382C30.6249 39.5382 31.2876 39.27 31.7848 38.7824L36.1178 34.5479C37.0735 33.6122 37.2307 32.1304 36.4959 31.0357C36.4643 30.9832 34.8658 28.5123 34.0914 27.3135C33.7288 27.2051 33.019 27.0005 32.1355 26.7743C32.014 27.0323 32.0277 27.3395 32.1905 27.5906C32.1905 27.5906 34.9949 31.9292 35.0195 31.9679C35.3064 32.3953 35.2456 32.9681 34.8752 33.3301L30.5405 37.5663C30.192 37.9077 29.577 37.8866 29.2497 37.5125C28.9584 37.1814 29.0152 36.6272 29.3752 36.2763L32.3125 33.404C32.6513 33.0729 32.6563 32.5368 32.3245 32.1997C32.3245 32.1997 27.9602 27.7651 27.83 27.6293C27.3786 27.1305 27.2157 26.4772 27.3195 25.8605C27.0116 25.8314 26.7247 25.8214 26.4412 25.8135V25.8085C26.355 25.805 26.2636 25.8001 26.18 25.8001ZM5.79562 27.5201H8.28438L5.02219 30.7081C4.84574 30.8806 4.62712 30.9601 4.4 30.9601C4.17288 30.9601 3.95426 30.8806 3.77781 30.7081C3.42676 30.365 3.42676 29.8351 3.77781 29.492L5.79562 27.5201ZM26.0511 28.1348C26.18 28.356 26.3325 28.5683 26.5117 28.7664C26.5166 28.772 27.6035 29.8784 27.7234 30.001L19.1022 38.4263C18.7695 38.7505 18.1922 38.7505 17.8595 38.4263C17.5163 38.0909 17.5163 37.5456 17.8595 37.2102L23.5022 31.6941L26.0511 28.1348Z" fill="white"/></svg>