<?xml version="1.0" encoding="UTF-8"?><svg xmlns="http://www.w3.org/2000/svg" version="1.1" width="512" height="512"><path d="M0 0 C1.77203475 -0.00643944 3.54406847 -0.01316863 5.31610107 -0.02017212 C9.0211432 -0.03210521 12.72609237 -0.03585709 16.43115234 -0.03466797 C21.14592115 -0.0344651 25.86008505 -0.06175192 30.57471085 -0.09621239 C34.2330593 -0.11860517 37.89126506 -0.12250173 41.54967499 -0.12144852 C43.28617179 -0.12378648 45.02267363 -0.13250644 46.75910187 -0.14811325 C60.32898088 -0.25865775 73.49385351 0.47766493 83.859375 10.3359375 C84.54773438 10.98433594 85.23609375 11.63273438 85.9453125 12.30078125 C95.67593546 22.3027041 97.61085228 33.06859478 97.50634766 46.61621094 C97.51313948 48.11238157 97.52205132 49.60854382 97.53289795 51.10469055 C97.55550466 55.13146064 97.5469353 59.15758337 97.53100252 63.18436337 C97.51825536 67.41534479 97.53010705 71.64627447 97.53793335 75.8772583 C97.54700046 82.97507588 97.53511544 90.07263232 97.51123047 97.17041016 C97.48398268 105.36181042 97.4928714 113.55258904 97.5203625 121.74397445 C97.54308659 128.79911403 97.54623884 135.85406706 97.53316915 142.90923142 C97.52539809 147.11355927 97.52426888 151.31759522 97.54085159 155.52190399 C97.55534702 159.47195618 97.54518346 163.42120945 97.51638031 167.37117577 C97.50979817 168.81588861 97.51161786 170.26066931 97.52269363 171.70535469 C97.57898002 179.79589757 97.45013329 186.11692787 91.859375 192.3359375 C86.90531439 197.04229508 82.46298488 198.61623527 75.671875 198.5234375 C74.62644531 198.51699219 73.58101563 198.51054687 72.50390625 198.50390625 C69.859375 198.3359375 69.859375 198.3359375 67.859375 197.3359375 C67.86398396 197.94001371 67.86859293 198.54408993 67.87334156 199.16647148 C67.98400548 213.89916167 68.06662101 228.63182722 68.11843586 243.36483574 C68.14416252 250.48979542 68.17920589 257.61447681 68.23657227 264.73925781 C68.28657826 270.95288417 68.31870624 277.16630888 68.32981747 283.38013089 C68.33630756 286.66714793 68.35410891 289.95345742 68.38802528 293.24032211 C68.42447045 296.91951035 68.42931357 300.59751496 68.42700195 304.27685547 C68.44497833 305.35364059 68.46295471 306.43042572 68.48147583 307.5398407 C68.41923394 316.73153174 65.74501988 323.74843177 59.171875 330.2734375 C53.82884157 334.54786425 48.09972398 335.92352945 41.421875 336.7734375 C34.20163653 335.88674155 27.78745806 333.82953829 22.859375 328.3359375 C20.37232035 329.48380888 18.29176918 330.7395683 16.046875 332.3359375 C9.80613771 336.25169423 3.73258103 337.15489558 -3.48828125 335.94140625 C-10.42128328 334.28048614 -15.68656068 330.93384713 -20.140625 325.3359375 C-24.1982561 318.43208116 -24.69962137 312.27060342 -24.59472656 304.39038086 C-24.59531067 303.22839172 -24.59589478 302.06640259 -24.59649658 300.86920166 C-24.593725 297.05441711 -24.5626751 293.24042817 -24.53125 289.42578125 C-24.52378431 286.77062152 -24.51789602 284.11550502 -24.51409912 281.46034241 C-24.50171006 275.20250527 -24.46894438 268.94495058 -24.42870116 262.68723732 C-24.38385586 255.55782098 -24.3619645 248.42839053 -24.34191942 241.29886806 C-24.30020753 226.64441277 -24.22993556 211.99017909 -24.140625 197.3359375 C-24.800625 197.6659375 -25.460625 197.9959375 -26.140625 198.3359375 C-33.54742054 199.03103677 -40.04821396 198.94411847 -46.140625 194.3359375 C-49.93324033 190.70821849 -52.91657623 186.80513073 -53.39789391 181.50063229 C-53.40124559 180.39770619 -53.40459728 179.2947801 -53.40805054 178.15843201 C-53.41658051 176.88987869 -53.42511047 175.62132538 -53.43389893 174.31433105 C-53.4331999 172.91064441 -53.43227684 171.50695786 -53.43115234 170.10327148 C-53.43713778 168.62300782 -53.44394336 167.14274728 -53.45150757 165.66249084 C-53.46918089 161.64143953 -53.47386372 157.62047333 -53.47513914 153.59938693 C-53.47656142 151.08394472 -53.48083264 148.56852409 -53.48613358 146.05308723 C-53.50464362 137.26771804 -53.51280364 128.48240953 -53.51123047 119.69702148 C-53.51003126 111.52526259 -53.5310876 103.35376876 -53.5627178 95.18207687 C-53.58894144 88.15511829 -53.5995951 81.12824588 -53.59831965 74.10123879 C-53.59781147 69.90956025 -53.60341335 65.71811689 -53.62467575 61.52648735 C-53.6441591 57.57750088 -53.64411441 53.62897125 -53.62964249 49.67996788 C-53.62756519 48.23811418 -53.63219031 46.79623115 -53.6443634 45.35442734 C-53.74235295 32.93411398 -51.72645726 22.67352465 -43.140625 13.3359375 C-30.63309722 0.67271436 -16.94848853 0.01452838 0 0 Z M-34.47265625 22.93359375 C-38.68521526 28.45726622 -40.38618702 33.60993906 -40.40805054 40.61123657 C-40.41658051 41.85058456 -40.42511047 43.08993256 -40.43389893 44.36683655 C-40.43320003 45.72714246 -40.43227704 47.08744828 -40.43115234 48.44775391 C-40.43714117 49.89040982 -40.44394753 51.33306253 -40.45150757 52.77571106 C-40.46913155 56.68254177 -40.47386122 60.58928482 -40.47513914 64.49615145 C-40.47656251 66.93751082 -40.48083545 69.37884802 -40.48613358 71.82020187 C-40.50461675 80.33815676 -40.51280569 88.85604915 -40.51123047 97.37402344 C-40.51002716 105.31420667 -40.5311708 113.25411892 -40.5627178 121.19423354 C-40.58885115 128.01475575 -40.59959912 134.83518922 -40.59831965 141.65576112 C-40.59780946 145.72814055 -40.60352471 149.80027864 -40.62467575 153.87260818 C-40.64401068 157.69930923 -40.64421568 161.52553734 -40.62964249 165.35225487 C-40.62754785 166.75673677 -40.63229423 168.16124794 -40.6443634 169.56567955 C-40.65976558 171.48192886 -40.64813156 173.39833881 -40.63510132 175.31460571 C-40.63619085 176.38715418 -40.63728039 177.45970264 -40.63840294 178.56475258 C-40.0134389 182.0439966 -38.93247621 183.22414216 -36.140625 185.3359375 C-32.640625 186.00260417 -32.640625 186.00260417 -29.140625 185.3359375 C-26.77565061 183.46885245 -25.48031785 182.01532319 -24.140625 179.3359375 C-24.04016923 177.68076952 -24.00283298 176.0216023 -23.99586487 174.36340332 C-23.98896637 173.31177505 -23.98206787 172.26014679 -23.97496033 171.176651 C-23.97234695 170.01814133 -23.96973358 168.85963165 -23.96704102 167.66601562 C-23.960354 166.44973984 -23.95366699 165.23346405 -23.94677734 163.98033142 C-23.93270038 161.33224638 -23.92037819 158.68421669 -23.91082954 156.03611755 C-23.89539709 151.85155069 -23.87144934 147.66705989 -23.84593201 143.48254395 C-23.7746721 131.58264972 -23.71488475 119.68271229 -23.66381836 107.78271484 C-23.63554786 101.21238907 -23.6001868 94.64213933 -23.55716461 88.07189322 C-23.53034012 83.9093964 -23.51246734 79.74698561 -23.50112736 75.58441925 C-23.48988694 72.39151491 -23.4657576 69.19870383 -23.44360352 66.00585938 C-23.44301437 64.8473497 -23.44242523 63.68884003 -23.44181824 62.495224 C-23.43209991 61.44359573 -23.42238159 60.39196747 -23.41236877 59.30847168 C-23.40813684 58.39111992 -23.4039049 57.47376816 -23.39954472 56.52861786 C-23.140625 54.3359375 -23.140625 54.3359375 -21.140625 52.3359375 C-17.640625 52.0234375 -17.640625 52.0234375 -14.140625 52.3359375 C-12.07782799 55.43013301 -11.88776003 56.10296049 -11.8621521 59.60697937 C-11.85098862 60.47776123 -11.83982513 61.34854309 -11.82832336 62.24571228 C-11.82616318 63.19805252 -11.82400299 64.15039276 -11.82177734 65.1315918 C-11.81173172 66.13664764 -11.8016861 67.14170349 -11.79133606 68.17721558 C-11.76040375 71.50485656 -11.74344092 74.83241672 -11.7265625 78.16015625 C-11.70785895 80.46516114 -11.68828615 82.77015912 -11.6678772 85.07514954 C-11.61646421 91.14633114 -11.57688753 97.21753497 -11.53973389 103.28881836 C-11.4927239 110.57096218 -11.43108688 117.85299495 -11.37188721 125.13504791 C-11.2835633 136.20196652 -11.21387859 147.26886263 -11.140625 158.3359375 C10.639375 158.3359375 32.419375 158.3359375 54.859375 158.3359375 C54.90835938 150.93542969 54.95734375 143.53492188 55.0078125 135.91015625 C55.04318597 131.22980378 55.07913862 126.54947023 55.1171875 121.86914062 C55.17756276 114.43565538 55.23575961 107.00219669 55.28125 99.56860352 C55.31804734 93.57741884 55.36439216 87.58637801 55.41743851 81.59531593 C55.43601201 79.30633879 55.45110895 77.01733078 55.46271896 74.72830772 C55.47953079 71.52925165 55.5085537 68.33052714 55.54052734 65.1315918 C55.54268753 64.17925156 55.54484772 63.22691132 55.54707336 62.24571228 C55.55823685 61.37493042 55.56940033 60.50414856 55.5809021 59.60697937 C55.58919824 58.47179131 55.58919824 58.47179131 55.59766197 57.31367016 C55.859375 55.3359375 55.859375 55.3359375 57.859375 52.3359375 C60.0234375 52.04296875 60.0234375 52.04296875 62.484375 52.1484375 C63.30164063 52.17550781 64.11890625 52.20257813 64.9609375 52.23046875 C65.58742188 52.26527344 66.21390625 52.30007812 66.859375 52.3359375 C66.86434022 53.31219275 66.86434022 53.31219275 66.86940575 54.30817032 C66.9506069 70.1405012 67.04268982 85.97272566 67.14690208 101.8049202 C67.19703551 109.46123504 67.24347833 117.11753915 67.28125 124.77392578 C67.31417904 131.44680827 67.35401528 138.11960755 67.40216506 144.79239821 C67.42742103 148.32597353 67.44920493 151.85949371 67.46271896 155.39313507 C67.4779302 159.33673456 67.50856146 163.28013175 67.54052734 167.22363281 C67.54268753 168.3967955 67.54484772 169.56995819 67.54707336 170.77867126 C67.55823685 171.85276749 67.56940033 172.92686371 67.5809021 174.0335083 C67.58643286 174.9663628 67.59196362 175.8992173 67.59766197 176.86034012 C67.87892253 179.52084159 68.40203997 181.10203987 69.859375 183.3359375 C73.5799586 185.81632657 75.45734071 185.79930953 79.859375 185.3359375 C83.05506052 182.98122185 84.15574272 181.15981701 84.859375 177.3359375 C84.95176049 175.46385042 84.98993055 173.58879436 84.99308777 171.71443176 C84.99735275 170.56920044 85.00161774 169.42396912 85.00601196 168.24403381 C85.00555878 166.99150314 85.00510559 165.73897247 85.00463867 164.44848633 C85.00763173 163.1127615 85.0110346 161.77703753 85.01481628 160.4413147 C85.02364815 156.81502523 85.02599413 153.18875937 85.02663207 149.56246018 C85.02734334 147.2942844 85.02947917 145.02611459 85.03212929 142.75794029 C85.04138186 134.83723953 85.04546451 126.91655559 85.04467773 118.99584961 C85.04407781 111.62619953 85.05461311 104.25662284 85.0704214 96.88699132 C85.08352644 90.55051322 85.08886035 84.21405901 85.08822232 77.87756747 C85.08796809 74.09738154 85.09077738 70.31726077 85.10140038 66.53708839 C85.11113069 62.97726184 85.11112698 59.41756206 85.10388374 55.85773087 C85.10235084 53.94030895 85.11065118 52.02288692 85.11932373 50.10548401 C85.08027606 39.31295279 84.08000804 28.57015271 76.0703125 20.54296875 C66.20751808 12.58593341 55.32947712 12.87410264 43.3046875 12.90234375 C41.5951212 12.89777424 39.88555673 12.8924664 38.17599487 12.88645935 C34.6037446 12.87755769 31.03171823 12.87991712 27.45947266 12.88989258 C22.9081294 12.90137099 18.35756335 12.88117326 13.8063221 12.85197544 C10.27842392 12.83352426 6.75070889 12.83392367 3.22277451 12.83961296 C1.54603868 12.83976513 -0.13071041 12.83380842 -1.80739975 12.82132149 C-13.76857438 12.74478464 -26.20299124 13.01484598 -34.47265625 22.93359375 Z M-11.140625 171.3359375 C-11.25715403 196.42770923 -11.25715403 196.42770923 -11.3359375 221.51953125 C-11.35967657 231.75122085 -11.38759123 241.98277874 -11.44238281 252.21435547 C-11.48226741 259.66581362 -11.50806179 267.11716497 -11.51697898 274.5687269 C-11.52219102 278.51386447 -11.53442952 282.45869652 -11.56354523 286.40373611 C-11.59074019 290.11869978 -11.5990619 293.83323269 -11.59305573 297.54828644 C-11.59467703 299.55821736 -11.61617846 301.5681016 -11.63830566 303.57791138 C-11.60171817 311.58293247 -11.02258619 315.45397631 -5.328125 321.1484375 C-2.12633853 322.88655016 0.20384506 323.275012 3.859375 323.3359375 C8.0433885 322.03612448 11.06113386 320.34017635 13.796875 316.8984375 C15.48656213 312.82330972 15.98248611 308.94704827 16.01759338 304.55863953 C16.0273822 303.62620926 16.03717102 302.69377899 16.04725647 301.73309326 C16.05301193 300.7224884 16.0587674 299.71188354 16.06469727 298.6706543 C16.07459686 297.5970314 16.08449646 296.52340851 16.09469604 295.41725159 C16.12625002 291.87324214 16.15104444 288.32921929 16.17578125 284.78515625 C16.19635604 282.32607172 16.21735265 279.86699068 16.23875427 277.40791321 C16.29392069 270.9389021 16.34335396 264.46985937 16.39160156 258.00079346 C16.4418562 251.39828683 16.49752159 244.79582607 16.55273438 238.19335938 C16.66024956 225.24092488 16.76189306 212.2884512 16.859375 199.3359375 C24.609375 199.2109375 24.609375 199.2109375 26.859375 200.3359375 C27.86170473 203.22001796 27.98772211 205.92471838 27.99740601 208.95933533 C28.00285934 209.88316513 28.00831268 210.80699493 28.01393127 211.75881958 C28.0149736 212.76516449 28.01601593 213.7715094 28.01708984 214.80834961 C28.02217056 215.87379501 28.02725128 216.93924042 28.03248596 218.03697205 C28.04318519 220.35050065 28.05180712 222.66403958 28.05860519 224.97758293 C28.07039232 228.63806957 28.08984382 232.29843814 28.11172485 235.95887756 C28.17335482 246.36634405 28.22743143 256.77379777 28.26074219 267.18139648 C28.28166472 273.5468058 28.31694625 279.91199877 28.36149979 286.27728462 C28.37567641 288.7041628 28.38438595 291.13107924 28.38755417 293.55799675 C28.39245231 296.95027254 28.41558196 300.34197184 28.44287109 303.73413086 C28.43986496 304.73845154 28.43685883 305.74277222 28.4337616 306.77752686 C28.49337467 311.75728854 28.55295517 315.32391614 31.859375 319.3359375 C35.45105988 322.1312053 38.89379023 323.30205733 43.421875 323.4609375 C47.80047335 322.02794168 50.81932735 319.788195 53.859375 316.3359375 C54.91852046 313.15850112 54.98257543 310.92201963 54.97962952 307.58430481 C54.98100418 306.38537094 54.98237885 305.18643707 54.98379517 303.95117188 C54.98019989 302.63415283 54.97660461 301.31713379 54.97290039 299.96020508 C54.97261835 298.5607656 54.97277659 297.16132598 54.9733429 295.7618866 C54.97363021 291.96051966 54.96774415 288.15918418 54.96076894 284.35782456 C54.9545244 280.38598683 54.95393073 276.4141484 54.95274353 272.44230652 C54.94963347 264.92004801 54.94142444 257.397804 54.93139404 249.87555188 C54.91813464 239.711444 54.91273037 229.54733216 54.90689182 219.38321781 C54.89748435 203.36744684 54.87756325 187.35170648 54.859375 171.3359375 C33.079375 171.3359375 11.299375 171.3359375 -11.140625 171.3359375 Z " fill="#000000" transform="translate(400.140625,127.6640625)"/><path d="M0 0 C1.6780671 -0.00457412 3.35613234 -0.00988329 5.03419495 -0.0158844 C8.53304709 -0.02476437 12.03167036 -0.02245104 15.53051758 -0.01245117 C19.9795726 -0.00096462 24.42783347 -0.02119418 28.87678432 -0.05036831 C32.33698919 -0.06885084 35.79700791 -0.06841412 39.25724983 -0.06273079 C40.89604875 -0.06257906 42.53486152 -0.06849824 44.17361259 -0.08102226 C58.74748509 -0.17674813 72.03619656 1.67405063 83.1484375 12.0234375 C89.31753401 18.66107299 93.53443359 27.11616471 93.5953064 36.22662354 C93.60390686 37.18818863 93.61250732 38.14975372 93.62136841 39.14045715 C93.62775833 40.71303535 93.62775833 40.71303535 93.63427734 42.31738281 C93.64654358 43.98147438 93.64654358 43.98147438 93.65905762 45.67918396 C93.68388123 49.35252342 93.7004193 53.02582434 93.71484375 56.69921875 C93.72016743 57.95430992 93.7254911 59.20940109 93.7309761 60.50252533 C93.75219739 65.77835382 93.77132734 71.05417655 93.7825985 76.33003616 C93.79882621 83.87455781 93.83198819 91.41856362 93.88899934 98.96289086 C93.93245996 104.91837806 93.94835258 110.87375095 93.95473099 116.82939911 C93.96144499 119.35713118 93.97667073 121.8848557 94.0006218 124.41248322 C94.03225693 127.95279571 94.03231178 131.4918097 94.02490234 135.03222656 C94.04130768 136.07251511 94.05771301 137.11280365 94.07461548 138.18461609 C94.01795196 144.81140054 92.8451628 149.36391741 88.44140625 154.43359375 C83.50607421 158.75380485 79.490929 160.58096946 72.87890625 160.55859375 C72.11449219 160.56117188 71.35007812 160.56375 70.5625 160.56640625 C68.44140625 160.43359375 68.44140625 160.43359375 65.44140625 159.43359375 C65.4502887 160.46374603 65.45917114 161.49389832 65.46832275 162.55526733 C65.54963735 172.29417762 65.60948108 182.03301844 65.64865494 191.772192 C65.66947216 196.77844844 65.69768202 201.78442941 65.74316406 206.79052734 C65.78683181 211.62755644 65.81058741 216.46432164 65.82091522 221.30153275 C65.82826918 223.14100927 65.84262929 224.98047241 65.86432648 226.81983566 C66.10142382 247.76487829 66.10142382 247.76487829 59.2578125 256.08984375 C58.51402344 256.69828125 57.77023437 257.30671875 57.00390625 257.93359375 C56.26269531 258.56265625 55.52148438 259.19171875 54.7578125 259.83984375 C47.9249016 264.54107081 40.41332792 264.13600298 32.44140625 263.43359375 C27.81445964 262.03169799 24.25559912 259.3337099 20.44140625 256.43359375 C19.82652344 256.85511719 19.21164063 257.27664063 18.578125 257.7109375 C17.76988281 258.25878906 16.96164063 258.80664062 16.12890625 259.37109375 C14.92814453 260.18900391 14.92814453 260.18900391 13.703125 261.0234375 C7.88753676 264.64939148 1.04965665 264.04847908 -5.55859375 263.43359375 C-12.48978026 261.37546513 -17.70593022 257.53269729 -21.55859375 251.43359375 C-24.13912855 245.57399618 -24.99127462 240.14395014 -24.89916992 233.79272461 C-24.89982704 232.57643372 -24.89982704 232.57643372 -24.90049744 231.33557129 C-24.89842882 228.68960394 -24.87519034 226.04429238 -24.8515625 223.3984375 C-24.84595967 221.55042364 -24.84169282 219.7024053 -24.83869934 217.85438538 C-24.82730467 213.01611798 -24.79788437 208.17812544 -24.7645874 203.33996582 C-24.73376995 198.39269731 -24.72016916 193.44538393 -24.70507812 188.49804688 C-24.67300904 178.8097758 -24.62187849 169.12170773 -24.55859375 159.43359375 C-25.54859375 159.76359375 -26.53859375 160.09359375 -27.55859375 160.43359375 C-34.20812992 161.24809517 -39.96756111 160.22039072 -45.55859375 156.43359375 C-50.06859582 151.73449306 -52.6712064 147.45769086 -52.70576477 140.85693359 C-52.71292007 139.91790695 -52.72007538 138.97888031 -52.72744751 138.01139832 C-52.73013641 136.98283218 -52.73282532 135.95426605 -52.7355957 134.89453125 C-52.7421669 133.80960892 -52.7487381 132.72468658 -52.75550842 131.60688782 C-52.77525717 128.00745577 -52.78690992 124.40806556 -52.796875 120.80859375 C-52.80095053 119.57839508 -52.80502605 118.34819641 -52.80922508 117.08071899 C-52.82794364 111.23677993 -52.84250461 105.39285728 -52.85083705 99.54889393 C-52.85961785 93.49162596 -52.87885082 87.43460958 -52.9152832 81.37744141 C-52.95379329 74.87058688 -52.9725324 68.363959 -52.97704124 61.85699463 C-52.98189979 59.38199625 -52.99349272 56.90700122 -53.01207924 54.43206787 C-53.03654613 50.95705195 -53.03549094 47.48288901 -53.02856445 44.0078125 C-53.04137451 42.99544022 -53.05418457 41.98306793 -53.06738281 40.9400177 C-52.99866049 31.42329695 -50.36646632 23.05642649 -44.55859375 15.43359375 C-43.96046875 14.62921875 -43.36234375 13.82484375 -42.74609375 12.99609375 C-40.51109228 10.37794917 -38.43496464 8.6833712 -35.55859375 6.80859375 C-34.71296875 6.23882812 -33.86734375 5.6690625 -32.99609375 5.08203125 C-22.4449246 0.02226604 -11.44404 -0.02761865 0 0 Z M-33.55859375 22.43359375 C-39.2166375 29.58059638 -39.85903131 36.15950631 -39.86499023 44.94946289 C-39.87331375 45.99569321 -39.88163727 47.04192352 -39.89021301 48.11985779 C-39.91426011 51.5695266 -39.92307697 55.01900633 -39.9296875 58.46875 C-39.93865492 60.8695837 -39.94777679 63.27041683 -39.95704651 65.67124939 C-39.9735226 70.69889687 -39.98123464 75.72647784 -39.98413086 80.75415039 C-39.98952584 87.19951872 -40.02725863 93.64426368 -40.07287502 100.0894556 C-40.1025923 105.04538774 -40.1098532 110.00116842 -40.11085701 114.95718193 C-40.11506668 117.33387558 -40.12753066 119.71056939 -40.14837456 122.08717537 C-40.17518864 125.40762696 -40.1704933 128.72661508 -40.15795898 132.04711914 C-40.17279327 133.02959625 -40.18762756 134.01207336 -40.20291138 135.02432251 C-40.15325945 139.63642072 -40.04634961 141.76973344 -37.24769592 145.57884216 C-34.6055495 147.76728923 -34.6055495 147.76728923 -30.93359375 147.49609375 C-27.11388379 146.29359247 -26.40325053 145.88679485 -24.55859375 142.43359375 C-24.2699054 139.56326956 -24.15162273 136.90995925 -24.17382812 134.04077148 C-24.16845535 133.19644562 -24.16308258 132.35211975 -24.157547 131.48220825 C-24.14777344 129.65160344 -24.14482358 127.82095233 -24.14790344 125.99032402 C-24.15237846 123.09472875 -24.13839131 120.19974556 -24.11950684 117.30421448 C-24.07646351 110.11495003 -24.06546195 102.92569885 -24.05328369 95.73632812 C-24.04177116 89.65818887 -24.01825811 83.58032868 -23.97859192 77.50230598 C-23.9649837 74.64655606 -23.96919899 71.79117938 -23.97399902 68.93540955 C-23.96466173 67.18927529 -23.95449374 65.44314521 -23.94335938 63.69702148 C-23.9495076 62.90057724 -23.95565582 62.104133 -23.96199036 61.28355408 C-23.90232522 55.97090256 -23.90232522 55.97090256 -22.2611084 53.40541077 C-19.31057066 51.72120629 -16.7204342 52.67240994 -13.55859375 53.43359375 C-12.18062806 56.18952513 -12.39560436 58.45139189 -12.35327148 61.53564453 C-12.3330896 62.83477783 -12.31290771 64.13391113 -12.29211426 65.47241211 C-12.2753445 66.85790862 -12.25870124 68.24340667 -12.2421875 69.62890625 C-12.22353638 70.88501709 -12.20488525 72.14112793 -12.18566895 73.43530273 C-12.11719294 78.14299251 -12.0571583 82.85080201 -11.99609375 87.55859375 C-11.85171875 98.07734375 -11.70734375 108.59609375 -11.55859375 119.43359375 C9.56140625 119.43359375 30.68140625 119.43359375 52.44140625 119.43359375 C52.65149566 98.50636531 52.65149566 98.50636531 52.8293457 77.57885742 C52.86162089 74.96141107 52.89499249 72.3439779 52.9296875 69.7265625 C52.932603 69.04604324 52.93551849 68.36552399 52.93852234 67.66438293 C52.94825117 65.65919778 52.97825634 63.65414247 53.0090332 61.64916992 C53.02013626 60.51887863 53.03123932 59.38858734 53.04267883 58.2240448 C53.44140625 55.43359375 53.44140625 55.43359375 54.74186707 53.53340149 C56.44140625 52.43359375 56.44140625 52.43359375 60.06640625 52.62109375 C61.18015625 52.88921875 62.29390625 53.15734375 63.44140625 53.43359375 C65.02473524 56.60025173 64.60349343 60.01328467 64.61499023 63.49169922 C64.62167725 64.32437317 64.62836426 65.15704712 64.63525391 66.01495361 C64.64932121 67.82650148 64.66120989 69.63806725 64.67120171 71.44964218 C64.68758579 74.31578816 64.71082265 77.18180158 64.73609924 80.04788208 C64.80694609 88.1980328 64.86700785 96.34823784 64.91821289 104.49853516 C64.94999409 109.48055137 64.9912684 114.46241582 65.03840828 119.44430923 C65.05443462 121.34449662 65.06675326 123.244719 65.07531548 125.14495468 C65.08746136 127.8023597 65.11160839 130.4594076 65.13842773 133.11669922 C65.13901688 133.90333954 65.13960602 134.68997986 65.14021301 135.50045776 C65.18634181 140.7929755 65.18634181 140.7929755 67.44140625 145.43359375 C70.32740013 147.78977917 70.32740013 147.78977917 73.94140625 147.24609375 C77.45970155 146.42934663 78.35667189 146.19306365 80.44140625 143.43359375 C80.89636354 141.32858907 80.89636354 141.32858907 80.83581543 138.96409607 C80.84716522 138.04886673 80.85851501 137.13363739 80.87020874 136.19067383 C80.86727814 135.18858887 80.86434753 134.18650391 80.86132812 133.15405273 C80.86979767 132.09678482 80.87826721 131.03951691 80.88699341 129.95021057 C80.91045379 126.44324816 80.91138293 122.93672257 80.91015625 119.4296875 C80.91725554 116.99170251 80.92495419 114.5537192 80.93322754 112.11573792 C80.94669543 106.99695195 80.94823213 101.87832024 80.94238281 96.75952148 C80.93650371 90.2147603 80.9669943 83.67074529 81.00749969 77.1261282 C81.03342097 72.08590236 81.03624968 67.04585467 81.03260803 62.00557137 C81.03429706 59.59394528 81.04391855 57.18231078 81.06175232 54.77075005 C81.0840137 51.38630124 81.07419998 48.00334244 81.05664062 44.61889648 C81.06990387 43.63098114 81.08316711 42.6430658 81.09683228 41.62521362 C81.00463321 33.93454386 78.99001899 27.2645061 73.6679306 21.51903439 C66.61475123 15.06385634 59.59248835 13.32258074 50.22363281 13.27246094 C49.51559509 13.26749603 48.80755737 13.26253113 48.07806396 13.25741577 C45.74604299 13.2428651 43.41409008 13.23600354 41.08203125 13.23046875 C40.28144035 13.22764137 39.48084946 13.224814 38.65599823 13.22190094 C34.41812309 13.20693576 30.18028175 13.19768985 25.94238281 13.19335938 C21.58369577 13.18788313 17.22532243 13.16386547 12.86673355 13.13538742 C9.49850588 13.11668162 6.13035254 13.1115512 2.76207733 13.1100235 C1.15625039 13.10701362 -0.44957577 13.09904193 -2.05535126 13.08583832 C-14.21533181 12.99299945 -24.22391373 13.73392598 -33.55859375 22.43359375 Z M-11.55859375 132.43359375 C-11.64584938 151.48240854 -11.64584938 151.48240854 -11.70507812 170.53125 C-11.72301252 178.30035548 -11.74423083 186.0693549 -11.78491211 193.83837891 C-11.81750445 200.10182228 -11.83544665 206.36515192 -11.84322548 212.62867355 C-11.84876916 215.01848516 -11.85959454 217.40829054 -11.87578392 219.79805374 C-11.89755603 223.14496572 -11.9005607 226.49140752 -11.89916992 229.83837891 C-11.90995575 230.82668701 -11.92074158 231.81499512 -11.93185425 232.83325195 C-11.90226659 239.41211702 -10.95102093 243.75970454 -6.43359375 248.80859375 C-2.4013404 251.08769347 0.91232026 251.20841093 5.44140625 250.43359375 C10.09580912 248.27877761 11.93326376 246.1124119 13.83732033 241.39089775 C14.83717757 238.1512517 14.88071168 234.92706932 14.8737793 231.57055664 C14.88397095 230.81850952 14.8941626 230.0664624 14.90466309 229.29162598 C14.93462438 226.82975654 14.94403283 224.36827726 14.953125 221.90625 C14.96998425 220.18988265 14.98813617 218.47352755 15.00752258 216.75718689 C15.05489352 212.25771921 15.08478615 207.75830123 15.11096191 203.25866699 C15.14083279 198.65997507 15.18734062 194.06145414 15.23242188 189.46289062 C15.31830801 180.45321469 15.38571841 171.44350342 15.44140625 162.43359375 C21.15234375 160.34765625 21.15234375 160.34765625 23.75390625 161.12109375 C25.44140625 162.43359375 25.44140625 162.43359375 26.44140625 165.43359375 C26.54554131 167.88575215 26.59547631 170.31066448 26.59912109 172.76318359 C26.60420181 173.50661514 26.60928253 174.25004669 26.61451721 175.01600647 C26.62521408 176.63000691 26.63383694 178.24402211 26.64063644 179.85804367 C26.65243228 182.41371136 26.67188666 184.96921059 26.6937561 187.52481079 C26.75535067 194.79089753 26.80941898 202.05696657 26.84277344 209.32324219 C26.86372703 213.76832567 26.89903484 218.21310116 26.94353104 222.65800858 C26.95768485 224.35081989 26.96641209 226.04368568 26.96958542 227.73655319 C26.97449827 230.10643461 26.9976646 232.47549955 27.02490234 234.84521484 C27.02189621 235.5425322 27.01889008 236.23984955 27.01579285 236.95829773 C27.08955375 241.28320444 27.84000072 243.97050444 30.44140625 247.43359375 C34.10953559 250.5622923 37.54544995 251.01137563 42.22265625 250.85546875 C46.08911438 250.12029713 47.77638575 248.29361575 50.44140625 245.43359375 C52.25026922 242.45887849 52.68989347 240.27704582 52.68191528 236.81451416 C52.68466461 235.89187271 52.68741394 234.96923126 52.69024658 234.01863098 C52.68305603 233.01378159 52.67586548 232.00893219 52.66845703 230.97363281 C52.66874908 229.90990952 52.66904114 228.84618622 52.66934204 227.75022888 C52.66794835 224.23314262 52.65238507 220.71626802 52.63671875 217.19921875 C52.63298877 214.76112992 52.63014172 212.32303959 52.62814331 209.88494873 C52.62050573 203.46681584 52.60085607 197.04877341 52.57873535 190.63067627 C52.55468339 182.93059661 52.54549654 175.23048672 52.53382874 167.53038025 C52.51443186 155.83138849 52.47610995 144.13259525 52.44140625 132.43359375 C31.32140625 132.43359375 10.20140625 132.43359375 -11.55859375 132.43359375 Z " fill="#000000" transform="translate(228.55859375,201.56640625)"/><path d="M0 0 C0.716185 -0.0049649 1.43237 -0.00992981 2.17025757 -0.01504517 C4.52993752 -0.0295993 6.88955019 -0.0364585 9.24926758 -0.04199219 C10.46483054 -0.04623325 10.46483054 -0.04623325 11.70495033 -0.05056 C15.99584909 -0.0655277 20.28671445 -0.07477162 24.57763672 -0.07910156 C28.98778998 -0.08457372 33.39763257 -0.108582 37.80768871 -0.13707352 C41.21799073 -0.15579532 44.62821945 -0.16091061 48.0385685 -0.16243744 C49.66310634 -0.16544445 51.28764349 -0.17340621 52.91213036 -0.18662262 C66.86560045 -0.29201586 78.12004386 1.11788211 88.68286133 11.01269531 C95.99349227 18.82107134 98.79400403 27.22869488 98.88330078 37.81225586 C98.88987198 38.46016586 98.89644318 39.10807587 98.9032135 39.77561951 C98.92283247 41.90803164 98.93458485 44.04037365 98.94458008 46.17285156 C98.94865561 46.90599894 98.95273113 47.63914631 98.95693016 48.39451027 C98.97774465 52.27691994 98.99206497 56.15929477 99.00146484 60.04174805 C99.01250618 64.02827945 99.04689244 68.01424917 99.08663654 72.0005827 C99.11292647 75.08662369 99.12116766 78.17253343 99.12474632 81.25867653 C99.12958216 82.72693477 99.14110929 84.19518836 99.15978432 85.6633358 C99.26789027 94.72700018 99.34048332 103.93030809 92.99775696 111.08964539 C87.2723419 116.48877161 81.62687012 117.38786531 73.97583008 117.32910156 C71.70629883 117.16113281 71.70629883 117.16113281 68.70629883 116.16113281 C68.70487381 116.87808319 68.70344879 117.59503357 68.70198059 118.33370972 C68.68406287 125.12973511 68.64219164 131.92524888 68.57420826 138.72094536 C68.54008976 142.21378844 68.51485222 145.70620123 68.51074219 149.19921875 C68.50559795 153.22610192 68.46033244 157.25170645 68.41333008 161.27832031 C68.41726273 162.51726044 68.42119537 163.75620056 68.42524719 165.03268433 C68.28788001 173.28788478 67.11792983 180.8496264 60.96565247 186.86227417 C55.80289045 190.96524057 50.25275116 192.43228727 43.70629883 192.03613281 C40.21795712 191.61795528 37.8441144 190.86980513 34.89379883 188.97363281 C31.94736503 186.81921354 31.94736503 186.81921354 29.33129883 187.72363281 C28.46504883 188.19800781 27.59879883 188.67238281 26.70629883 189.16113281 C19.58018551 192.26191665 13.17472269 193.16045774 5.72973633 190.43847656 C0.24903353 187.64983703 -4.13459017 183.15311904 -6.35836792 177.41293335 C-7.2999126 174.13953804 -7.53557127 171.54938505 -7.52075195 168.15576172 C-7.52060089 166.99501129 -7.52044983 165.83426086 -7.52029419 164.63833618 C-7.50997162 163.40062469 -7.49964905 162.16291321 -7.48901367 160.88769531 C-7.48618378 159.60881439 -7.48335388 158.32993347 -7.48043823 157.01229858 C-7.47116137 153.62893182 -7.453223 150.24583955 -7.43103027 146.86254883 C-7.41049158 143.40350707 -7.40141944 139.94443685 -7.39135742 136.48535156 C-7.36933317 129.71053667 -7.33588235 122.93585058 -7.29370117 116.16113281 C-8.77870117 116.65613281 -8.77870117 116.65613281 -10.29370117 117.16113281 C-17.53419084 117.87465441 -23.25475431 117.38426878 -29.29370117 113.16113281 C-34.09932841 109.10304759 -36.97899314 105.0035755 -37.68138123 98.65960693 C-37.68678421 97.37072571 -37.69218719 96.08184448 -37.69775391 94.75390625 C-37.70461716 94.03757523 -37.71148041 93.3212442 -37.71855164 92.58320618 C-37.73676438 90.22876829 -37.73298865 87.87500066 -37.72729492 85.52050781 C-37.73186096 83.87151882 -37.73716779 82.22253172 -37.74317932 80.57354736 C-37.75210077 77.1204047 -37.74970024 73.6674934 -37.73974609 70.21435547 C-37.72828588 65.81191008 -37.74842699 61.41027035 -37.77766323 57.00793076 C-37.79610963 53.60187794 -37.7957156 50.19601492 -37.79002571 46.78992462 C-37.78987337 45.16818363 -37.79584458 43.54642905 -37.80831718 41.92473602 C-37.8949374 28.8112217 -36.26802434 19.24340965 -26.93432617 9.43066406 C-18.90985634 2.5338934 -10.36486575 0.05481468 0 0 Z M-21.13745117 23.41503906 C-26.35561592 31.29517299 -25.46533056 40.37115662 -25.49682617 49.50488281 C-25.50252625 50.78794312 -25.50822632 52.07100342 -25.51409912 53.39294434 C-25.52455494 56.09936922 -25.53043385 58.80576485 -25.53393555 61.51220703 C-25.53942908 64.96529794 -25.56349782 68.41799636 -25.5919075 71.87096405 C-25.61509166 75.18642896 -25.61698574 78.5018411 -25.62182617 81.81738281 C-25.63417297 83.04984741 -25.64651978 84.28231201 -25.65924072 85.55212402 C-25.64300257 91.8183078 -25.54743347 96.7134662 -22.29370117 102.16113281 C-18.78116971 104.50282045 -17.42900762 104.65736959 -13.29370117 104.16113281 C-10.59379456 102.36119507 -8.75181467 101.07735981 -7.29370117 98.16113281 C-7.18469202 96.45146891 -7.13734499 94.7377072 -7.12011719 93.0246582 C-7.09988243 91.4177285 -7.09988243 91.4177285 -7.07923889 89.77833557 C-7.06880051 88.61688522 -7.05836212 87.45543488 -7.04760742 86.25878906 C-7.01467547 83.81803018 -6.98146372 81.37727506 -6.94799805 78.93652344 C-6.90051305 75.07400045 -6.85607803 71.21149343 -6.81689453 67.34887695 C-6.77728154 63.63118556 -6.72571552 59.91380866 -6.67260742 56.19628906 C-6.66419327 55.03686295 -6.65577911 53.87743683 -6.64710999 52.68287659 C-6.63046799 51.60843796 -6.61382599 50.53399933 -6.59667969 49.42700195 C-6.58637222 48.480392 -6.57606476 47.53378204 -6.56544495 46.55848694 C-6.29370117 44.16113281 -6.29370117 44.16113281 -4.29370117 41.16113281 C-0.79370117 40.84863281 -0.79370117 40.84863281 2.70629883 41.16113281 C8.40717595 46.86200994 5.34021056 57.10719096 5.70629883 65.16113281 C21.87629883 65.16113281 38.04629883 65.16113281 54.70629883 65.16113281 C55.03629883 58.23113281 55.36629883 51.30113281 55.70629883 44.16113281 C56.69629883 42.67613281 56.69629883 42.67613281 57.70629883 41.16113281 C61.20629883 40.84863281 61.20629883 40.84863281 64.70629883 41.16113281 C67.27174783 43.72658181 66.96132993 44.70262805 66.97753906 48.26586914 C66.99281898 49.86311577 66.99281898 49.86311577 67.00840759 51.49263 C67.01054764 52.64780624 67.01268768 53.80298248 67.01489258 54.99316406 C67.04005553 57.42480705 67.06545351 59.85644762 67.09106445 62.28808594 C67.11981017 66.13288736 67.14381843 69.97764662 67.16259766 73.82250977 C67.18423839 77.52545354 67.22368348 81.22789398 67.26489258 84.93066406 C67.2650663 86.65431938 67.2650663 86.65431938 67.26524353 88.41279602 C67.28525169 90.02422737 67.28525169 90.02422737 67.30566406 91.66821289 C67.31073471 92.61038162 67.31580536 93.55255035 67.32102966 94.52326965 C67.78627982 97.70874712 68.81843063 99.57007266 70.70629883 102.16113281 C74.21883029 104.50282045 75.57099238 104.65736959 79.70629883 104.16113281 C83.04390928 102.0102283 84.44100816 100.95700482 85.70629883 97.16113281 C85.81047965 95.10292779 85.854912 93.04151488 85.86743164 90.98071289 C85.87703918 89.70541214 85.88664673 88.43011139 85.89654541 87.11616516 C85.90139487 85.72099995 85.90567334 84.32583266 85.90942383 82.93066406 C85.91517935 81.49680073 85.92093703 80.06293741 85.92669678 78.6290741 C85.93720143 75.62046959 85.9430469 72.61189175 85.9465332 69.60327148 C85.95200233 65.76455466 85.97599826 61.92619533 86.00450516 58.08759022 C86.02321633 55.12343856 86.02834172 52.15937134 86.02986908 49.19516563 C86.03287947 47.7810948 86.04085299 46.36702488 86.05405426 44.95301247 C86.14011568 35.02204726 86.00209337 26.66537863 78.70629883 19.16113281 C72.53567659 14.46609415 67.18601199 12.92013065 59.48266602 12.85473633 C58.78584213 12.84641281 58.08901825 12.83808929 57.37107849 12.82951355 C55.081719 12.80554318 52.79264527 12.79665671 50.50317383 12.79003906 C48.8990267 12.78106154 47.29488038 12.7719395 45.69073486 12.76268005 C42.33180718 12.74622175 38.97297878 12.73849596 35.61401367 12.7355957 C31.33253562 12.73022091 27.05200505 12.6925656 22.77079391 12.64685154 C19.45740444 12.61694713 16.14423925 12.60986923 12.83072662 12.60886955 C11.25361043 12.60469227 9.67649201 12.59235926 8.09951019 12.57135201 C-3.73267646 12.42629867 -13.33739053 13.59693948 -21.13745117 23.41503906 Z M5.70629883 78.16113281 C4.45431465 89.27436423 4.45431465 89.27436423 8.23364258 93.30957031 C9.86683254 94.49503627 9.86683254 94.49503627 11.64379883 95.53613281 C12.23628418 95.93550049 12.82876953 96.33486816 13.43920898 96.74633789 C14.62686828 97.54224016 15.82541901 98.32215942 17.03491211 99.08447266 C18.51293045 100.03657036 19.92666947 101.08686852 21.32739258 102.14941406 C25.61144109 105.44013437 25.61144109 105.44013437 30.88208008 106.20800781 C36.12821171 104.77188598 39.7322706 101.99005815 44.01879883 98.72363281 C44.82897461 98.12486328 45.63915039 97.52609375 46.47387695 96.90917969 C50.76039293 93.73493258 50.76039293 93.73493258 54.70629883 90.16113281 C54.70629883 86.20113281 54.70629883 82.24113281 54.70629883 78.16113281 C38.53629883 78.16113281 22.36629883 78.16113281 5.70629883 78.16113281 Z M5.70629883 107.16113281 C5.59026119 115.53236664 5.5015119 123.90326243 5.44723797 132.27510262 C5.42118413 136.16285813 5.38586517 140.05006197 5.32910156 143.9375 C5.27462831 147.69173449 5.24484661 151.44543961 5.23191261 155.20003891 C5.2226999 156.62978317 5.20470894 158.05949964 5.17764854 159.48901749 C4.6802577 168.26424179 4.6802577 168.26424179 8.05322266 176.01611328 C11.16976994 178.53585051 12.69279075 179.32494947 16.70629883 179.16113281 C20.94838023 176.91392141 20.94838023 176.91392141 23.70629883 173.16113281 C23.8526005 171.44307634 23.93831495 169.71970042 23.99438477 167.99633789 C24.02981384 166.91794144 24.06524292 165.83954498 24.10174561 164.72846985 C24.22566439 159.78470979 24.31629285 154.84105465 24.38598633 149.89624023 C24.43270943 147.28964277 24.50093394 144.68333857 24.59106445 142.07788086 C24.71886364 138.31948804 24.77454438 134.5658848 24.81567383 130.80566406 C24.86931091 129.64500931 24.922948 128.48435455 24.97821045 127.28852844 C24.97081714 123.91350044 24.83775905 121.34522353 23.70629883 118.16113281 C21.15139455 115.7695371 18.66981319 114.23396713 15.56182861 112.63847351 C12.60809257 111.11032469 10.29296194 109.23294706 7.70629883 107.16113281 C7.04629883 107.16113281 6.38629883 107.16113281 5.70629883 107.16113281 Z M46.26879883 112.09863281 C44.8957946 113.02544254 43.52212615 113.95126926 42.14770508 114.87597656 C41.53612549 115.28968506 40.9245459 115.70339355 40.29443359 116.12963867 C38.70629883 117.16113281 38.70629883 117.16113281 36.70629883 118.16113281 C36.57938929 125.74151713 36.49190074 133.3216269 36.43164062 140.90283203 C36.40651643 143.48106118 36.37241123 146.05921924 36.32910156 148.63720703 C36.26836219 152.34588167 36.24006686 156.05361357 36.21801758 159.76269531 C36.19221115 160.91291168 36.16640472 162.06312805 36.13981628 163.24819946 C36.04601736 170.01997361 36.04601736 170.01997361 39.05322266 175.86572266 C42.15516262 178.54948446 43.6054465 179.32851454 47.70629883 179.16113281 C51.94838023 176.91392141 51.94838023 176.91392141 54.70629883 173.16113281 C54.79797671 171.06758262 54.82380816 168.97104104 54.81982422 166.87548828 C54.81997025 166.23146057 54.82011627 165.58743286 54.82026672 164.92388916 C54.81956923 162.79199879 54.81178449 160.66019545 54.80395508 158.52832031 C54.80209032 157.05144295 54.80066669 155.57456497 54.79966736 154.09768677 C54.79584675 150.20801083 54.78602034 146.31837214 54.77496338 142.42871094 C54.76473946 138.46061711 54.76016763 134.49251726 54.75512695 130.52441406 C54.74439768 122.73663665 54.72732672 114.94888995 54.70629883 107.16113281 C52.01748284 107.16113281 48.55010807 110.55458879 46.26879883 112.09863281 Z " fill="#000000" transform="translate(52.293701171875,276.8388671875)"/><path d="M0 0 C7.76361623 7.2148367 12.11924549 15.44299145 13.22265625 26.05078125 C13.57004125 38.354 10.22200103 47.90478654 1.83984375 56.9453125 C-6.74644826 65.15235133 -16.50554206 68.11409712 -28.22265625 67.95703125 C-38.01814378 67.2441521 -47.74361508 62.75069978 -54.43359375 55.49609375 C-61.26538411 46.63218445 -64.5232523 36.83953451 -63.96484375 25.6015625 C-62.40005657 13.88070464 -57.33328533 5.15685518 -48.12109375 -2.25390625 C-32.92227919 -12.03650275 -14.20157931 -11.50471374 0 0 Z M-45.12109375 12.74609375 C-49.56225816 19.42437075 -51.89004113 26.09080174 -50.55859375 34.12109375 C-48.66981697 41.49991502 -44.3416432 47.72123774 -37.90234375 51.81640625 C-31.77478812 55.01456029 -25.28434031 55.83927327 -18.63671875 54.09375 C-11.53908919 51.58807169 -6.50594138 48.02042006 -2.8046875 41.38671875 C0.54528452 33.86970836 1.03080783 27.4995294 -1.55859375 19.68359375 C-4.45436517 13.16048761 -9.21337398 8.46804148 -15.75390625 5.5859375 C-26.62900977 2.09616548 -37.06247886 4.35389785 -45.12109375 12.74609375 Z " fill="#000000" transform="translate(449.12109375,52.25390625)"/><path d="M0 0 C7.89853401 6.88234835 11.84006637 16.19633429 13 26.5 C13.45722291 38.09683567 9.8872628 48.25664754 2.25390625 57 C-5.63755508 64.61255313 -16.6097355 68.391215 -27.48046875 68.2109375 C-38.05163031 67.32591002 -47.66089401 62.9377233 -54.875 55.125 C-62.26160638 45.98298834 -65.20389367 35.68843602 -64 24 C-61.71093455 12.49984483 -56.76349657 4.02703159 -47.11328125 -2.71875 C-31.68138242 -12.0748735 -14.47403298 -10.86171022 0 0 Z M-45.046875 12.6953125 C-49.65836629 18.13687222 -51.75933545 24.66105998 -51.3828125 31.77734375 C-50.03973526 39.57541465 -45.64684366 46.70514749 -39.1875 51.28515625 C-33.42627574 54.52584489 -27.18147008 55.72118224 -20.64453125 54.59375 C-13.19381112 52.4393249 -7.15826833 48.39242085 -3.0625 41.75 C0.17748797 35.19314299 0.73692877 28.96384055 -1 21.875 C-3.39487806 14.98295273 -7.71349251 9.93236584 -14.1875 6.5625 C-25.59835247 1.37997434 -36.2161534 4.26598734 -45.046875 12.6953125 Z " fill="#000000" transform="translate(110,201)"/><path d="M0 0 C7.33009873 6.85718913 11.05891204 15.08732646 12.0078125 25.05078125 C12.38841305 36.65909812 9.5935982 46.06930519 1.6875 54.6875 C-6.30227591 62.93065147 -14.96933537 66.73231557 -26.4375 67 C-36.61011041 66.89666649 -45.55546294 63.27145017 -53.3125 56.6875 C-62.0430669 47.68032107 -64.90718421 38.60287131 -64.78979492 26.30981445 C-64.56018607 20.14918264 -63.41124696 15.08082083 -60.3125 9.6875 C-59.714375 8.635625 -59.11625 7.58375 -58.5 6.5 C-51.01955105 -3.11772008 -42.71717505 -8.51946572 -30.45703125 -10.15625 C-18.85030949 -10.73298152 -8.93954072 -7.30507245 0 0 Z M-44.1640625 10.55078125 C-50.27397278 17.22642397 -51.85177788 22.25177204 -51.6875 31.328125 C-50.9287839 38.12495672 -47.97257114 43.47176829 -43 48.125 C-37.18386694 52.54977364 -31.20693073 54.34182673 -23.90234375 54.10546875 C-16.92060677 52.97870275 -10.73283197 49.14791009 -6.3125 43.6875 C-1.62926344 36.48742203 -0.05944174 30.021767 -1.73828125 21.53515625 C-3.99107658 14.55563699 -8.81290739 8.75998947 -15.25 5.25 C-25.57901752 0.78071357 -36.13217814 2.46806218 -44.1640625 10.55078125 Z " fill="#000000" transform="translate(277.3125,127.3125)"/></svg>