<?xml version="1.0" encoding="UTF-8"?><svg xmlns="http://www.w3.org/2000/svg" xmlns:xlink="http://www.w3.org/1999/xlink" width="28px" height="28px" viewBox="0 0 28 28" version="1.1"><g id="surface1"><path style=" stroke:none;fill-rule:nonzero;fill:rgb(0%,0%,0%);fill-opacity:1;" d="M 21.882812 6.980469 C 21.980469 6.980469 22.078125 6.980469 22.171875 6.980469 C 22.375 6.980469 22.578125 6.980469 22.78125 6.980469 C 23.039062 6.980469 23.296875 6.976562 23.554688 6.976562 C 23.753906 6.976562 23.953125 6.976562 24.15625 6.976562 C 24.25 6.976562 24.34375 6.972656 24.441406 6.972656 C 25.183594 6.96875 25.902344 7.007812 26.46875 7.546875 C 26.507812 7.582031 26.542969 7.617188 26.582031 7.65625 C 27.113281 8.203125 27.222656 8.789062 27.214844 9.53125 C 27.214844 9.613281 27.214844 9.695312 27.214844 9.777344 C 27.21875 9.996094 27.21875 10.21875 27.214844 10.4375 C 27.214844 10.667969 27.214844 10.898438 27.214844 11.132812 C 27.21875 11.519531 27.214844 11.90625 27.214844 12.296875 C 27.214844 12.742188 27.214844 13.191406 27.214844 13.640625 C 27.21875 14.023438 27.21875 14.410156 27.214844 14.796875 C 27.214844 15.027344 27.214844 15.257812 27.21875 15.488281 C 27.21875 15.703125 27.21875 15.917969 27.214844 16.132812 C 27.214844 16.214844 27.214844 16.292969 27.214844 16.371094 C 27.21875 16.8125 27.210938 17.160156 26.90625 17.5 C 26.636719 17.757812 26.390625 17.84375 26.019531 17.839844 C 25.964844 17.839844 25.90625 17.835938 25.847656 17.835938 C 25.703125 17.828125 25.703125 17.828125 25.59375 17.773438 C 25.59375 17.804688 25.59375 17.839844 25.59375 17.875 C 25.601562 18.679688 25.605469 19.484375 25.609375 20.289062 C 25.609375 20.679688 25.609375 21.070312 25.613281 21.460938 C 25.617188 21.800781 25.617188 22.140625 25.621094 22.480469 C 25.621094 22.660156 25.621094 22.839844 25.621094 23.019531 C 25.625 23.21875 25.625 23.421875 25.625 23.621094 C 25.625 23.679688 25.625 23.738281 25.628906 23.800781 C 25.625 24.304688 25.476562 24.6875 25.117188 25.042969 C 24.828125 25.277344 24.511719 25.351562 24.148438 25.398438 C 23.753906 25.351562 23.402344 25.238281 23.132812 24.9375 C 22.996094 25 22.882812 25.070312 22.761719 25.15625 C 22.417969 25.371094 22.085938 25.417969 21.691406 25.351562 C 21.3125 25.261719 21.023438 25.078125 20.78125 24.773438 C 20.558594 24.394531 20.53125 24.058594 20.539062 23.628906 C 20.539062 23.5625 20.539062 23.5 20.539062 23.433594 C 20.539062 23.226562 20.539062 23.019531 20.542969 22.808594 C 20.542969 22.664062 20.542969 22.519531 20.542969 22.375 C 20.542969 22.03125 20.542969 21.691406 20.546875 21.347656 C 20.550781 20.957031 20.550781 20.566406 20.550781 20.175781 C 20.554688 19.375 20.558594 18.574219 20.5625 17.773438 C 20.527344 17.792969 20.492188 17.808594 20.453125 17.828125 C 20.046875 17.867188 19.691406 17.863281 19.359375 17.609375 C 19.152344 17.410156 18.988281 17.199219 18.960938 16.90625 C 18.960938 16.847656 18.960938 16.785156 18.960938 16.726562 C 18.960938 16.65625 18.960938 16.585938 18.960938 16.515625 C 18.960938 16.4375 18.960938 16.359375 18.960938 16.285156 C 18.960938 16.203125 18.960938 16.121094 18.960938 16.042969 C 18.957031 15.820312 18.957031 15.601562 18.957031 15.382812 C 18.957031 15.242188 18.957031 15.105469 18.957031 14.96875 C 18.957031 14.488281 18.957031 14.007812 18.957031 13.527344 C 18.957031 13.082031 18.957031 12.632812 18.953125 12.1875 C 18.953125 11.800781 18.953125 11.417969 18.953125 11.035156 C 18.953125 10.804688 18.953125 10.574219 18.949219 10.347656 C 18.949219 10.128906 18.949219 9.914062 18.949219 9.699219 C 18.949219 9.621094 18.949219 9.539062 18.949219 9.460938 C 18.945312 8.78125 19.054688 8.222656 19.523438 7.710938 C 20.207031 7.019531 20.957031 6.984375 21.882812 6.980469 Z M 19.996094 8.234375 C 19.765625 8.539062 19.675781 8.820312 19.671875 9.203125 C 19.671875 9.269531 19.671875 9.339844 19.671875 9.40625 C 19.671875 9.480469 19.671875 9.558594 19.671875 9.632812 C 19.671875 9.710938 19.671875 9.789062 19.671875 9.867188 C 19.667969 10.082031 19.667969 10.296875 19.667969 10.507812 C 19.667969 10.640625 19.667969 10.777344 19.667969 10.910156 C 19.667969 11.375 19.667969 11.839844 19.667969 12.308594 C 19.667969 12.742188 19.667969 13.175781 19.664062 13.609375 C 19.664062 13.984375 19.664062 14.355469 19.664062 14.726562 C 19.664062 14.949219 19.664062 15.175781 19.660156 15.398438 C 19.660156 15.605469 19.660156 15.816406 19.660156 16.023438 C 19.660156 16.101562 19.660156 16.179688 19.660156 16.253906 C 19.660156 16.359375 19.660156 16.464844 19.660156 16.570312 C 19.660156 16.628906 19.660156 16.6875 19.660156 16.746094 C 19.695312 16.9375 19.753906 17 19.90625 17.117188 C 20.097656 17.152344 20.097656 17.152344 20.289062 17.117188 C 20.417969 17.015625 20.488281 16.9375 20.5625 16.789062 C 20.566406 16.699219 20.570312 16.609375 20.570312 16.515625 C 20.570312 16.460938 20.570312 16.402344 20.570312 16.34375 C 20.570312 16.28125 20.570312 16.214844 20.570312 16.152344 C 20.574219 16.085938 20.574219 16.019531 20.574219 15.949219 C 20.574219 15.804688 20.574219 15.660156 20.574219 15.515625 C 20.574219 15.285156 20.578125 15.058594 20.578125 14.828125 C 20.582031 14.175781 20.585938 13.527344 20.589844 12.875 C 20.589844 12.515625 20.59375 12.15625 20.59375 11.796875 C 20.597656 11.570312 20.597656 11.34375 20.597656 11.113281 C 20.597656 10.941406 20.597656 10.765625 20.601562 10.589844 C 20.601562 10.527344 20.601562 10.464844 20.601562 10.398438 C 20.601562 10.34375 20.601562 10.285156 20.601562 10.226562 C 20.601562 10.175781 20.601562 10.125 20.601562 10.074219 C 20.617188 9.953125 20.617188 9.953125 20.726562 9.84375 C 20.917969 9.828125 20.917969 9.828125 21.109375 9.84375 C 21.222656 10.011719 21.234375 10.050781 21.234375 10.242188 C 21.234375 10.289062 21.234375 10.335938 21.234375 10.386719 C 21.234375 10.4375 21.234375 10.488281 21.234375 10.542969 C 21.238281 10.597656 21.238281 10.652344 21.238281 10.710938 C 21.238281 10.890625 21.242188 11.074219 21.242188 11.257812 C 21.242188 11.382812 21.242188 11.507812 21.246094 11.632812 C 21.246094 11.964844 21.25 12.296875 21.25 12.628906 C 21.253906 13.027344 21.257812 13.425781 21.261719 13.824219 C 21.265625 14.429688 21.269531 15.035156 21.273438 15.640625 C 22.464844 15.640625 23.65625 15.640625 24.882812 15.640625 C 24.886719 15.234375 24.886719 14.832031 24.890625 14.414062 C 24.894531 14.160156 24.894531 13.902344 24.898438 13.644531 C 24.898438 13.238281 24.902344 12.832031 24.90625 12.425781 C 24.90625 12.097656 24.910156 11.773438 24.914062 11.445312 C 24.914062 11.320312 24.914062 11.195312 24.914062 11.066406 C 24.917969 10.894531 24.917969 10.71875 24.921875 10.542969 C 24.921875 10.492188 24.921875 10.4375 24.921875 10.386719 C 24.921875 10.339844 24.921875 10.289062 24.921875 10.242188 C 24.921875 10.179688 24.921875 10.179688 24.921875 10.117188 C 24.9375 10.007812 24.9375 10.007812 25.046875 9.84375 C 25.164062 9.828125 25.164062 9.828125 25.300781 9.832031 C 25.34375 9.835938 25.390625 9.835938 25.433594 9.839844 C 25.46875 9.839844 25.503906 9.839844 25.539062 9.84375 C 25.539062 9.898438 25.539062 9.898438 25.539062 9.953125 C 25.542969 10.816406 25.550781 11.683594 25.554688 12.550781 C 25.558594 12.96875 25.558594 13.386719 25.5625 13.804688 C 25.5625 14.171875 25.566406 14.535156 25.570312 14.898438 C 25.570312 15.09375 25.570312 15.285156 25.570312 15.480469 C 25.574219 15.695312 25.574219 15.910156 25.578125 16.125 C 25.578125 16.191406 25.578125 16.253906 25.578125 16.320312 C 25.578125 16.378906 25.578125 16.4375 25.578125 16.5 C 25.578125 16.550781 25.578125 16.601562 25.578125 16.652344 C 25.59375 16.800781 25.625 16.886719 25.703125 17.007812 C 25.90625 17.144531 26.007812 17.140625 26.25 17.117188 C 26.425781 16.988281 26.484375 16.890625 26.523438 16.679688 C 26.527344 16.578125 26.53125 16.476562 26.53125 16.371094 C 26.53125 16.308594 26.53125 16.246094 26.53125 16.183594 C 26.53125 16.113281 26.53125 16.046875 26.53125 15.976562 C 26.53125 15.902344 26.53125 15.828125 26.53125 15.753906 C 26.53125 15.558594 26.53125 15.359375 26.53125 15.160156 C 26.53125 15.035156 26.53125 14.914062 26.53125 14.789062 C 26.535156 14.355469 26.535156 13.921875 26.535156 13.488281 C 26.535156 13.085938 26.535156 12.683594 26.535156 12.28125 C 26.535156 11.933594 26.535156 11.585938 26.535156 11.242188 C 26.535156 11.035156 26.535156 10.828125 26.535156 10.621094 C 26.539062 10.425781 26.539062 10.230469 26.535156 10.035156 C 26.535156 9.929688 26.539062 9.828125 26.539062 9.722656 C 26.535156 9.132812 26.480469 8.542969 26.042969 8.105469 C 25.503906 7.667969 24.910156 7.6875 24.25 7.6875 C 24.15625 7.6875 24.0625 7.6875 23.96875 7.6875 C 23.773438 7.6875 23.578125 7.6875 23.382812 7.6875 C 23.136719 7.6875 22.886719 7.6875 22.636719 7.683594 C 22.445312 7.683594 22.25 7.683594 22.058594 7.683594 C 21.96875 7.683594 21.875 7.683594 21.785156 7.683594 C 21.128906 7.679688 20.449219 7.695312 19.996094 8.234375 Z M 21.273438 16.351562 C 21.265625 17.722656 21.265625 17.722656 21.261719 19.097656 C 21.261719 19.65625 21.261719 20.214844 21.257812 20.773438 C 21.253906 21.183594 21.253906 21.589844 21.253906 21.996094 C 21.253906 22.210938 21.25 22.429688 21.25 22.644531 C 21.25 22.847656 21.25 23.050781 21.25 23.253906 C 21.25 23.363281 21.246094 23.472656 21.246094 23.582031 C 21.25 24.019531 21.28125 24.234375 21.589844 24.542969 C 21.765625 24.640625 21.894531 24.660156 22.09375 24.664062 C 22.324219 24.59375 22.488281 24.5 22.636719 24.3125 C 22.730469 24.089844 22.757812 23.878906 22.757812 23.636719 C 22.757812 23.585938 22.757812 23.535156 22.761719 23.484375 C 22.761719 23.425781 22.761719 23.371094 22.761719 23.316406 C 22.761719 23.257812 22.761719 23.199219 22.761719 23.136719 C 22.765625 22.945312 22.765625 22.75 22.765625 22.554688 C 22.769531 22.421875 22.769531 22.285156 22.769531 22.152344 C 22.773438 21.796875 22.777344 21.445312 22.777344 21.089844 C 22.78125 20.730469 22.785156 20.367188 22.789062 20.007812 C 22.792969 19.300781 22.800781 18.589844 22.804688 17.882812 C 23.226562 17.875 23.226562 17.875 23.351562 17.9375 C 23.40625 18.09375 23.414062 18.242188 23.414062 18.410156 C 23.414062 18.460938 23.414062 18.511719 23.414062 18.5625 C 23.414062 18.617188 23.414062 18.671875 23.414062 18.730469 C 23.414062 18.789062 23.414062 18.84375 23.414062 18.90625 C 23.417969 19.03125 23.417969 19.160156 23.417969 19.285156 C 23.417969 19.484375 23.417969 19.683594 23.421875 19.886719 C 23.421875 20.453125 23.425781 21.023438 23.429688 21.59375 C 23.429688 21.941406 23.429688 22.289062 23.433594 22.636719 C 23.433594 22.769531 23.433594 22.902344 23.433594 23.035156 C 23.433594 23.222656 23.4375 23.40625 23.4375 23.59375 C 23.4375 23.648438 23.4375 23.703125 23.4375 23.757812 C 23.441406 24.03125 23.445312 24.226562 23.625 24.445312 C 23.820312 24.597656 24.007812 24.664062 24.257812 24.671875 C 24.496094 24.59375 24.660156 24.46875 24.828125 24.28125 C 24.886719 24.109375 24.890625 23.984375 24.890625 23.800781 C 24.890625 23.738281 24.890625 23.671875 24.890625 23.605469 C 24.890625 23.53125 24.890625 23.460938 24.890625 23.386719 C 24.890625 23.308594 24.890625 23.234375 24.890625 23.15625 C 24.890625 22.949219 24.890625 22.742188 24.886719 22.53125 C 24.886719 22.316406 24.886719 22.097656 24.886719 21.878906 C 24.886719 21.46875 24.886719 21.058594 24.886719 20.648438 C 24.886719 20.089844 24.886719 19.535156 24.886719 18.980469 C 24.886719 18.101562 24.882812 17.226562 24.882812 16.351562 C 23.691406 16.351562 22.5 16.351562 21.273438 16.351562 Z M 21.273438 16.351562 "/><path style=" stroke:none;fill-rule:nonzero;fill:rgb(0%,0%,0%);fill-opacity:1;" d="M 12.5 11.023438 C 12.589844 11.023438 12.683594 11.023438 12.773438 11.023438 C 12.964844 11.023438 13.15625 11.023438 13.347656 11.023438 C 13.59375 11.023438 13.835938 11.023438 14.078125 11.019531 C 14.269531 11.019531 14.457031 11.019531 14.644531 11.019531 C 14.734375 11.019531 14.824219 11.019531 14.914062 11.019531 C 15.710938 11.011719 16.4375 11.113281 17.046875 11.679688 C 17.382812 12.042969 17.613281 12.507812 17.617188 13.003906 C 17.617188 13.058594 17.617188 13.109375 17.621094 13.164062 C 17.621094 13.25 17.621094 13.25 17.621094 13.335938 C 17.621094 13.429688 17.621094 13.429688 17.621094 13.519531 C 17.621094 13.722656 17.625 13.921875 17.625 14.125 C 17.625 14.191406 17.625 14.261719 17.625 14.332031 C 17.625 14.621094 17.628906 14.910156 17.628906 15.199219 C 17.628906 15.609375 17.628906 16.023438 17.632812 16.433594 C 17.636719 16.761719 17.636719 17.085938 17.636719 17.414062 C 17.636719 17.550781 17.636719 17.6875 17.640625 17.828125 C 17.640625 18.019531 17.640625 18.214844 17.640625 18.40625 C 17.640625 18.464844 17.644531 18.523438 17.644531 18.582031 C 17.640625 18.941406 17.578125 19.191406 17.335938 19.46875 C 17.066406 19.703125 16.847656 19.804688 16.484375 19.804688 C 16.441406 19.804688 16.402344 19.804688 16.359375 19.804688 C 16.242188 19.796875 16.242188 19.796875 16.078125 19.742188 C 16.078125 19.796875 16.078125 19.855469 16.078125 19.914062 C 16.085938 20.445312 16.085938 20.976562 16.089844 21.511719 C 16.089844 21.785156 16.09375 22.058594 16.09375 22.332031 C 16.097656 22.597656 16.097656 22.859375 16.097656 23.125 C 16.097656 23.226562 16.101562 23.328125 16.101562 23.425781 C 16.113281 24.574219 16.113281 24.574219 15.738281 25.027344 C 15.699219 25.0625 15.660156 25.09375 15.617188 25.128906 C 15.574219 25.164062 15.535156 25.199219 15.492188 25.234375 C 15.121094 25.492188 14.710938 25.46875 14.273438 25.429688 C 14.019531 25.351562 13.824219 25.207031 13.617188 25.046875 C 13.582031 25.070312 13.550781 25.09375 13.515625 25.117188 C 13.472656 25.148438 13.425781 25.175781 13.382812 25.207031 C 13.316406 25.253906 13.316406 25.253906 13.25 25.296875 C 12.929688 25.496094 12.558594 25.464844 12.195312 25.429688 C 11.816406 25.316406 11.53125 25.105469 11.320312 24.773438 C 11.179688 24.453125 11.132812 24.15625 11.136719 23.808594 C 11.136719 23.742188 11.136719 23.742188 11.136719 23.675781 C 11.136719 23.53125 11.140625 23.386719 11.140625 23.242188 C 11.140625 23.140625 11.140625 23.039062 11.140625 22.9375 C 11.140625 22.671875 11.144531 22.40625 11.144531 22.144531 C 11.148438 21.871094 11.148438 21.601562 11.148438 21.332031 C 11.148438 20.800781 11.152344 20.273438 11.15625 19.742188 C 11.101562 19.761719 11.046875 19.777344 10.992188 19.796875 C 10.628906 19.839844 10.3125 19.785156 10.007812 19.578125 C 9.761719 19.320312 9.617188 19.085938 9.617188 18.726562 C 9.617188 18.675781 9.617188 18.625 9.617188 18.570312 C 9.617188 18.515625 9.617188 18.457031 9.617188 18.398438 C 9.613281 18.339844 9.613281 18.28125 9.613281 18.21875 C 9.613281 18.023438 9.613281 17.828125 9.613281 17.628906 C 9.613281 17.5625 9.613281 17.496094 9.609375 17.425781 C 9.609375 17.105469 9.609375 16.785156 9.609375 16.46875 C 9.609375 16.136719 9.609375 15.804688 9.605469 15.472656 C 9.601562 15.117188 9.601562 14.761719 9.601562 14.40625 C 9.601562 14.269531 9.601562 14.136719 9.601562 14 C 9.597656 13.808594 9.597656 13.621094 9.597656 13.429688 C 9.597656 13.375 9.597656 13.320312 9.597656 13.261719 C 9.601562 12.742188 9.746094 12.285156 10.0625 11.867188 C 10.09375 11.824219 10.128906 11.777344 10.160156 11.734375 C 10.285156 11.589844 10.398438 11.496094 10.554688 11.394531 C 10.601562 11.363281 10.648438 11.332031 10.695312 11.300781 C 11.273438 11.023438 11.875 11.023438 12.5 11.023438 Z M 10.664062 12.25 C 10.355469 12.640625 10.320312 13 10.320312 13.480469 C 10.320312 13.539062 10.316406 13.597656 10.316406 13.65625 C 10.316406 13.84375 10.316406 14.03125 10.316406 14.21875 C 10.316406 14.351562 10.316406 14.484375 10.3125 14.613281 C 10.3125 14.890625 10.3125 15.164062 10.3125 15.4375 C 10.3125 15.792969 10.308594 16.144531 10.308594 16.496094 C 10.304688 16.769531 10.304688 17.039062 10.304688 17.308594 C 10.304688 17.441406 10.304688 17.570312 10.304688 17.699219 C 10.300781 17.882812 10.300781 18.0625 10.304688 18.246094 C 10.300781 18.296875 10.300781 18.351562 10.300781 18.40625 C 10.304688 18.660156 10.308594 18.777344 10.460938 18.984375 C 10.605469 19.105469 10.605469 19.105469 10.808594 19.089844 C 11.015625 19.023438 11.054688 19 11.15625 18.8125 C 11.171875 18.65625 11.179688 18.511719 11.175781 18.355469 C 11.175781 18.308594 11.179688 18.261719 11.179688 18.214844 C 11.179688 18.113281 11.179688 18.011719 11.179688 17.914062 C 11.179688 17.753906 11.179688 17.597656 11.179688 17.4375 C 11.183594 17.046875 11.183594 16.652344 11.183594 16.257812 C 11.183594 15.925781 11.1875 15.59375 11.1875 15.261719 C 11.1875 15.105469 11.1875 14.949219 11.1875 14.792969 C 11.1875 14.699219 11.1875 14.601562 11.191406 14.507812 C 11.191406 14.464844 11.1875 14.417969 11.1875 14.375 C 11.191406 14.085938 11.191406 14.085938 11.28125 13.945312 C 11.441406 13.851562 11.585938 13.902344 11.757812 13.945312 C 11.832031 14.097656 11.820312 14.21875 11.824219 14.386719 C 11.824219 14.460938 11.824219 14.53125 11.828125 14.605469 C 11.828125 14.679688 11.828125 14.753906 11.828125 14.832031 C 11.832031 14.898438 11.832031 14.96875 11.832031 15.039062 C 11.835938 15.296875 11.839844 15.554688 11.84375 15.8125 C 11.851562 16.386719 11.859375 16.960938 11.867188 17.554688 C 13.023438 17.554688 14.175781 17.554688 15.367188 17.554688 C 15.378906 16.410156 15.378906 16.410156 15.386719 15.265625 C 15.390625 15.121094 15.390625 14.980469 15.394531 14.835938 C 15.394531 14.800781 15.394531 14.761719 15.394531 14.722656 C 15.394531 14.613281 15.398438 14.503906 15.398438 14.394531 C 15.398438 14.332031 15.398438 14.269531 15.398438 14.207031 C 15.421875 14.054688 15.421875 14.054688 15.492188 13.949219 C 15.585938 13.890625 15.585938 13.890625 15.785156 13.902344 C 15.84375 13.914062 15.90625 13.929688 15.96875 13.945312 C 16.054688 14.117188 16.03125 14.304688 16.03125 14.496094 C 16.035156 14.539062 16.035156 14.585938 16.035156 14.632812 C 16.035156 14.734375 16.035156 14.832031 16.035156 14.929688 C 16.035156 15.085938 16.039062 15.242188 16.039062 15.402344 C 16.042969 15.847656 16.046875 16.292969 16.050781 16.738281 C 16.050781 17.011719 16.054688 17.28125 16.054688 17.554688 C 16.058594 17.660156 16.058594 17.761719 16.058594 17.867188 C 16.058594 18.011719 16.058594 18.15625 16.0625 18.304688 C 16.0625 18.347656 16.0625 18.390625 16.0625 18.433594 C 16.0625 18.722656 16.0625 18.722656 16.1875 18.976562 C 16.34375 19.105469 16.34375 19.105469 16.542969 19.074219 C 16.734375 19.03125 16.785156 19.019531 16.898438 18.867188 C 16.921875 18.753906 16.921875 18.753906 16.921875 18.621094 C 16.921875 18.574219 16.921875 18.523438 16.921875 18.472656 C 16.921875 18.417969 16.921875 18.363281 16.921875 18.304688 C 16.921875 18.246094 16.921875 18.1875 16.921875 18.128906 C 16.925781 17.9375 16.925781 17.746094 16.925781 17.554688 C 16.925781 17.421875 16.925781 17.289062 16.925781 17.15625 C 16.925781 16.875 16.925781 16.59375 16.925781 16.316406 C 16.925781 15.957031 16.925781 15.597656 16.929688 15.242188 C 16.929688 14.964844 16.929688 14.691406 16.929688 14.414062 C 16.929688 14.28125 16.929688 14.148438 16.933594 14.019531 C 16.933594 13.832031 16.933594 13.648438 16.933594 13.464844 C 16.933594 13.410156 16.933594 13.355469 16.933594 13.300781 C 16.929688 12.878906 16.820312 12.515625 16.527344 12.199219 C 16.140625 11.847656 15.757812 11.75 15.246094 11.75 C 15.207031 11.75 15.167969 11.75 15.128906 11.75 C 15 11.746094 14.875 11.746094 14.746094 11.746094 C 14.703125 11.746094 14.660156 11.746094 14.613281 11.746094 C 14.382812 11.746094 14.148438 11.746094 13.917969 11.746094 C 13.679688 11.746094 13.441406 11.742188 13.203125 11.742188 C 13.019531 11.742188 12.835938 11.738281 12.648438 11.738281 C 12.5625 11.738281 12.476562 11.738281 12.386719 11.738281 C 11.722656 11.734375 11.175781 11.773438 10.664062 12.25 Z M 11.867188 18.265625 C 11.863281 19.308594 11.863281 19.308594 11.859375 20.347656 C 11.859375 20.773438 11.855469 21.199219 11.855469 21.625 C 11.851562 21.964844 11.851562 22.308594 11.851562 22.652344 C 11.851562 22.78125 11.851562 22.914062 11.851562 23.042969 C 11.847656 23.226562 11.847656 23.410156 11.847656 23.59375 C 11.847656 23.648438 11.847656 23.699219 11.847656 23.757812 C 11.847656 24.117188 11.902344 24.355469 12.148438 24.628906 C 12.367188 24.753906 12.550781 24.761719 12.796875 24.71875 C 13.050781 24.601562 13.152344 24.484375 13.257812 24.222656 C 13.3125 24.046875 13.3125 23.871094 13.3125 23.6875 C 13.3125 23.644531 13.3125 23.605469 13.3125 23.5625 C 13.316406 23.429688 13.316406 23.292969 13.316406 23.160156 C 13.316406 23.066406 13.320312 22.972656 13.320312 22.878906 C 13.324219 22.632812 13.324219 22.386719 13.324219 22.140625 C 13.328125 21.886719 13.328125 21.636719 13.332031 21.382812 C 13.335938 20.890625 13.339844 20.398438 13.34375 19.90625 C 13.65625 19.792969 13.65625 19.792969 13.796875 19.835938 C 13.890625 19.90625 13.890625 19.90625 13.945312 20.070312 C 13.949219 20.203125 13.953125 20.335938 13.953125 20.472656 C 13.953125 20.511719 13.953125 20.550781 13.953125 20.59375 C 13.957031 20.683594 13.957031 20.769531 13.957031 20.859375 C 13.957031 21 13.957031 21.136719 13.960938 21.277344 C 13.960938 21.675781 13.964844 22.074219 13.96875 22.46875 C 13.96875 22.714844 13.96875 22.957031 13.972656 23.199219 C 13.972656 23.292969 13.972656 23.386719 13.972656 23.476562 C 13.972656 23.605469 13.976562 23.738281 13.976562 23.867188 C 13.976562 23.90625 13.976562 23.941406 13.976562 23.980469 C 13.980469 24.21875 14.023438 24.367188 14.164062 24.554688 C 14.363281 24.726562 14.550781 24.75 14.808594 24.742188 C 15.019531 24.703125 15.113281 24.601562 15.257812 24.445312 C 15.355469 24.28125 15.378906 24.164062 15.378906 23.972656 C 15.378906 23.921875 15.378906 23.871094 15.378906 23.820312 C 15.378906 23.765625 15.378906 23.710938 15.378906 23.65625 C 15.378906 23.597656 15.378906 23.539062 15.378906 23.476562 C 15.378906 23.285156 15.378906 23.09375 15.378906 22.902344 C 15.378906 22.769531 15.378906 22.632812 15.378906 22.5 C 15.378906 22.148438 15.375 21.800781 15.375 21.449219 C 15.375 21.027344 15.371094 20.605469 15.371094 20.183594 C 15.371094 19.546875 15.367188 18.90625 15.367188 18.265625 C 14.210938 18.265625 13.058594 18.265625 11.867188 18.265625 Z M 11.867188 18.265625 "/><path style=" stroke:none;fill-rule:nonzero;fill:rgb(0%,0%,0%);fill-opacity:1;" d="M 2.859375 15.140625 C 2.898438 15.140625 2.9375 15.140625 2.976562 15.140625 C 3.109375 15.136719 3.238281 15.136719 3.367188 15.136719 C 3.433594 15.136719 3.433594 15.136719 3.5 15.136719 C 3.734375 15.136719 3.96875 15.136719 4.203125 15.136719 C 4.445312 15.136719 4.6875 15.132812 4.925781 15.132812 C 5.113281 15.132812 5.300781 15.128906 5.488281 15.128906 C 5.574219 15.128906 5.664062 15.128906 5.753906 15.128906 C 6.515625 15.125 7.132812 15.199219 7.710938 15.742188 C 8.109375 16.167969 8.261719 16.628906 8.265625 17.207031 C 8.269531 17.242188 8.269531 17.277344 8.269531 17.316406 C 8.269531 17.429688 8.269531 17.546875 8.269531 17.664062 C 8.269531 17.703125 8.269531 17.746094 8.273438 17.785156 C 8.273438 18 8.273438 18.210938 8.273438 18.421875 C 8.273438 18.640625 8.277344 18.859375 8.277344 19.078125 C 8.28125 19.246094 8.28125 19.414062 8.28125 19.582031 C 8.28125 19.664062 8.28125 19.742188 8.28125 19.824219 C 8.289062 20.320312 8.292969 20.824219 7.945312 21.214844 C 7.632812 21.511719 7.324219 21.558594 6.90625 21.554688 C 6.78125 21.546875 6.78125 21.546875 6.617188 21.492188 C 6.617188 21.53125 6.617188 21.570312 6.617188 21.609375 C 6.617188 21.984375 6.613281 22.355469 6.609375 22.726562 C 6.609375 22.917969 6.605469 23.109375 6.605469 23.300781 C 6.605469 23.519531 6.605469 23.738281 6.601562 23.960938 C 6.601562 24.027344 6.601562 24.09375 6.601562 24.164062 C 6.59375 24.617188 6.53125 25.03125 6.195312 25.359375 C 5.910156 25.582031 5.609375 25.664062 5.25 25.640625 C 5.058594 25.617188 4.929688 25.578125 4.769531 25.472656 C 4.605469 25.355469 4.605469 25.355469 4.464844 25.40625 C 4.417969 25.433594 4.367188 25.457031 4.320312 25.484375 C 3.929688 25.652344 3.582031 25.703125 3.171875 25.554688 C 2.875 25.402344 2.632812 25.15625 2.511719 24.84375 C 2.460938 24.664062 2.449219 24.519531 2.449219 24.335938 C 2.449219 24.273438 2.449219 24.207031 2.449219 24.144531 C 2.449219 24.074219 2.449219 24.007812 2.449219 23.9375 C 2.449219 23.867188 2.449219 23.796875 2.449219 23.726562 C 2.453125 23.542969 2.453125 23.355469 2.453125 23.171875 C 2.453125 22.980469 2.453125 22.792969 2.457031 22.605469 C 2.457031 22.234375 2.457031 21.863281 2.460938 21.492188 C 2.378906 21.519531 2.378906 21.519531 2.296875 21.546875 C 1.902344 21.585938 1.589844 21.558594 1.257812 21.328125 C 0.996094 21.105469 0.835938 20.882812 0.800781 20.535156 C 0.796875 20.464844 0.796875 20.394531 0.796875 20.320312 C 0.796875 20.28125 0.796875 20.242188 0.796875 20.203125 C 0.796875 20.074219 0.796875 19.945312 0.796875 19.816406 C 0.796875 19.726562 0.796875 19.636719 0.796875 19.546875 C 0.796875 19.355469 0.796875 19.167969 0.796875 18.980469 C 0.796875 18.738281 0.796875 18.496094 0.792969 18.257812 C 0.792969 18.070312 0.792969 17.882812 0.792969 17.699219 C 0.792969 17.609375 0.792969 17.519531 0.792969 17.433594 C 0.789062 16.714844 0.875 16.191406 1.386719 15.65625 C 1.824219 15.277344 2.292969 15.144531 2.859375 15.140625 Z M 1.703125 16.421875 C 1.417969 16.851562 1.46875 17.347656 1.464844 17.847656 C 1.464844 17.917969 1.464844 17.988281 1.464844 18.058594 C 1.464844 18.207031 1.464844 18.355469 1.464844 18.503906 C 1.464844 18.691406 1.460938 18.882812 1.460938 19.070312 C 1.460938 19.25 1.457031 19.433594 1.457031 19.613281 C 1.457031 19.679688 1.457031 19.75 1.457031 19.816406 C 1.457031 20.160156 1.460938 20.429688 1.640625 20.726562 C 1.832031 20.855469 1.90625 20.863281 2.132812 20.835938 C 2.28125 20.738281 2.382812 20.667969 2.460938 20.507812 C 2.46875 20.414062 2.46875 20.320312 2.46875 20.226562 C 2.472656 20.140625 2.472656 20.140625 2.472656 20.050781 C 2.472656 19.984375 2.472656 19.921875 2.472656 19.855469 C 2.476562 19.722656 2.476562 19.589844 2.480469 19.457031 C 2.484375 19.246094 2.484375 19.035156 2.488281 18.824219 C 2.488281 18.621094 2.492188 18.417969 2.496094 18.210938 C 2.496094 18.148438 2.496094 18.085938 2.496094 18.019531 C 2.496094 17.960938 2.5 17.902344 2.5 17.84375 C 2.5 17.789062 2.5 17.738281 2.5 17.6875 C 2.515625 17.554688 2.515625 17.554688 2.625 17.390625 C 2.816406 17.375 2.816406 17.375 3.007812 17.390625 C 3.320312 17.703125 3.152344 18.261719 3.171875 18.703125 C 4.054688 18.703125 4.941406 18.703125 5.851562 18.703125 C 5.871094 18.324219 5.886719 17.945312 5.90625 17.554688 C 5.960938 17.472656 5.960938 17.472656 6.015625 17.390625 C 6.207031 17.375 6.207031 17.375 6.398438 17.390625 C 6.539062 17.53125 6.523438 17.585938 6.523438 17.777344 C 6.523438 17.867188 6.523438 17.867188 6.523438 17.957031 C 6.523438 18.019531 6.523438 18.082031 6.523438 18.148438 C 6.527344 18.28125 6.527344 18.414062 6.527344 18.546875 C 6.53125 18.757812 6.53125 18.964844 6.53125 19.175781 C 6.535156 19.378906 6.535156 19.582031 6.539062 19.785156 C 6.539062 19.878906 6.539062 19.878906 6.539062 19.976562 C 6.539062 20.0625 6.539062 20.0625 6.539062 20.152344 C 6.539062 20.203125 6.542969 20.253906 6.542969 20.308594 C 6.566406 20.484375 6.625 20.585938 6.726562 20.726562 C 6.917969 20.855469 6.992188 20.863281 7.21875 20.835938 C 7.402344 20.71875 7.476562 20.660156 7.546875 20.453125 C 7.550781 20.339844 7.554688 20.226562 7.554688 20.113281 C 7.554688 20.046875 7.558594 19.976562 7.558594 19.902344 C 7.558594 19.828125 7.558594 19.75 7.558594 19.675781 C 7.558594 19.597656 7.558594 19.519531 7.558594 19.441406 C 7.558594 19.273438 7.558594 19.109375 7.558594 18.945312 C 7.558594 18.734375 7.5625 18.527344 7.5625 18.316406 C 7.5625 18.152344 7.566406 17.992188 7.566406 17.828125 C 7.566406 17.753906 7.566406 17.675781 7.566406 17.597656 C 7.570312 17.054688 7.5625 16.597656 7.164062 16.1875 C 6.828125 15.929688 6.535156 15.847656 6.113281 15.84375 C 6.074219 15.84375 6.035156 15.839844 5.996094 15.839844 C 5.871094 15.839844 5.746094 15.839844 5.621094 15.839844 C 5.535156 15.839844 5.445312 15.839844 5.359375 15.835938 C 5.175781 15.835938 4.992188 15.835938 4.808594 15.835938 C 4.574219 15.835938 4.339844 15.832031 4.105469 15.832031 C 3.925781 15.828125 3.742188 15.828125 3.5625 15.828125 C 3.476562 15.828125 3.390625 15.828125 3.304688 15.828125 C 2.65625 15.820312 2.128906 15.882812 1.703125 16.421875 Z M 3.171875 19.414062 C 3.101562 20.023438 3.101562 20.023438 3.308594 20.242188 C 3.398438 20.308594 3.398438 20.308594 3.496094 20.363281 C 3.527344 20.386719 3.5625 20.40625 3.59375 20.429688 C 3.660156 20.472656 3.726562 20.515625 3.792969 20.558594 C 3.871094 20.609375 3.949219 20.667969 4.027344 20.726562 C 4.261719 20.90625 4.261719 20.90625 4.546875 20.949219 C 4.835938 20.871094 5.03125 20.71875 5.265625 20.539062 C 5.3125 20.503906 5.355469 20.472656 5.402344 20.4375 C 5.636719 20.265625 5.636719 20.265625 5.851562 20.070312 C 5.851562 19.855469 5.851562 19.636719 5.851562 19.414062 C 4.96875 19.414062 4.082031 19.414062 3.171875 19.414062 Z M 3.171875 21 C 3.164062 21.457031 3.160156 21.914062 3.15625 22.375 C 3.15625 22.585938 3.15625 22.796875 3.152344 23.011719 C 3.148438 23.214844 3.148438 23.421875 3.144531 23.628906 C 3.144531 23.707031 3.144531 23.785156 3.144531 23.863281 C 3.117188 24.339844 3.117188 24.339844 3.300781 24.765625 C 3.46875 24.902344 3.554688 24.945312 3.773438 24.9375 C 4.003906 24.816406 4.003906 24.816406 4.15625 24.609375 C 4.164062 24.515625 4.167969 24.421875 4.171875 24.328125 C 4.175781 24.269531 4.175781 24.207031 4.179688 24.148438 C 4.183594 23.878906 4.191406 23.609375 4.195312 23.335938 C 4.195312 23.195312 4.199219 23.050781 4.203125 22.910156 C 4.210938 22.703125 4.214844 22.5 4.21875 22.292969 C 4.21875 22.230469 4.222656 22.167969 4.226562 22.101562 C 4.226562 21.917969 4.21875 21.777344 4.15625 21.601562 C 4.015625 21.472656 3.878906 21.386719 3.710938 21.300781 C 3.550781 21.214844 3.421875 21.113281 3.28125 21 C 3.246094 21 3.210938 21 3.171875 21 Z M 5.390625 21.269531 C 5.316406 21.320312 5.238281 21.371094 5.164062 21.421875 C 5.132812 21.445312 5.097656 21.46875 5.0625 21.492188 C 4.976562 21.546875 4.976562 21.546875 4.867188 21.601562 C 4.859375 22.015625 4.855469 22.429688 4.851562 22.84375 C 4.851562 22.984375 4.847656 23.128906 4.847656 23.269531 C 4.84375 23.472656 4.839844 23.671875 4.839844 23.875 C 4.839844 23.941406 4.835938 24.003906 4.835938 24.066406 C 4.832031 24.4375 4.832031 24.4375 4.996094 24.757812 C 5.164062 24.902344 5.246094 24.945312 5.46875 24.9375 C 5.699219 24.816406 5.699219 24.816406 5.851562 24.609375 C 5.855469 24.496094 5.859375 24.378906 5.859375 24.265625 C 5.859375 24.230469 5.859375 24.195312 5.859375 24.160156 C 5.859375 24.042969 5.855469 23.925781 5.855469 23.808594 C 5.855469 23.726562 5.855469 23.648438 5.855469 23.566406 C 5.855469 23.355469 5.855469 23.140625 5.855469 22.929688 C 5.855469 22.710938 5.855469 22.496094 5.855469 22.277344 C 5.855469 21.851562 5.851562 21.425781 5.851562 21 C 5.703125 21 5.515625 21.1875 5.390625 21.269531 Z M 5.390625 21.269531 "/><path style=" stroke:none;fill-rule:nonzero;fill:rgb(0%,0%,0%);fill-opacity:1;" d="M 24.5625 2.859375 C 24.984375 3.253906 25.222656 3.703125 25.285156 4.28125 C 25.304688 4.957031 25.121094 5.476562 24.660156 5.972656 C 24.191406 6.421875 23.660156 6.582031 23.019531 6.574219 C 22.480469 6.535156 21.949219 6.289062 21.585938 5.890625 C 21.210938 5.40625 21.03125 4.871094 21.0625 4.257812 C 21.148438 3.617188 21.425781 3.140625 21.929688 2.734375 C 22.761719 2.199219 23.785156 2.226562 24.5625 2.859375 Z M 22.09375 3.554688 C 21.851562 3.917969 21.722656 4.285156 21.796875 4.722656 C 21.898438 5.128906 22.136719 5.46875 22.488281 5.691406 C 22.824219 5.867188 23.179688 5.910156 23.542969 5.816406 C 23.929688 5.679688 24.207031 5.484375 24.40625 5.121094 C 24.589844 4.710938 24.617188 4.363281 24.476562 3.933594 C 24.316406 3.578125 24.058594 3.320312 23.699219 3.164062 C 23.105469 2.972656 22.535156 3.097656 22.09375 3.554688 Z M 22.09375 3.554688 "/><path style=" stroke:none;fill-rule:nonzero;fill:rgb(0%,0%,0%);fill-opacity:1;" d="M 6.015625 10.992188 C 6.449219 11.367188 6.664062 11.878906 6.726562 12.441406 C 6.75 13.074219 6.554688 13.632812 6.140625 14.109375 C 5.707031 14.527344 5.105469 14.730469 4.511719 14.722656 C 3.933594 14.675781 3.410156 14.433594 3.015625 14.007812 C 2.609375 13.507812 2.449219 12.945312 2.515625 12.304688 C 2.640625 11.675781 2.910156 11.210938 3.4375 10.84375 C 4.28125 10.332031 5.222656 10.398438 6.015625 10.992188 Z M 3.550781 11.6875 C 3.300781 11.984375 3.183594 12.339844 3.207031 12.730469 C 3.277344 13.15625 3.519531 13.546875 3.871094 13.796875 C 4.1875 13.972656 4.527344 14.039062 4.886719 13.976562 C 5.292969 13.859375 5.625 13.636719 5.847656 13.273438 C 6.023438 12.917969 6.054688 12.574219 5.960938 12.1875 C 5.828125 11.8125 5.59375 11.535156 5.238281 11.351562 C 4.617188 11.066406 4.035156 11.226562 3.550781 11.6875 Z M 3.550781 11.6875 "/><path style=" stroke:none;fill-rule:nonzero;fill:rgb(0%,0%,0%);fill-opacity:1;" d="M 15.164062 6.960938 C 15.566406 7.335938 15.769531 7.789062 15.820312 8.332031 C 15.84375 8.96875 15.691406 9.480469 15.257812 9.953125 C 14.820312 10.402344 14.347656 10.613281 13.71875 10.625 C 13.164062 10.621094 12.675781 10.421875 12.25 10.0625 C 11.773438 9.570312 11.617188 9.074219 11.621094 8.402344 C 11.636719 8.0625 11.699219 7.789062 11.867188 7.492188 C 11.898438 7.433594 11.933594 7.378906 11.964844 7.316406 C 12.375 6.792969 12.828125 6.496094 13.5 6.40625 C 14.132812 6.375 14.675781 6.5625 15.164062 6.960938 Z M 12.75 7.539062 C 12.417969 7.90625 12.328125 8.179688 12.339844 8.675781 C 12.378906 9.046875 12.542969 9.339844 12.8125 9.59375 C 13.132812 9.835938 13.457031 9.933594 13.859375 9.921875 C 14.238281 9.859375 14.578125 9.648438 14.820312 9.351562 C 15.078125 8.957031 15.164062 8.605469 15.070312 8.140625 C 14.945312 7.757812 14.683594 7.441406 14.332031 7.25 C 13.765625 7.003906 13.191406 7.097656 12.75 7.539062 Z M 12.75 7.539062 "/></g></svg>