<?xml version="1.0" encoding="UTF-8"?><svg xmlns="http://www.w3.org/2000/svg" version="1.1" width="512" height="512"><path d="M0 0 C0.8795787 -0.00705963 1.75915741 -0.01411926 2.66539001 -0.02139282 C39.40430185 -0.24923919 39.40430185 -0.24923919 56.5234375 3.203125 C57.54034668 3.40180176 58.55725586 3.60047852 59.60498047 3.80517578 C87.20875655 9.32758565 114.0384912 18.76402972 138.3359375 33.140625 C138.9340625 33.49374756 139.5321875 33.84687012 140.1484375 34.21069336 C143.29307391 36.16068539 145.62554876 38.00327164 147.5234375 41.203125 C148.0234375 44.140625 148.0234375 44.140625 147.5234375 47.203125 C145.19267554 50.35650883 143.79523736 52.00760672 139.85546875 52.61328125 C135.30412099 52.05303328 132.22286228 50.10186734 128.3359375 47.765625 C126.71855078 46.83694477 125.09867984 45.91257986 123.4765625 44.9921875 C122.65091797 44.52329102 121.82527344 44.05439453 120.97460938 43.57128906 C88.11613187 25.23076039 50.65813733 16.74351019 13.2109375 16.828125 C11.90558044 16.82844223 11.90558044 16.82844223 10.57385254 16.82876587 C-4.74653052 16.8657065 -19.44038236 18.08328549 -34.4765625 21.203125 C-35.79479004 21.46802734 -35.79479004 21.46802734 -37.13964844 21.73828125 C-70.26383627 28.59418828 -101.87897866 43.33291647 -128.4765625 64.203125 C-129.80107422 65.24146484 -129.80107422 65.24146484 -131.15234375 66.30078125 C-138.21367399 71.96382827 -144.89286438 77.99854433 -151.4765625 84.203125 C-152.20875 84.89277344 -152.9409375 85.58242187 -153.6953125 86.29296875 C-159.10699553 91.54358978 -163.7985859 97.29903434 -168.4765625 103.203125 C-169.25902344 104.15703125 -170.04148437 105.1109375 -170.84765625 106.09375 C-182.0926438 120.12749447 -190.88516616 135.9402556 -198.4765625 152.203125 C-199.23839844 153.79833984 -199.23839844 153.79833984 -200.015625 155.42578125 C-208.01940254 173.03837194 -213.58958936 192.08337979 -216.4765625 211.203125 C-216.65171387 212.3362915 -216.82686523 213.46945801 -217.00732422 214.63696289 C-218.55242586 225.60773584 -218.87523388 236.44581142 -218.8515625 247.515625 C-218.85135101 248.43288361 -218.85113953 249.35014221 -218.85092163 250.29519653 C-218.81517711 265.89657786 -217.75633002 280.90383148 -214.4765625 296.203125 C-214.29464355 297.05729004 -214.11272461 297.91145508 -213.92529297 298.79150391 C-206.68095952 331.43955896 -192.50027095 363.10605363 -171.4765625 389.203125 C-170.76113281 390.10933594 -170.04570312 391.01554687 -169.30859375 391.94921875 C-163.66794047 398.98755603 -157.65922291 405.64268653 -151.4765625 412.203125 C-150.44208984 413.30140625 -150.44208984 413.30140625 -149.38671875 414.421875 C-144.13796959 419.83162873 -138.39615175 424.54744805 -132.4765625 429.203125 C-131.58453125 429.91210938 -130.6925 430.62109375 -129.7734375 431.3515625 C-89.04048093 462.8684032 -39.29652212 479.74313644 12.1484375 479.515625 C13.02839386 479.51346985 13.90835022 479.5113147 14.81497192 479.50909424 C28.2528788 479.45636848 41.33156933 478.97127089 54.5234375 476.203125 C55.51263184 475.99913086 56.50182617 475.79513672 57.52099609 475.58496094 C101.68802734 466.23866478 139.75244358 445.85473974 172.8359375 415.453125 C173.33319336 414.99711914 173.83044922 414.54111328 174.34277344 414.07128906 C176.53304889 412.05705718 178.7035068 410.02852155 180.83984375 407.95703125 C185.69484719 403.37840372 185.69484719 403.37840372 189.7734375 402.515625 C193.23011497 403.37979437 194.46124709 404.30078294 196.5234375 407.203125 C197.5234375 410.078125 197.5234375 410.078125 197.5234375 413.203125 C194.76946121 417.96119969 191.34817717 421.69458295 187.4609375 425.515625 C186.88657959 426.08394043 186.31222168 426.65225586 185.72045898 427.23779297 C180.5912569 432.25008411 175.16836822 436.78164978 169.5234375 441.203125 C168.47885685 442.05923493 167.43595536 442.91739679 166.39453125 443.77734375 C144.9269757 461.33279467 120.52852847 473.86463847 94.5234375 483.203125 C93.70907227 483.49703125 92.89470703 483.7909375 92.05566406 484.09375 C82.4939586 487.48210196 72.83644742 489.92974558 62.8984375 491.953125 C61.43398193 492.25138184 61.43398193 492.25138184 59.93994141 492.55566406 C44.23797485 495.5803614 28.85785712 496.58129718 12.8984375 496.515625 C11.97590179 496.51380219 11.05336609 496.51197937 10.10287476 496.51010132 C-3.96031777 496.4633939 -17.63694444 495.8804007 -31.4765625 493.203125 C-32.39244141 493.03683594 -33.30832031 492.87054688 -34.25195312 492.69921875 C-91.46590679 482.16904323 -147.09761105 449.87955675 -182.4765625 403.203125 C-182.98364746 402.55069824 -183.49073242 401.89827148 -184.01318359 401.22607422 C-207.66814635 370.73851628 -223.51527725 335.93243396 -231.4765625 298.203125 C-231.68829102 297.23004395 -231.90001953 296.25696289 -232.11816406 295.25439453 C-238.58102471 264.2767051 -238.196728 229.08826917 -231.4765625 198.203125 C-231.15510254 196.67969482 -231.15510254 196.67969482 -230.82714844 195.12548828 C-222.72580218 157.61991074 -206.22058761 121.65399 -181.4765625 92.203125 C-180.54652711 91.06929569 -179.6168451 89.93517643 -178.6875 88.80078125 C-159.86918934 66.09719352 -137.2010254 46.71436048 -111.4765625 32.203125 C-110.75758789 31.79384766 -110.03861328 31.38457031 -109.29785156 30.96289062 C-76.3869848 12.4310832 -38.02690508 0.20381009 0 0 Z " fill="#000000" transform="translate(235.4765625,7.796875)"/><path d="M0 0 C0.74056641 0.20431641 1.48113281 0.40863281 2.24414062 0.61914062 C41.12893497 11.60453095 76.8566264 36.62525305 102 68 C102.67160156 68.804375 103.34320313 69.60875 104.03515625 70.4375 C126.21075704 97.24220234 147.73730538 140.12459984 146.34765625 176.07421875 C146 178 146 178 144.375 180.5625 C141.57699085 182.25603185 139.21138417 182.53808858 136 183 C140.93522275 188.57497385 145.91982438 194.03357502 151.2734375 199.2109375 C153.03377521 201.03499784 154.52274832 202.94272312 156 205 C159.30870306 203.57033611 161.34844539 201.83057934 163.78515625 199.19140625 C164.82833008 198.07088867 164.82833008 198.07088867 165.89257812 196.92773438 C166.60865234 196.14720703 167.32472656 195.36667969 168.0625 194.5625 C169.49060996 193.02188003 170.91898508 191.48150581 172.34765625 189.94140625 C172.97679932 189.25763916 173.60594238 188.57387207 174.25415039 187.86938477 C175.80387234 186.21000552 177.38324485 184.59378724 179 183 C178.21625 182.525625 177.4325 182.05125 176.625 181.5625 C173.94587616 178.94716482 173.61916841 178.43629787 172.9453125 175.0078125 C172.78530762 174.20512939 172.62530273 173.40244629 172.46044922 172.57543945 C171.84010972 169.10568263 171.26297857 165.63068392 170.70800781 162.14990234 C164.43486275 123.28716678 149.46643414 86.96194763 125 56 C123.92298828 54.63294922 123.92298828 54.63294922 122.82421875 53.23828125 C112.77205912 40.72218196 101.83027251 28.73351079 89.1796875 18.78125 C87 17 87 17 86 15 C85.5322442 7.63284609 85.5322442 7.63284609 87.26171875 5.29296875 C89.99174303 3.26232147 92.13016722 3.22124298 95.46875 3.32421875 C100.76830573 4.73906928 104.24959345 9.20690589 108 13 C109.32197313 14.15892142 110.6545522 15.30591614 112 16.4375 C120.54552535 23.91698396 127.95141229 32.11544136 135 41 C135.65613281 41.78890625 136.31226563 42.5778125 136.98828125 43.390625 C164.0000254 76.08620309 186.9998295 122.901744 188 166 C188.80824219 165.96519531 189.61648438 165.93039063 190.44921875 165.89453125 C192.05216797 165.85392578 192.05216797 165.85392578 193.6875 165.8125 C194.74324219 165.77769531 195.79898437 165.74289063 196.88671875 165.70703125 C200.66283227 166.06237443 203.30050942 167.30050942 206 170 C206.74650909 173.15505727 206.75344112 175.8452691 206 179 C203.38936322 182.43261112 200.20078833 185.1280246 197 188 C195.80936453 189.31197411 194.64079614 190.64446577 193.5 192 C190.24955349 195.79218759 186.74550431 199.27135531 183.19140625 202.77734375 C180.58233119 205.42362487 178.17352346 208.20522905 175.75390625 211.0234375 C173.2344592 213.86272527 170.55819526 216.52393679 167.8359375 219.16796875 C165.81602216 221.12765052 165.81602216 221.12765052 163.5 224 C160.63883478 226.28893218 158.76393054 226.57155273 155.13525391 226.47265625 C151.02294654 225.56236274 148.66788787 222.5312486 145.9375 219.5 C145.32753174 218.85651611 144.71756348 218.21303223 144.08911133 217.55004883 C140.50466889 213.74292848 137.015171 209.84663779 133.63671875 205.85546875 C130.97069681 202.83312884 128.06329552 200.05565761 125.1953125 197.2265625 C122.56759313 194.56143787 120.13589084 191.76389117 117.703125 188.921875 C115.38296025 186.30370744 112.90031605 183.87250202 110.3828125 181.4453125 C108.14148413 179.10268115 107.99619561 177.9486407 107.75 174.625 C108.00984488 170.85724926 108.32813639 169.5729057 111 167 C114.61867559 165.7937748 117.92506251 165.89183082 121.6875 165.9375 C122.38939453 165.94201172 123.09128906 165.94652344 123.81445312 165.95117188 C125.54300538 165.96293073 127.27151365 165.98086546 129 166 C121.06100595 130.48344768 106.93473322 98.18839619 82.0546875 71.2421875 C80.28310243 69.30893687 78.60217659 67.33710666 76.9375 65.3125 C73.63098937 61.4504239 69.92422311 58.22212568 66 55 C65.50467773 54.59233398 65.00935547 54.18466797 64.49902344 53.76464844 C56.05958789 46.860574 47.40274946 40.53033249 38 35 C37.31905273 34.5992627 36.63810547 34.19852539 35.93652344 33.78564453 C-8.51947791 8.08545955 -60.77159692 2.91125807 -110 16 C-137.93784841 24.00743233 -163.4068742 38.23150685 -184.7578125 57.9453125 C-186.69106313 59.71689757 -188.66289334 61.39782341 -190.6875 63.0625 C-194.5495761 66.36901063 -197.77787432 70.07577689 -201 74 C-201.40766602 74.49532227 -201.81533203 74.99064453 -202.23535156 75.50097656 C-234.38308374 114.79787523 -251.3348547 164.13017705 -246.4609375 215.11328125 C-245.17709397 226.94624083 -243.25662185 238.54796081 -240 250 C-239.81131348 250.68094727 -239.62262695 251.36189453 -239.42822266 252.06347656 C-235.1162067 267.25618142 -228.10960249 281.4842186 -220.72558594 295.40209961 C-217.95006718 300.66919505 -217.95006718 300.66919505 -218.5 304.3125 C-220.13321631 307.23867922 -220.95114934 308.59917673 -224 310 C-227.47892328 310.19327352 -229.81194628 310.05227615 -232.50390625 307.66796875 C-234.20704441 305.53788587 -235.59969706 303.34188595 -237 301 C-237.60585937 299.99066406 -238.21171875 298.98132813 -238.8359375 297.94140625 C-265.11033778 252.2259228 -270.53121243 195.54543514 -257.37890625 144.96484375 C-242.61862951 90.76645804 -207.3695051 46.29849668 -159 18 C-153.7909249 15.05849052 -148.45911154 12.44283242 -143 10 C-142.25202148 9.66516602 -141.50404297 9.33033203 -140.73339844 8.98535156 C-121.62600387 0.58693009 -101.68306694 -4.42103835 -81 -7 C-79.98679688 -7.13148437 -78.97359375 -7.26296875 -77.9296875 -7.3984375 C-51.85234511 -10.14733114 -25.14875823 -7.10591449 0 0 Z " fill="#000000" transform="translate(306,58)"/><path d="M0 0 C1.04796249 -0.01591187 2.09592499 -0.03182373 3.17564392 -0.04821777 C4.87256126 -0.0485199 4.87256126 -0.0485199 6.60375977 -0.04882812 C7.76641861 -0.05644165 8.92907745 -0.06405518 10.12696838 -0.07189941 C12.58739065 -0.08271178 15.04785886 -0.08554894 17.50830078 -0.08105469 C21.27722575 -0.08008275 25.04411348 -0.12168749 28.81274414 -0.16601562 C31.20141176 -0.17122264 33.59008647 -0.17391082 35.97875977 -0.17382812 C37.10801376 -0.19022339 38.23726776 -0.20661865 39.40074158 -0.22351074 C47.16506177 -0.15477394 47.16506177 -0.15477394 50.60253906 2.69750977 C53.86332201 9.77025645 49.94660503 18.06983737 47.48266602 24.98242188 C47.13107422 25.9747583 46.77948242 26.96709473 46.41723633 27.98950195 C26.94085037 81.60006391 26.94085037 81.60006391 10.8371582 91.68530273 C7.88768079 92.77989789 5.84623952 92.24654859 2.85766602 91.41992188 C0.98266602 90.35742188 0.98266602 90.35742188 -0.14233398 88.41992188 C-0.94307546 81.21324864 1.03833554 77.66700865 5.10766602 71.85742188 C16.49667536 54.67848827 24.90964012 36.79422485 31.85766602 17.41992188 C22.94766602 17.41992188 14.03766602 17.41992188 4.85766602 17.41992188 C3.90891602 19.66804688 2.96016602 21.91617187 1.98266602 24.23242188 C-20.85346695 76.84551151 -61.74967754 116.04295117 -114.91723633 137.54199219 C-165.73319527 156.97466077 -223.19524141 154.25584942 -272.89233398 132.85742188 C-288.75225062 125.76201146 -303.83315459 116.58858474 -317.14233398 105.41992188 C-317.71387207 104.94699707 -318.28541016 104.47407227 -318.87426758 103.98681641 C-326.69659038 97.50582477 -334.14843216 90.79795846 -341.14233398 83.41992188 C-341.69920898 82.85660156 -342.25608398 82.29328125 -342.82983398 81.71289062 C-346.12375192 78.16631421 -347.05318617 75.23390374 -347.14233398 70.41992188 C-346.35504314 67.77176177 -345.61953289 66.79107658 -343.45483398 65.10742188 C-339.87665225 64.04363812 -337.73981603 64.38335925 -334.14233398 65.41992188 C-330.81314905 67.9740194 -328.21155127 71.16784557 -325.49780273 74.34570312 C-295.57656553 109.3122075 -248.13727657 129.25326278 -202.95874023 133.10742188 C-153.85239252 136.63290309 -103.90203006 121.43047343 -66.45483398 89.09960938 C-64.77719704 87.59075907 -63.10879647 86.07156004 -61.45092773 84.54101562 C-59.32737962 82.58993842 -57.15557718 80.72023905 -54.95483398 78.85742188 C-34.71954101 61.12629689 -19.30308568 34.18388044 -10.38598633 9.11816406 C-8.13868711 2.89290328 -6.87202302 0.06269622 0 0 Z " fill="#000000" transform="translate(436.142333984375,311.580078125)"/><path d="M0 0 C2.27015053 1.65757023 4.35395575 3.3812995 6.33984375 5.3671875 C6.60391157 8.86608616 6.72413629 11.50818065 5.27734375 14.7421875 C2.39997111 17.15546778 0.05358286 17.15344712 -3.66015625 17.3671875 C-7.08203125 16.1875 -7.08203125 16.1875 -10.41015625 14.4921875 C-11.51875 13.93789062 -12.62734375 13.38359375 -13.76953125 12.8125 C-15.20039063 12.09707031 -15.20039063 12.09707031 -16.66015625 11.3671875 C-25.37995647 8.46058743 -36.96364976 9.50534379 -45.30078125 13.10546875 C-56.19740433 18.93263639 -62.46905465 27.22987842 -66.91015625 38.5546875 C-69.40969207 51.26066127 -67.23493386 62.2776461 -60.31640625 73.11328125 C-54.34104385 81.24484753 -44.48648812 86.50357284 -34.66015625 88.3671875 C-24.51037821 89.31781513 -15.53332864 87.72001484 -7.34765625 81.3671875 C-0.59058411 74.91536297 2.29143047 66.24045437 4.33984375 57.3671875 C3.69958252 57.38289795 3.05932129 57.3986084 2.3996582 57.41479492 C-0.51602256 57.47735865 -3.4315618 57.51624558 -6.34765625 57.5546875 C-7.35505859 57.57982422 -8.36246094 57.60496094 -9.40039062 57.63085938 C-18.79950756 57.72391994 -18.79950756 57.72391994 -22.66015625 54.3671875 C-24.20602501 51.27544998 -23.95375146 48.77289198 -23.66015625 45.3671875 C-22.14624023 43.17602539 -22.14624023 43.17602539 -19.66015625 41.3671875 C-16.8313054 40.9570595 -14.39812133 40.78210853 -11.5703125 40.80078125 C-10.78877304 40.79458267 -10.00723358 40.78838409 -9.20201111 40.78199768 C-7.55208581 40.77490647 -5.90208885 40.77806145 -4.25219727 40.79077148 C-1.73384185 40.80462596 0.7807872 40.77057774 3.29882812 40.73242188 C4.90494882 40.73147048 6.51107415 40.73333059 8.1171875 40.73828125 C8.86628891 40.72502304 9.61539032 40.71176483 10.38719177 40.69810486 C14.32788094 40.76791685 16.16883921 41.23526332 19.32250977 43.66821289 C22.24413385 47.57702982 21.90699534 50.74075993 21.33984375 55.3671875 C21.12134766 57.17316406 21.12134766 57.17316406 20.8984375 59.015625 C18.85614802 73.21913739 13.26908245 85.67016689 2.33984375 95.3671875 C-10.15726873 104.50715641 -23.76038688 106.88246187 -39.00390625 104.94140625 C-53.99084629 101.9767567 -67.01312369 93.46795981 -76.03515625 81.1171875 C-84.15210944 67.9418432 -86.42322923 52.36504856 -84.19921875 37.23046875 C-80.36356677 21.77504755 -71.05236081 8.95924018 -57.66015625 0.3671875 C-40.141109 -9.05650601 -17.42910582 -10.69804145 0 0 Z " fill="#000000" transform="translate(280.66015625,208.6328125)"/><path d="M0 0 C0.7321875 -0.01289063 1.464375 -0.02578125 2.21875 -0.0390625 C5.63018958 0.95399354 7.1607846 2.99348874 9.5 5.625 C10.96685791 8.50770569 10.96685791 8.50770569 12.16503906 11.71899414 C12.62465027 12.92913681 13.08426147 14.13927948 13.55780029 15.38609314 C14.04395338 16.70653632 14.52988863 18.02705972 15.015625 19.34765625 C15.5359045 20.73145408 16.0575183 22.11475088 16.5803833 23.49757385 C17.67618285 26.40056743 18.76479532 29.30611318 19.84838867 32.21368408 C21.44761884 36.49700361 23.0791531 40.76741542 24.72070312 45.03466797 C27.12179809 51.27890847 29.50517094 57.52955456 31.87186432 63.78691673 C33.20893992 67.32102607 34.55133765 70.85292659 35.90527344 74.38061523 C37.25349539 77.89386508 38.58869738 81.41180735 39.9148941 84.93342781 C40.41268965 86.24874989 40.91496322 87.56238747 41.42208099 88.8741436 C46.34659461 101.62920994 46.34659461 101.62920994 45.5 108.625 C43.9375 111.125 43.9375 111.125 41.5 112.625 C37.81536928 113.15137582 35.57910791 113.41946133 32.515625 111.1640625 C29.68170247 107.59419885 28.31452087 103.75039362 26.75 99.5 C26.43417969 98.67628906 26.11835938 97.85257812 25.79296875 97.00390625 C23.5 90.93895427 23.5 90.93895427 23.5 88.625 C7.99 88.625 -7.52 88.625 -23.5 88.625 C-24.49 91.595 -25.48 94.565 -26.5 97.625 C-27.28319115 99.76097586 -28.09209558 101.88787486 -28.9375 104 C-29.32808594 104.99773437 -29.71867187 105.99546875 -30.12109375 107.0234375 C-31.60740613 109.8276416 -32.77164501 111.04791619 -35.5 112.625 C-38.79029921 113.0362874 -40.7941394 112.94931433 -43.8125 111.5625 C-46.21992352 108.79842114 -46.60064091 106.18875008 -46.5 102.625 C-45.59953145 98.92008308 -44.21998297 95.43647195 -42.8203125 91.89453125 C-42.42077866 90.84617599 -42.02124481 89.79782074 -41.60960388 88.71769714 C-40.29691265 85.28477492 -38.96159766 81.86117751 -37.625 78.4375 C-36.710916 76.06623368 -35.79808585 73.69448367 -34.88647461 71.32226562 C-33.01957747 66.47038898 -31.14366066 61.62212783 -29.26220703 56.77587891 C-26.65121307 50.03712107 -24.09908174 43.27730076 -21.55859375 36.51171875 C-20.42261052 33.50461064 -19.28476324 30.4982183 -18.14569092 27.49227905 C-17.42736267 25.59081597 -16.713002 23.68784898 -16.00274658 21.78335571 C-15.01584563 19.14220881 -14.01209271 16.50808145 -13.00390625 13.875 C-12.72131454 13.10657272 -12.43872284 12.33814545 -12.14756775 11.5464325 C-9.93363595 5.84262816 -6.89903748 -0.12146193 0 0 Z M-0.5 27.625 C-2.60134578 33.06866781 -4.70090126 38.51302147 -6.79882812 43.95800781 C-7.51220791 45.80878169 -8.22606956 47.65936992 -8.94042969 49.50976562 C-9.96937928 52.17528964 -10.99657257 54.84148481 -12.0234375 57.5078125 C-12.34122162 58.32992218 -12.65900574 59.15203186 -12.98641968 59.99905396 C-13.43666 61.16958817 -13.43666 61.16958817 -13.89599609 62.36376953 C-14.15802826 63.04327667 -14.42006042 63.72278381 -14.69003296 64.42288208 C-15.68768019 67.13526015 -16.5860911 69.8832733 -17.5 72.625 C-5.95 72.625 5.6 72.625 17.5 72.625 C9.33355349 49.99678723 9.33355349 49.99678723 0.5 27.625 C0.17 27.625 -0.16 27.625 -0.5 27.625 Z " fill="#000000" transform="translate(146.5,201.375)"/><path d="M0 0 C1.35665771 -0.01879967 1.35665771 -0.01879967 2.74072266 -0.03797913 C3.7054248 -0.02472092 4.67012695 -0.01146271 5.6640625 0.00219727 C7.16718994 -0.00142067 7.16718994 -0.00142067 8.70068359 -0.00511169 C10.81547002 -0.00413392 12.93028225 0.0092429 15.04492188 0.03417969 C18.27823002 0.06848857 21.50880449 0.05483414 24.7421875 0.03540039 C26.79949078 0.04229905 28.85678701 0.05197162 30.9140625 0.06469727 C32.36111572 0.05725746 32.36111572 0.05725746 33.83740234 0.04966736 C38.17471884 0.12561193 40.63535112 0.22914755 44.39599609 2.54150391 C46.42983228 4.78648765 46.97236318 5.64610892 46.9140625 8.63110352 C46.92695313 9.29110352 46.93984375 9.95110352 46.953125 10.63110352 C45.89470643 13.81881122 44.08683749 14.84034338 41.2890625 16.63110352 C38.43456 16.97397563 35.985005 17.10099845 33.14453125 17.02172852 C32.37474442 17.01606873 31.60495758 17.01040894 30.81184387 17.00457764 C28.36610307 16.98228223 25.9218564 16.93210227 23.4765625 16.88110352 C21.81317228 16.86102951 20.14975897 16.84278031 18.48632812 16.82641602 C14.41954178 16.78584957 10.35596361 16.70755701 6.2890625 16.63110352 C6.2890625 27.19110352 6.2890625 37.75110352 6.2890625 48.63110352 C8.62484375 48.58469727 10.960625 48.53829102 13.3671875 48.49047852 C15.63425525 48.45926645 17.90129889 48.43498826 20.16845703 48.41137695 C21.74180854 48.39128472 23.31508558 48.36400552 24.88818359 48.3293457 C27.15220522 48.28071858 29.41523823 48.25811217 31.6796875 48.24047852 C32.38087708 48.21983337 33.08206665 48.19918823 33.80450439 48.17791748 C37.24356387 48.17634412 38.97872397 48.38953936 41.72924805 50.53051758 C43.40871509 52.79223841 43.85699948 53.84737119 43.8515625 56.63110352 C43.87347656 57.29110352 43.89539063 57.95110352 43.91796875 58.63110352 C42.91664376 61.81544139 41.04951861 62.84081104 38.2890625 64.63110352 C34.78393555 65.08520508 34.78393555 65.08520508 30.80078125 65.02172852 C29.51389404 65.01173828 28.22700684 65.00174805 26.90112305 64.99145508 C24.46346558 64.93683105 24.46346558 64.93683105 21.9765625 64.88110352 C16.7996875 64.79860352 11.6228125 64.71610352 6.2890625 64.63110352 C6.2890625 75.19110352 6.2890625 85.75110352 6.2890625 96.63110352 C8.84140625 96.58469727 11.39375 96.53829102 14.0234375 96.49047852 C16.49900321 96.45927195 18.97454691 96.43499054 21.45019531 96.41137695 C23.16904529 96.39127724 24.88782702 96.36399263 26.60644531 96.3293457 C29.07894739 96.28075318 31.5505446 96.25811917 34.0234375 96.24047852 C35.17365387 96.2095108 35.17365387 96.2095108 36.34710693 96.17791748 C39.86361717 96.17644281 41.89456829 96.34494432 44.77832031 98.43676758 C46.97433789 101.62645826 46.76189187 103.84846852 46.2890625 107.63110352 C44.94966893 110.1759513 44.20134809 111.33813967 41.44407654 112.22358704 C39.26420468 112.63580417 37.27581264 112.7646653 35.05883789 112.77636719 C33.82219139 112.78593697 33.82219139 112.78593697 32.56056213 112.79570007 C31.23700966 112.79736931 31.23700966 112.79736931 29.88671875 112.79907227 C28.51464516 112.80406487 28.51464516 112.80406487 27.11485291 112.80915833 C25.18244936 112.81421533 23.25003711 112.81656703 21.31762695 112.81640625 C18.36590157 112.81859289 15.41454993 112.83676202 12.46289062 112.85571289 C10.58333461 112.85864705 8.70377682 112.8606317 6.82421875 112.86157227 C5.94387466 112.86875778 5.06353058 112.8759433 4.1565094 112.88334656 C-3.86692259 112.85351858 -3.86692259 112.85351858 -7.7109375 110.63110352 C-9.76286481 107.55321255 -9.96333337 106.90766289 -9.98509216 103.43167114 C-9.99506729 102.57652924 -10.00504242 101.72138733 -10.01531982 100.84033203 C-10.0159845 99.90519775 -10.01664917 98.97006348 -10.01733398 98.0065918 C-10.0256575 97.01932098 -10.03398102 96.03205017 -10.04255676 95.01486206 C-10.06669779 91.74367354 -10.07543381 88.47268424 -10.08203125 85.20141602 C-10.09099423 82.93081603 -10.10011601 80.66021666 -10.10939026 78.38961792 C-10.12589382 73.62651126 -10.13358291 68.86347501 -10.13647461 64.1003418 C-10.14186071 57.99453521 -10.17954501 51.88938948 -10.22521877 45.78376961 C-10.25494866 41.09290139 -10.26219728 36.40219311 -10.26320076 31.71123886 C-10.26741089 29.46014249 -10.27987674 27.20904597 -10.30071831 24.95804214 C-10.32754819 21.8096673 -10.32283168 18.66283475 -10.31030273 15.5144043 C-10.32513702 14.58331848 -10.33997131 13.65223267 -10.35525513 12.69293213 C-10.30490073 8.25359125 -10.14841265 6.23148124 -7.46791077 2.55284119 C-4.61855763 0.56671048 -3.40707955 0.0041426 0 0 Z " fill="#000000" transform="translate(325.7109375,201.368896484375)"/></svg>