<svg xmlns="http://www.w3.org/2000/svg" width="54" height="54" viewBox="0 0 54 54" fill="none"><g clip-path="url(#clip0_17_1800)"><path d="M6.27749 16.2C5.95265 16.2548 5.66999 16.4573 5.5139 16.7484C5.3578 17.0353 5.34093 17.3812 5.46749 17.685L7.42499 22.545L4.45499 27H3.23999C1.44702 27 -9.574e-06 28.447 -9.574e-06 30.24V36.2137C-9.574e-06 41.2889 2.67046 44.9845 5.63624 47.1149C4.7039 47.3554 3.77577 47.4524 3.07124 47.4524C2.39202 47.4524 1.80983 47.4018 1.24874 47.3174C0.852178 47.2204 0.43874 47.3554 0.172959 47.6634C-0.0928221 47.9714 -0.160323 48.4059 -0.00422832 48.7814C0.151865 49.1568 0.50624 49.4142 0.91124 49.4437C1.54827 49.5407 2.26124 49.6124 3.07124 49.6124C4.74187 49.6124 7.07483 49.1568 9.04499 47.8912C11.0194 49.1695 13.3734 49.6124 15.0525 49.6124C16.7231 49.6124 19.0561 49.1568 21.0262 47.8912C22.9964 49.1568 25.3294 49.6124 27 49.6124C28.6706 49.6124 31.0036 49.1568 32.9737 47.8912C33.518 48.2414 34.0833 48.5367 34.6612 48.7687C34.8216 48.8826 35.0072 48.9543 35.2012 48.9712C36.5428 49.4395 37.8759 49.6124 38.9475 49.6124C40.6265 49.6124 42.9806 49.1695 44.955 47.8912C46.9251 49.1568 49.2581 49.6124 50.9287 49.6124C51.8611 49.6124 52.65 49.469 53.2912 49.2412C53.8608 49.0345 54.1561 48.4101 53.9494 47.8406C53.7426 47.271 53.1183 46.9757 52.5487 47.1824C52.1226 47.3343 51.6291 47.4524 50.9287 47.4524C49.4648 47.4524 47.0559 46.9842 45.5962 45.8324C45.2081 45.5329 44.6681 45.5329 44.28 45.8324C43.2464 46.6467 41.7445 47.1107 40.4325 47.3174C46.575 44.512 52.148 38.7956 53.8987 30.9487C54.0633 30.1935 54.1055 29.1642 53.4262 28.3162C52.7597 27.4893 51.8906 27 50.76 27H42.4575L33.21 16.5712C33.0075 16.335 32.7122 16.2 32.4 16.2H23.76C23.3001 16.2042 22.8909 16.5037 22.7475 16.9425L20.8237 22.68H16.7062L11.6437 16.605C11.437 16.3476 11.1291 16.2 10.8 16.2H6.47999C6.44624 16.2 6.41249 16.2 6.37874 16.2C6.34499 16.2 6.31124 16.2 6.27749 16.2ZM8.09999 18.36H10.2937L13.905 22.68H9.71999C9.72421 22.5407 9.6989 22.4057 9.65249 22.275L8.09999 18.36ZM24.5362 18.36H31.9275L35.775 22.68H23.085L24.5362 18.36ZM8.50499 24.84H37.6987L40.095 27.54L39.69 28.1475C39.5592 28.101 39.4242 28.0757 39.285 28.08H6.74999C6.71624 28.08 6.68249 28.08 6.64874 28.08C6.60233 28.0757 6.56015 28.0757 6.51374 28.08L6.47999 27.9112L8.50499 24.84ZM3.23999 29.16H4.62374L6.54749 34.8974C6.69093 35.3362 7.10015 35.6357 7.55999 35.6399H36.72C37.0828 35.6442 37.4245 35.467 37.6312 35.1674L41.6475 29.16H50.76C50.8444 29.16 51.6417 29.5481 51.7387 29.6662C51.8147 29.759 51.8653 30.0501 51.7725 30.4762C49.7897 39.3524 42.2676 45.3051 35.3362 46.7437C34.7203 46.5032 34.1339 46.2121 33.6487 45.8324C33.2522 45.516 32.6953 45.516 32.2987 45.8324C30.8391 46.9842 28.4639 47.4524 27 47.4524C25.5361 47.4524 23.1651 46.9842 21.7012 45.8324C21.3047 45.516 20.7478 45.516 20.3512 45.8324C18.8916 46.9842 16.5164 47.4524 15.0525 47.4524C13.5886 47.4524 11.1797 46.9842 9.71999 45.8324C9.51749 45.6721 9.26858 45.5878 9.01124 45.5962C8.78765 45.6089 8.57671 45.6932 8.40374 45.8324C8.28561 45.9253 8.16327 46.0181 8.03249 46.1024C5.16796 44.5289 2.15999 41.1749 2.15999 36.2137V30.24C2.15999 29.8307 2.83077 29.16 3.23999 29.16ZM7.25624 30.24H38.2725L36.1125 33.4799H8.33624L7.25624 30.24ZM43.9087 31.6912C43.2422 31.6912 43.2 32.0962 43.2 32.0962V33.5137C43.2 34.5051 44.3475 34.5599 44.3475 34.5599H46.5412C46.5412 34.5599 47.52 34.5389 47.52 33.5474V32.0962C47.52 32.0962 47.482 31.6912 46.8112 31.6912C46.1405 31.6912 46.0687 32.0962 46.0687 32.0962V32.9399C46.0687 32.9399 45.997 33.3787 45.36 33.3787C44.723 33.3787 44.6512 32.9399 44.6512 32.9399V32.0962C44.6512 32.0962 44.5795 31.6912 43.9087 31.6912ZM8.90999 49.9162C8.72437 49.9499 8.54718 50.0301 8.40374 50.1525C6.94405 51.3042 4.53515 51.7724 3.07124 51.7724C2.39202 51.7724 1.80983 51.7218 1.24874 51.6374C0.852178 51.5404 0.43874 51.6754 0.172959 51.9834C-0.0928221 52.2914 -0.160323 52.7259 -0.00422832 53.1014C0.151865 53.4768 0.50624 53.7342 0.91124 53.7637C1.54827 53.8607 2.26124 53.9324 3.07124 53.9324C4.74187 53.9324 7.07483 53.4768 9.04499 52.2112C11.0194 53.4895 13.3734 53.9324 15.0525 53.9324C16.7231 53.9324 19.0561 53.4768 21.0262 52.2112C22.9964 53.4768 25.3294 53.9324 27 53.9324C28.6706 53.9324 31.0036 53.4768 32.9737 52.2112C34.9439 53.4768 37.2769 53.9324 38.9475 53.9324C40.6265 53.9324 42.9806 53.4895 44.955 52.2112C46.9251 53.4768 49.2581 53.9324 50.9287 53.9324C51.8611 53.9324 52.65 53.789 53.2912 53.5612C53.8608 53.3545 54.1561 52.7301 53.9494 52.1606C53.7426 51.591 53.1183 51.2957 52.5487 51.5024C52.1226 51.6543 51.6291 51.7724 50.9287 51.7724C49.4648 51.7724 47.0559 51.3042 45.5962 50.1525C45.2081 49.8529 44.6681 49.8529 44.28 50.1525C42.8203 51.3042 40.4114 51.7724 38.9475 51.7724C37.4836 51.7724 35.1126 51.3042 33.6487 50.1525C33.2522 49.836 32.6953 49.836 32.2987 50.1525C30.8391 51.3042 28.4639 51.7724 27 51.7724C25.5361 51.7724 23.1651 51.3042 21.7012 50.1525C21.3047 49.836 20.7478 49.836 20.3512 50.1525C18.8916 51.3042 16.5164 51.7724 15.0525 51.7724C13.5886 51.7724 11.1797 51.3042 9.71999 50.1525C9.51749 49.9921 9.26858 49.9078 9.01124 49.9162C8.97749 49.9162 8.94374 49.9162 8.90999 49.9162Z" fill="white"/></g><defs><clipPath id="clip0_17_1800"><rect width="54" height="54" fill="white"/></clipPath></defs></svg>