<svg xmlns="http://www.w3.org/2000/svg" width="27" height="27" viewBox="0 0 27 27" fill="none"><path d="M19.9801 2.16003C18.4892 2.16003 17.2801 3.36909 17.2801 4.86003C17.2801 6.35097 18.4892 7.56003 19.9801 7.56003C21.4711 7.56003 22.6801 6.35097 22.6801 4.86003C22.6801 3.36909 21.4711 2.16003 19.9801 2.16003ZM19.9801 3.24003C20.8733 3.24003 21.6001 3.96687 21.6001 4.86003C21.6001 5.75319 20.8733 6.48003 19.9801 6.48003C19.087 6.48003 18.3601 5.75319 18.3601 4.86003C18.3601 3.96687 19.087 3.24003 19.9801 3.24003ZM11.1882 4.45082C10.727 4.43659 10.2694 4.57172 9.88465 4.84105L5.94539 7.59906C5.24015 8.09208 4.99876 9.04492 5.38324 9.81496C5.60788 10.2637 6.01472 10.595 6.4991 10.7241C6.9851 10.8521 7.50181 10.7675 7.91976 10.4889L11.4023 8.16648L13.1204 8.85308L10.2928 11.995C9.79439 12.548 9.55111 13.2622 9.60726 14.0052C9.61914 14.1651 9.65119 14.3197 9.68953 14.4714L4.90441 22.1295C4.71811 22.427 4.63792 22.7609 4.64602 23.0903L3.11566 21.2541C2.9245 21.0251 2.58476 20.9939 2.35418 21.1845C2.12522 21.3756 2.095 21.7165 2.28562 21.946L4.24629 24.3H1.62012V25.38H5.40012H6.48012H8.64012C8.93874 25.38 9.18012 25.1387 9.18012 24.84C9.18012 24.5414 8.93874 24.3 8.64012 24.3H7.55695C7.61851 24.2417 7.68122 24.1851 7.73414 24.1176L12.7861 17.6882L14.3766 18.9907L12.6627 21.2752C12.2863 21.7769 12.195 22.4269 12.4191 23.0133C12.6426 23.5998 13.1445 24.0234 13.7606 24.1471C13.8773 24.1703 13.9963 24.1819 14.1129 24.1819C14.6227 24.1819 15.1193 23.9663 15.4671 23.5807L18.3749 20.3492C18.862 19.8081 19.1068 19.1106 19.0636 18.3832C19.0204 17.6559 18.6941 16.9912 18.146 16.5112L15.8141 14.4714L17.3118 11.976L19.9748 13.4547C20.3815 13.6809 20.8291 13.7964 21.2816 13.7964C21.5343 13.7964 21.7884 13.7606 22.0368 13.6888C22.7334 13.4869 23.3079 13.0245 23.6557 12.3873L25.4002 9.18953C25.7944 8.46863 25.5754 7.58072 24.8928 7.1255C24.1833 6.65084 23.2365 6.82495 22.7392 7.52101L20.9346 10.047L17.5997 7.66445C17.5819 7.64555 17.5674 7.6248 17.5491 7.60644L16.3478 6.4041C15.7257 5.78202 14.944 5.33912 14.0897 5.12582L11.6481 4.51515C11.4959 4.47668 11.342 4.45556 11.1882 4.45082ZM11.1545 5.53187C11.2315 5.53413 11.3089 5.54461 11.3855 5.56351L13.8281 6.17417C14.4923 6.3405 15.0987 6.68331 15.5831 7.16769L16.7855 8.37003C17.3125 8.89707 17.4125 9.71035 17.0291 10.3486L14.6561 14.3027C14.5227 14.5262 14.5681 14.8149 14.7647 14.9871L17.4362 17.3243C17.7645 17.6116 17.9608 18.0102 17.9868 18.4465C18.0132 18.8828 17.8655 19.3016 17.5733 19.6267L14.6655 22.8583C14.4927 23.0505 14.2286 23.139 13.9737 23.0882C13.7199 23.0374 13.5207 22.8692 13.4284 22.6273C13.3361 22.3854 13.3726 22.1296 13.5275 21.9228L15.5525 19.2238C15.7259 18.9922 15.6859 18.666 15.4618 18.4824L11.2747 15.0568C10.928 14.7733 10.7192 14.3701 10.6852 13.924C10.6511 13.4785 10.7973 13.0506 11.0965 12.7185L14.4409 9.00179C14.5592 8.87057 14.6059 8.68995 14.5654 8.51769C14.5249 8.34543 14.4036 8.20388 14.2395 8.138L11.5395 7.058C11.4757 7.03208 11.4082 7.02003 11.3401 7.02003C11.2354 7.02003 11.1308 7.0508 11.0406 7.11074L7.3207 9.59031C7.15816 9.69831 6.96708 9.73123 6.77754 9.68101C6.58854 9.63079 6.43628 9.50738 6.34934 9.33296C6.19976 9.03272 6.29071 8.67564 6.56449 8.48394L10.5037 5.72593C10.6961 5.59147 10.9235 5.52509 11.1545 5.53187ZM23.932 7.95027C24.0537 7.92799 24.1831 7.9509 24.2938 8.02515C24.5082 8.16717 24.5767 8.44647 24.453 8.67273L22.7086 11.8705C22.5002 12.2529 22.1557 12.5306 21.7372 12.651C21.3193 12.7736 20.8802 12.7219 20.5001 12.5107L17.8686 11.05L17.9562 10.9044C18.2148 10.473 18.3348 9.99276 18.3348 9.51648L20.7469 11.2398C20.9899 11.4137 21.3266 11.3573 21.4999 11.1143L23.6177 8.1496C23.696 8.04079 23.8104 7.97254 23.932 7.95027ZM10.2749 15.5757C10.3726 15.6869 10.4731 15.7959 10.5902 15.8921L11.9497 17.0037L6.88617 23.451C6.76899 23.599 6.60056 23.6875 6.41156 23.6989C6.21878 23.707 6.04502 23.6413 5.91164 23.508C5.69618 23.2925 5.65788 22.9614 5.81988 22.7032L10.2749 15.5757Z" fill="black"/></svg>