<svg xmlns="http://www.w3.org/2000/svg" width="28" height="14" viewBox="0 0 28 14" fill="none"><g clip-path="url(#clip0_15_1674)"><path d="M12.3965 0.113577C12.1535 0.134844 11.9116 0.20094 11.6823 0.314827L5.0017 3.62998C4.02438 4.11531 3.62611 5.32304 4.12342 6.29436C4.60556 7.2353 5.76169 7.62964 6.7178 7.1792L11.8726 4.75217L13.1119 6.76248L4.24592 12.1612C2.09111 11.3809 0.939517 10.3161 0.939517 10.3161C0.884978 10.2646 0.820669 10.2247 0.750403 10.1986C0.680137 10.1725 0.605343 10.1607 0.530455 10.164C0.419183 10.1688 0.311842 10.2065 0.222148 10.2726C0.132453 10.3386 0.0644779 10.4298 0.0269081 10.5347C-0.0106616 10.6395 -0.0161199 10.7532 0.0112307 10.8611C0.0385813 10.9691 0.0974987 11.0665 0.180455 11.1408C0.180455 11.1408 1.56091 12.3916 4.05561 13.2637C4.10831 13.2919 4.16517 13.3115 4.22405 13.3217C5.5246 13.7583 7.10978 14.0884 8.95999 14.0884C11.7162 14.0884 13.6573 13.5032 15.3267 12.9389C16.9961 12.3746 18.3756 11.8484 20.16 11.8484C23.7288 11.8484 27.137 13.9998 27.137 13.9998C27.1989 14.0396 27.2681 14.0668 27.3405 14.0799C27.4129 14.093 27.4872 14.0916 27.5591 14.076C27.631 14.0603 27.6991 14.0307 27.7596 13.9887C27.82 13.9468 27.8716 13.8933 27.9114 13.8314C27.9512 13.7695 27.9784 13.7003 27.9914 13.6279C28.0045 13.5555 28.0032 13.4812 27.9876 13.4093C27.9719 13.3374 27.9423 13.2693 27.9003 13.2088C27.8583 13.1484 27.8049 13.0968 27.743 13.057C27.743 13.057 24.1702 10.7284 20.16 10.7284C19.9449 10.7284 19.7373 10.7385 19.5322 10.7514C19.5725 10.5621 19.6 10.3679 19.6 10.1673C19.6 9.61638 19.4338 9.10412 19.1636 8.67655L19.1614 8.67436L14.2767 1.03342C14.0007 0.602255 13.5811 0.30914 13.1162 0.180295C12.8838 0.115874 12.6396 0.0923107 12.3965 0.113577ZM12.4994 1.22592C12.8234 1.19578 13.1462 1.34564 13.3328 1.63717L18.2164 9.27483C18.3829 9.53829 18.48 9.84019 18.48 10.1673C18.48 10.4349 18.4162 10.6823 18.3072 10.9045C17.1277 11.1211 16.069 11.5058 14.968 11.878C13.3239 12.4337 11.5601 12.9684 8.95999 12.9684C7.7389 12.9684 6.65114 12.8167 5.69514 12.59L14.175 7.42639C14.238 7.38795 14.2927 7.33745 14.3361 7.27779C14.3795 7.21812 14.4107 7.15047 14.4279 7.07871C14.4451 7.00696 14.4479 6.93252 14.4362 6.85967C14.4245 6.78682 14.3986 6.71699 14.3598 6.6542L12.5639 3.73826C12.4917 3.621 12.3789 3.53443 12.2469 3.49509C12.115 3.45574 11.9732 3.46639 11.8486 3.52498L6.24092 6.1653C5.82055 6.36334 5.33319 6.19784 5.12092 5.78358C4.90157 5.35516 5.0694 4.84677 5.50045 4.63295L12.18 1.3178C12.2833 1.26648 12.3914 1.23597 12.4994 1.22592ZM22.12 3.44842C20.4249 3.44842 19.04 4.83374 19.04 6.52733C19.04 8.2231 20.4251 9.60842 22.12 9.60842C23.8136 9.60842 25.2 8.22355 25.2 6.52733C25.2 4.83329 23.8137 3.44842 22.12 3.44842ZM22.12 4.56842C23.2083 4.56842 24.08 5.43928 24.08 6.52733C24.08 7.61878 23.2085 8.48842 22.12 8.48842C21.0294 8.48842 20.16 7.61923 20.16 6.52733C20.16 5.43883 21.0296 4.56842 22.12 4.56842Z" fill="black"/></g><defs><clipPath id="clip0_15_1674"><rect width="28" height="14" fill="white"/></clipPath></defs></svg>