<svg xmlns="http://www.w3.org/2000/svg" width="25" height="22" viewBox="0 0 25 22" fill="none"><g clip-path="url(#clip0_15_1676)"><path d="M12.9062 -0.137857C12.6309 -0.109721 12.4277 0.162988 12.4531 0.468161C12.4785 0.773335 12.7246 0.998427 13 0.970291C13.7148 0.970291 15.0781 0.961633 16.2344 1.09149C16.8125 1.15643 17.3379 1.25599 17.6719 1.38585C17.832 1.44861 17.9395 1.53735 17.9844 1.57631C17.9766 1.65423 17.9766 1.71916 17.9531 1.74946C17.9238 1.78842 17.8418 1.84685 17.6562 1.90529C17.2852 2.02433 16.5488 2.07844 15.5 2.07844C15.3457 2.07844 15.1992 2.15852 15.1055 2.29271C15.0098 2.42906 14.9766 2.60438 15.0156 2.77103L15.5156 4.79686C11.75 5.70373 9.18945 7.49365 7.46875 9.43723L6.20312 7.82696C6.51758 7.6971 6.83594 7.57806 7.14062 7.44603C7.6543 7.22094 8.13477 7.00018 8.5 6.78807C8.68359 6.68202 8.83203 6.59544 8.96875 6.4764C9.10547 6.35736 9.3125 6.23183 9.3125 5.81844C9.3125 5.45699 9.04492 5.10853 8.79688 4.98733C8.54883 4.86612 8.29883 4.84881 8.03125 4.84881H3.5C3.21875 4.84881 2.90039 4.88127 2.59375 5.05659C2.28711 5.2319 2 5.65178 2 6.13011C2 8.09101 3.29297 9.00653 4.25 8.62344C4.49805 8.52388 4.85547 8.38103 5.20312 8.24251L6.79688 10.251C6.41992 10.7467 6.0957 11.251 5.8125 11.7401C5.72266 11.8959 5.66016 12.0539 5.57812 12.2076C5.23242 12.1124 4.87109 12.0518 4.5 12.0518C2.02148 12.0518 0 14.2919 0 17.0384C0 19.785 2.02148 22.0251 4.5 22.0251C6.97852 22.0251 9 19.785 9 17.0384C9 15.0949 7.98633 13.411 6.51562 12.5885C6.56445 12.4998 6.60547 12.4175 6.65625 12.3288C8.09961 9.83331 10.7539 7.06511 15.7812 5.87038L16.3125 8.05205C13.8008 9.04982 12 11.699 12 14.8221C12 18.7937 14.916 22.0251 18.5 22.0251C22.084 22.0251 25 18.7937 25 14.8221C25 10.8506 22.084 7.61918 18.5 7.61918C18.084 7.61918 17.6758 7.65814 17.2812 7.74038L16.1406 3.13464C16.8184 3.11949 17.4961 3.11949 17.9375 2.97881C18.2363 2.88358 18.502 2.7364 18.7031 2.47668C18.9043 2.21696 19 1.862 19 1.52436C19 1.19971 18.8281 0.907525 18.6406 0.727884C18.4531 0.548242 18.2383 0.440025 18 0.346958C17.5254 0.160824 16.9473 0.0526057 16.3281 -0.0166535C15.0898 -0.155172 13.707 -0.137857 13 -0.137857C12.9844 -0.137857 12.9688 -0.137857 12.9531 -0.137857C12.9375 -0.137857 12.9219 -0.137857 12.9062 -0.137857ZM3.5 5.95696H7.75C7.46484 6.1063 7.16602 6.25564 6.78125 6.42446C5.78711 6.85949 4.60352 7.30535 3.90625 7.58455C3.73242 7.65381 3 7.61269 3 6.13011C3 6.0392 2.98438 6.08898 3.0625 6.04353C3.14062 5.99808 3.32031 5.95696 3.5 5.95696ZM18.5 8.72733C21.543 8.72733 24 11.4501 24 14.8221C24 18.1942 21.543 20.917 18.5 20.917C15.457 20.917 13 18.1942 13 14.8221C13 12.2011 14.4883 9.98914 16.5781 9.12557L18.0156 14.9607C18.084 15.2572 18.3574 15.4347 18.625 15.3589C18.8926 15.2831 19.0527 14.9801 18.9844 14.6836L17.5469 8.83122C17.8574 8.77061 18.1738 8.72733 18.5 8.72733ZM4.5 13.1599C4.69922 13.1599 4.88867 13.1945 5.07812 13.2292C4.16211 15.3329 4 16.9865 4 16.9865C3.97461 17.2917 4.17773 17.5644 4.45312 17.5925C4.72852 17.6206 4.97461 17.3956 5 17.0904C5 17.0904 5.13672 15.5429 6.03125 13.5582C7.19727 14.1858 8 15.5017 8 17.0384C8 19.1876 6.43945 20.917 4.5 20.917C2.56055 20.917 1 19.1876 1 17.0384C1 14.8892 2.56055 13.1599 4.5 13.1599Z" fill="black"/></g><defs><clipPath id="clip0_15_1676"><rect width="25" height="22" fill="white"/></clipPath></defs></svg>