<svg xmlns="http://www.w3.org/2000/svg" width="156" height="40" viewBox="0 0 156 40" fill="none"><path d="M0.484235 4.1213C0.481954 4.1235 0.478533 4.12681 0.475111 4.13011C-0.15001 4.743 -0.15934 5.74666 0.453548 6.37177C0.453548 6.37177 1.06203 6.99233 2.22916 8.06547C2.87512 8.65863 3.88855 8.62103 4.46947 7.96924C5.06263 7.32328 5.02035 6.32099 4.37325 5.72893C3.29994 4.74375 2.7322 4.16764 2.71567 4.15053C2.10718 3.52997 1.11034 3.51627 0.484235 4.1213Z" fill="#E2001A"/><path d="M2.1373 5.83196C1.54312 6.4723 1.58209 7.47117 2.22243 8.06536C2.87418 8.64852 3.88406 8.62095 4.46837 7.9681C5.06255 7.32776 5.02358 6.3289 4.3821 5.73581L4.37108 5.72441C3.75392 5.15193 2.79914 5.17035 2.19471 5.75443C2.1719 5.77647 2.14909 5.79852 2.1373 5.83196Z" fill="#E2001A"/><path d="M5.7529 8.86605C5.70728 8.91013 5.67421 8.94209 5.62859 8.98617C5.36399 9.30802 5.2347 9.71967 5.27225 10.1465C5.30866 10.5745 5.5165 10.947 5.8247 11.2226C7.15177 12.322 8.32455 13.2618 9.49809 14.1567C9.52014 14.1795 9.54218 14.2023 9.56422 14.2252L9.62084 14.2587C10.308 14.7415 11.2852 14.5911 11.7912 13.9257C12.2717 13.307 12.2316 12.4415 11.6908 11.8614C11.6357 11.8044 11.5692 11.7584 11.5141 11.7014C10.2972 10.7821 9.07924 9.79784 7.90723 8.81321L7.87416 8.779C7.24369 8.26349 6.33338 8.30511 5.7529 8.86605ZM13.2358 14.6469C13.1662 14.7142 13.1099 14.7906 13.0525 14.8681C12.5933 15.4883 12.6684 16.342 13.1974 16.8894C13.2745 16.9693 13.352 17.0267 13.4185 17.0727C14.8034 18.0721 16.1016 18.9569 17.3546 19.7971C18.0634 20.259 19.0649 20.063 19.5482 19.3535C19.9626 18.7325 19.8981 17.9127 19.3801 17.3766C19.292 17.2854 19.2034 17.2166 19.1149 17.1478C17.8284 16.2958 16.5313 15.41 15.2559 14.5032C14.6357 14.0439 13.782 14.1191 13.2358 14.6469ZM21.1095 19.8737C21.0182 19.9619 20.938 20.0614 20.8574 20.1834C20.4878 20.8052 20.5751 21.603 21.0711 22.1162C21.1702 22.2189 21.2812 22.288 21.3922 22.3572C22.7463 23.188 24.1232 23.9966 25.5115 24.7943C26.256 25.1996 27.2466 24.9261 27.6754 24.1808C28.0112 23.5697 27.9231 22.8168 27.4382 22.315C27.328 22.2009 27.2064 22.0979 27.073 22.0283C25.739 21.2664 24.3743 20.468 23.0422 19.6601C22.4319 19.2795 21.6341 19.3668 21.1095 19.8737ZM29.3523 24.5012C29.2269 24.6224 29.1223 24.7675 29.0425 24.9109C28.7292 25.5224 28.8286 26.2643 29.3139 26.7437C29.4131 26.8463 29.5347 26.9493 29.6571 27.0075L29.7236 27.0535C29.7346 27.0649 29.768 27.0767 29.7791 27.0881L29.8125 27.0999C31.2913 27.8542 32.6481 28.528 33.9502 29.1223C33.9722 29.1451 34.0056 29.1569 34.0167 29.1683L34.0402 29.1676C34.7745 29.5166 35.7787 29.1637 36.127 28.4081C36.4076 27.8061 36.285 27.1087 35.8434 26.6312C35.7002 26.4829 35.544 26.3692 35.3558 26.2863C33.9872 25.646 32.5746 24.9601 31.1737 24.2407C30.5736 23.9164 29.8313 24.0383 29.3523 24.5012ZM37.8974 28.5057C37.748 28.6501 37.6328 28.8276 37.5397 29.0279C37.2941 29.6181 37.4292 30.3034 37.8803 30.7497C38.0236 30.898 38.1897 31.0242 38.4014 31.1063C39.849 31.7143 41.3529 32.3121 42.845 32.8771C43.6363 33.171 44.587 32.7376 44.8813 31.9239C45.0927 31.3667 44.9682 30.7152 44.5384 30.2704C44.3841 30.1107 44.1731 29.9838 43.9504 29.8902C42.5461 29.3727 41.13 28.8224 39.6166 28.1897C39.0287 27.9419 38.3536 28.0649 37.8974 28.5057ZM46.7566 31.7877C46.5753 31.963 46.4255 32.1959 46.3529 32.4426C46.1639 33.0001 46.3105 33.6083 46.7072 34.0188C46.8064 34.1215 46.9071 34.2006 47.028 34.2823L46.8262 34.2788L47.44 34.4576C48.9458 34.9432 50.4744 35.4068 51.9703 35.8138C52.7742 36.0294 53.6914 35.518 53.9074 34.6917C54.0622 34.1672 53.9027 33.5936 53.5284 33.1834C53.33 32.9781 53.0746 32.828 52.7957 32.7447C51.3221 32.3381 49.8277 31.9076 48.3656 31.4239L48.3432 31.4235C47.7868 31.2334 47.1786 31.38 46.7566 31.7877ZM55.8558 34.2865C55.6403 34.4948 55.4886 34.7737 55.4163 35.0641C55.295 35.6004 55.4538 36.1527 55.8285 36.5404C56.0492 36.7461 56.3168 36.9066 56.6174 36.9689C58.148 37.3204 59.7241 37.6278 61.3132 37.9006C62.1406 38.0494 63.0032 37.4585 63.1519 36.6311C63.2504 36.1168 63.0799 35.598 62.7272 35.233C62.4844 35.0046 62.1956 34.8426 61.8599 34.792C60.3507 34.5082 58.8194 34.2016 57.3109 33.8729C56.7845 33.7641 56.2424 33.9129 55.8558 34.2865ZM65.1585 35.905C64.8859 36.1684 64.7236 36.4797 64.6825 36.8502C64.6193 37.3303 64.7781 37.8164 65.1311 38.1589C65.3846 38.4212 65.6959 38.5836 66.0664 38.6224C67.6221 38.8173 69.2009 38.9677 70.7467 39.0839L70.8699 39.0972C71.6992 39.1339 72.4622 38.4628 72.5326 37.6228C72.5627 37.1747 72.4009 36.7356 72.0923 36.4163C71.8168 36.1312 71.4497 35.9567 71.0688 35.9277C69.5455 35.8119 67.9902 35.6608 66.4455 35.4773C65.9632 35.4141 65.5018 35.5733 65.1585 35.905ZM74.5568 36.5931C74.2488 36.8906 74.0739 37.2802 74.0666 37.7063C74.0605 38.1312 74.2208 38.5277 74.5184 38.8356C74.8049 39.1321 75.1956 39.3059 75.6205 39.3143C77.2686 39.3537 78.8725 39.3475 80.4221 39.3057C81.2629 39.2651 81.9837 38.5024 81.9644 37.6609C81.9375 37.2679 81.7871 36.884 81.5226 36.6103C81.203 36.2796 80.7796 36.1153 80.3307 36.13C78.7822 36.1708 77.2231 36.1778 75.6982 36.1517C75.2721 36.1444 74.8658 36.2944 74.5568 36.5931ZM83.984 36.3048C83.6419 36.6354 83.4545 37.1032 83.4912 37.5749C83.5299 37.9345 83.6922 38.285 83.9456 38.5473C84.2763 38.8894 84.7445 39.0544 85.2162 39.0176C86.8449 38.8773 88.4515 38.7141 89.9806 38.4936C90.8138 38.3721 91.4438 37.5429 91.3348 36.6998C91.2957 36.3627 91.1316 36.0582 90.8891 35.8073C90.5475 35.4537 90.0356 35.2868 89.5521 35.357C88.0906 35.5563 86.5501 35.7217 84.9898 35.8621L84.945 35.8614C84.5744 35.8887 84.2464 36.0513 83.984 36.3048ZM93.3154 35.0065C92.9276 35.3812 92.75 35.9277 92.8643 36.4568C92.9152 36.7605 93.0566 37.0209 93.2659 37.2376C93.6403 37.6478 94.1758 37.814 94.7159 37.711C96.2686 37.4236 97.8449 37.0693 99.3991 36.6921C100.21 36.4817 100.753 35.5825 100.554 34.7603C100.491 34.4901 100.361 34.2411 100.173 34.0472C99.7767 33.6367 99.1963 33.4697 98.6444 33.6061C97.1464 33.973 95.6378 34.306 94.1186 34.6053C93.8137 34.6573 93.532 34.7971 93.3154 35.0065ZM102.46 32.764C102.038 33.1718 101.882 33.786 102.04 34.3607C102.114 34.5975 102.245 34.8241 102.421 35.0065C102.84 35.4399 103.454 35.5962 104.018 35.4264C105.518 34.9698 107.018 34.4684 108.485 33.9551C108.508 33.9544 108.541 33.9449 108.576 33.9331L108.688 33.8913L108.677 33.8799C109.422 33.5562 109.808 32.6543 109.542 31.8972C109.467 31.6828 109.347 31.4901 109.193 31.3304C108.752 30.8743 108.104 30.7286 107.506 30.9314C106.06 31.4462 104.582 31.948 103.106 32.3825C102.87 32.4559 102.643 32.5866 102.46 32.764ZM111.342 29.6064C110.874 30.0582 110.728 30.7511 110.976 31.3497C111.062 31.5307 111.16 31.7006 111.303 31.8489C111.755 32.3164 112.437 32.4515 113.047 32.2152C114.493 31.6119 115.962 30.9641 117.42 30.2825C118.2 29.9257 118.555 28.9436 118.198 28.1861C118.122 28.0165 118.024 27.8691 117.913 27.755C117.44 27.2646 116.702 27.1174 116.091 27.3985C114.668 28.0684 113.231 28.7067 111.842 29.2773C111.649 29.3537 111.489 29.4642 111.342 29.6064ZM119.878 25.6139C119.377 26.0977 119.251 26.8818 119.577 27.493C119.642 27.6287 119.729 27.7424 119.829 27.845C120.313 28.3692 121.096 28.4948 121.719 28.1578C123.133 27.4305 124.537 26.647 125.919 25.8632C126.657 25.4373 126.919 24.4335 126.495 23.6972C126.43 23.5828 126.341 23.4702 126.253 23.379C125.735 22.8654 124.952 22.7623 124.318 23.1103C123.094 23.8296 121.87 24.5051 120.683 25.123L120.242 25.351C120.117 25.4273 119.991 25.5048 119.878 25.6139ZM128.044 20.9209C127.508 21.4388 127.404 22.267 127.798 22.9007C127.864 22.9916 127.928 23.0835 127.994 23.152C128.523 23.6994 129.363 23.7923 129.999 23.3983C131.326 22.5574 132.664 21.6606 133.981 20.7635C134.696 20.271 134.881 19.276 134.388 18.562C134.333 18.4826 134.279 18.402 134.201 18.3457C133.672 17.7983 132.821 17.7165 132.185 18.1542C130.881 19.0392 129.577 19.9029 128.305 20.7123C128.205 20.7655 128.125 20.8426 128.044 20.9209ZM135.819 15.5684C135.249 16.1194 135.178 17.0267 135.638 17.6626C135.682 17.7083 135.737 17.7653 135.781 17.8109C136.321 18.3921 137.228 18.4638 137.864 17.9812C139.114 17.0604 140.387 16.0728 141.638 15.0848C142.32 14.5357 142.438 13.5395 141.889 12.8572C141.867 12.8119 141.823 12.7663 141.79 12.7321C141.217 12.1391 140.309 12.0899 139.661 12.6059C138.456 13.5723 137.217 14.5268 135.979 15.4365C135.922 15.4916 135.865 15.5243 135.819 15.5684ZM143.188 9.70535C142.583 10.2894 142.545 11.2309 143.083 11.8794C143.094 11.8908 143.116 11.9136 143.138 11.9364C143.722 12.5409 144.686 12.6022 145.323 12.0524C146.506 11.0419 147.713 9.98585 148.899 8.9059L148.932 8.87393C149.56 8.2667 149.598 7.30391 149.015 6.67705L148.981 6.64284C148.399 6.01487 147.4 5.98768 146.774 6.54895C145.567 7.64875 144.382 8.68385 143.268 9.62821C143.233 9.66127 143.211 9.68331 143.188 9.70535ZM150.239 3.33218L150.194 3.37625C149.567 3.98239 149.538 4.9801 150.144 5.60734C150.442 5.91527 150.831 6.09017 151.258 6.09747C151.682 6.10587 152.078 5.9444 152.386 5.66818L152.432 5.62409C153.059 5.01797 153.077 4.00885 152.47 3.3816C152.173 3.07368 151.782 2.89987 151.357 2.89148C150.931 2.88418 150.536 3.04564 150.239 3.33218Z" fill="#E2001A"/><path d="M151.939 1.6677C151.936 1.67101 151.931 1.67542 151.926 1.67983C151.363 2.23545 150.804 2.78219 150.238 3.32432L150.235 3.32762C149.607 3.93485 149.588 4.9361 150.193 5.56669C150.799 6.19843 151.803 6.21897 152.436 5.61182C153.009 5.05973 153.583 4.50316 154.156 3.93648C154.779 3.3213 154.786 2.31761 154.169 1.69356C153.559 1.0752 152.564 1.06378 151.939 1.6677Z" fill="#E2001A"/><path d="M141.356 2.83688C140.991 3.18953 140.8 3.71342 140.894 4.25114C141.044 5.11396 141.868 5.68997 142.731 5.53987L152.023 3.91568L150.229 13.3331C150.065 14.1928 150.628 15.0246 151.49 15.1885C152.352 15.3524 153.183 14.7879 153.345 13.9271L156 -5.83033e-05L142.186 2.4137C141.859 2.47202 141.577 2.62308 141.356 2.83688Z" fill="#E2001A"/></svg>