<svg xmlns="http://www.w3.org/2000/svg" width="30" height="28" viewBox="0 0 30 28" fill="none"><path d="M15 0.217041C8.81035 0.217041 3.74122 5.05086 3.33661 11.1399H2.12669C1.48069 11.1399 0.95639 11.6641 0.95639 12.3102V25.1835C0.95639 26.4763 2.0042 27.5241 3.29699 27.5241H26.703C27.9958 27.5241 29.0436 26.4763 29.0436 25.1835V12.3102C29.0436 11.6641 28.5193 11.1399 27.8733 11.1399H26.6634C26.2588 5.05086 21.1897 0.217041 15 0.217041ZM15 0.997242C16.6725 0.997242 18.2522 1.38618 19.6705 2.06088C19.96 2.40645 21.7507 4.61846 21.0557 5.94512C20.5572 6.89696 16.9597 8.01662 16.9597 10.0381C16.9597 10.5284 17.1079 10.8762 17.3086 11.1399H12.0529C11.9442 11.0758 8.97678 9.30578 10.4178 7.52838C10.6262 7.27169 11.1586 8.01753 12.3866 8.01753C13.7793 8.01753 14.6099 6.15944 14.6099 4.36186C14.6099 2.44746 13.6251 1.61555 12.7173 1.24105C13.4541 1.08373 14.217 0.997242 15 0.997242ZM11.2544 1.6723C11.754 1.71463 13.8312 2.01672 13.8312 4.36186C13.8312 5.89417 13.1551 7.23732 12.3866 7.23732C11.6564 7.23732 11.105 6.46446 10.1999 6.70398C9.46343 6.89903 9.1485 7.95054 9.1485 8.5981C9.1485 9.75038 9.89304 10.5949 10.5839 11.1399H4.11681C4.42747 6.77501 7.30747 3.11978 11.2544 1.6723ZM21.4732 3.14279C23.9689 4.98827 25.65 7.86287 25.8832 11.1399H18.7882C18.6318 11.1117 17.9059 10.9388 17.9059 10.0381C17.9059 8.70866 20.9125 7.87376 21.8527 6.30322C22.4445 5.31457 22.0267 4.10093 21.4732 3.14279ZM2.12669 11.9201H27.8733C28.0887 11.9201 28.2634 12.0948 28.2634 12.3102V25.1835C28.2634 26.0456 27.5651 26.7439 26.703 26.7439H3.29699C2.43487 26.7439 1.73659 26.0456 1.73659 25.1835V12.3102C1.73659 12.0948 1.91136 11.9201 2.12669 11.9201ZM12.6594 14.2607C12.2287 14.2607 11.8792 14.6102 11.8792 15.0409C11.8792 15.4715 12.2287 15.8211 12.6594 15.8211H17.3406C17.7713 15.8211 18.1208 15.4715 18.1208 15.0409C18.1208 14.6102 17.7713 14.2607 17.3406 14.2607H12.6594Z" fill="white"/></svg>