<svg xmlns="http://www.w3.org/2000/svg" width="156" height="40" viewBox="0 0 156 40" fill="none"><path d="M0.484235 35.2195C0.481954 35.2173 0.478533 35.214 0.475111 35.2107C-0.15001 34.5978 -0.15934 33.5942 0.453548 32.969C0.453548 32.969 1.06203 32.3485 2.22916 31.2753C2.87512 30.6822 3.88855 30.7198 4.46947 31.3716C5.06263 32.0175 5.02035 33.0198 4.37325 33.6119C3.29994 34.5971 2.7322 35.1732 2.71567 35.1903C2.10718 35.8109 1.11034 35.8245 0.484235 35.2195Z" fill="#E2001A"/><path d="M2.1373 33.5089C1.54312 32.8685 1.58209 31.8696 2.22243 31.2755C2.87418 30.6923 3.88406 30.7199 4.46837 31.3727C5.06255 32.0131 5.02358 33.0119 4.3821 33.605L4.37108 33.6164C3.75392 34.1889 2.79914 34.1705 2.19471 33.5864C2.1719 33.5643 2.14909 33.5423 2.1373 33.5089Z" fill="#E2001A"/><path d="M5.7529 30.4748C5.70728 30.4307 5.67421 30.3987 5.62859 30.3546C5.36399 30.0328 5.2347 29.6211 5.27225 29.1943C5.30866 28.7664 5.5165 28.3938 5.8247 28.1182C7.15177 27.0188 8.32455 26.079 9.49809 25.1841C9.52014 25.1613 9.54218 25.1385 9.56422 25.1157L9.62084 25.0822C10.308 24.5993 11.2852 24.7497 11.7912 25.4151C12.2717 26.0339 12.2316 26.8993 11.6908 27.4794C11.6357 27.5364 11.5692 27.5824 11.5141 27.6395C10.2972 28.5587 9.07924 29.543 7.90723 30.5276L7.87416 30.5618C7.24369 31.0773 6.33338 31.0357 5.7529 30.4748ZM13.2358 24.6939C13.1662 24.6267 13.1099 24.5502 13.0525 24.4727C12.5933 23.8525 12.6684 22.9988 13.1974 22.4514C13.2745 22.3716 13.352 22.3142 13.4185 22.2682C14.8034 21.2687 16.1016 20.3839 17.3546 19.5437C18.0634 19.0819 19.0649 19.2778 19.5482 19.9873C19.9626 20.6083 19.8981 21.4282 19.3801 21.9642C19.292 22.0554 19.2034 22.1242 19.1149 22.193C17.8284 23.045 16.5313 23.9309 15.2559 24.8376C14.6357 25.2969 13.782 25.2218 13.2358 24.6939ZM21.1095 19.4671C21.0182 19.3789 20.938 19.2794 20.8574 19.1574C20.4878 18.5356 20.5751 17.7378 21.0711 17.2246C21.1702 17.122 21.2812 17.0528 21.3922 16.9836C22.7463 16.1529 24.1232 15.3442 25.5115 14.5465C26.256 14.1412 27.2466 14.4147 27.6754 15.16C28.0112 15.7711 27.9231 16.5241 27.4382 17.0259C27.328 17.1399 27.2064 17.2429 27.073 17.3125C25.739 18.0745 24.3743 18.8728 23.0422 19.6808C22.4319 20.0613 21.6341 19.974 21.1095 19.4671ZM29.3523 14.8396C29.2269 14.7184 29.1223 14.5733 29.0425 14.43C28.7292 13.8185 28.8286 13.0765 29.3139 12.5972C29.4131 12.4945 29.5347 12.3915 29.6571 12.3333L29.7236 12.2873C29.7346 12.2759 29.768 12.2641 29.7791 12.2527L29.8125 12.2409C31.2913 11.4866 32.6481 10.8128 33.9502 10.2185C33.9722 10.1957 34.0056 10.1839 34.0167 10.1725L34.0402 10.1732C34.7745 9.82419 35.7787 10.1771 36.127 10.9327C36.4076 11.5347 36.285 12.2322 35.8434 12.7097C35.7002 12.8579 35.544 12.9716 35.3558 13.0545C33.9872 13.6948 32.5746 14.3807 31.1737 15.1001C30.5736 15.4244 29.8313 15.3025 29.3523 14.8396ZM37.8974 10.8351C37.748 10.6907 37.6328 10.5133 37.5397 10.313C37.2941 9.72274 37.4292 9.03738 37.8803 8.59112C38.0236 8.44286 38.1897 8.31665 38.4014 8.23451C39.849 7.6265 41.3529 7.02874 42.845 6.46371C43.6363 6.16977 44.587 6.60324 44.8813 7.41695C45.0927 7.97412 44.9682 8.62564 44.5384 9.07042C44.3841 9.23008 44.1731 9.35706 43.9504 9.4506C42.5461 9.96814 41.13 10.5184 39.6166 11.1511C39.0287 11.3989 38.3536 11.2759 37.8974 10.8351ZM46.7566 7.55308C46.5753 7.37785 46.4255 7.14488 46.3529 6.89826C46.1639 6.34071 46.3105 5.73254 46.7072 5.32198C46.8064 5.21934 46.9071 5.14023 47.028 5.05853L46.8262 5.06198L47.44 4.88324C48.9458 4.39761 50.4744 3.93401 51.9703 3.52706C52.7742 3.31141 53.6914 3.82285 53.9074 4.64912C54.0622 5.17361 53.9027 5.74722 53.5284 6.1574C53.33 6.36268 53.0746 6.51285 52.7957 6.59614C51.3221 7.00271 49.8277 7.43319 48.3656 7.91695L48.3432 7.91734C47.7868 8.10744 47.1786 7.96083 46.7566 7.55308ZM55.8558 5.05429C55.6403 4.846 55.4886 4.56708 55.4163 4.27671C55.295 3.74043 55.4538 3.18814 55.8285 2.80039C56.0492 2.59472 56.3168 2.43424 56.6174 2.37189C58.148 2.02043 59.7241 1.71304 61.3132 1.44021C62.1406 1.29145 63.0032 1.88233 63.1519 2.70975C63.2504 3.22399 63.0799 3.74283 62.7272 4.10778C62.4844 4.33625 62.1956 4.49822 61.8599 4.54883C60.3507 4.83264 58.8194 5.13926 57.3109 5.46791C56.7845 5.57675 56.2424 5.42788 55.8558 5.05429ZM65.1585 3.43582C64.8859 3.17243 64.7236 2.86117 64.6825 2.49063C64.6193 2.01055 64.7781 1.52444 65.1311 1.18192C65.3846 0.919617 65.6959 0.757265 66.0664 0.718393C67.6221 0.523519 69.2009 0.37311 70.7467 0.256914L70.8699 0.243586C71.6992 0.206955 72.4622 0.878054 72.5326 1.71803C72.5627 2.16615 72.4009 2.6052 72.0923 2.92453C71.8168 3.20964 71.4497 3.38417 71.0688 3.41312C69.5455 3.52893 67.9902 3.68006 66.4455 3.86353C65.9632 3.92675 65.5018 3.76753 65.1585 3.43582ZM74.5568 2.74774C74.2488 2.45019 74.0739 2.06063 74.0666 1.63455C74.0605 1.20958 74.2208 0.813169 74.5184 0.505249C74.8049 0.208732 75.1956 0.0349203 75.6205 0.0265229C77.2686 -0.0129141 78.8725 -0.0067252 80.4221 0.0351527C81.2629 0.0757151 81.9837 0.838379 81.9644 1.67989C81.9375 2.0729 81.7871 2.45681 81.5226 2.73052C81.203 3.06125 80.7796 3.22552 80.3307 3.21078C78.7822 3.17 77.2231 3.16305 75.6982 3.18916C75.2721 3.19646 74.8658 3.0464 74.5568 2.74774ZM83.984 3.03606C83.6419 2.70544 83.4545 2.23759 83.4912 1.7659C83.5299 1.40633 83.6922 1.05586 83.9456 0.793562C84.2763 0.451427 84.7445 0.286394 85.2162 0.323179C86.8449 0.463527 88.4515 0.626683 89.9806 0.847244C90.8138 0.968687 91.4438 1.79796 91.3348 2.641C91.2957 2.97815 91.1316 3.28266 90.8891 3.53356C90.5475 3.8871 90.0356 4.05402 89.5521 3.98378C88.0906 3.78449 86.5501 3.61908 84.9898 3.47869L84.945 3.47945C84.5744 3.45215 84.2464 3.28953 83.984 3.03606ZM93.3154 4.33432C92.9276 3.95963 92.75 3.4131 92.8643 2.884C92.9152 2.5803 93.0566 2.31992 93.2659 2.10323C93.6403 1.69305 94.1758 1.52686 94.7159 1.62977C96.2686 1.91722 97.8449 2.27157 99.3991 2.64872C100.21 2.85915 100.753 3.75833 100.554 4.58049C100.491 4.85074 100.361 5.09972 100.173 5.29359C99.7767 5.70416 99.1963 5.87112 98.6444 5.73477C97.1464 5.36786 95.6378 5.03479 94.1186 4.73555C93.8137 4.68357 93.532 4.54371 93.3154 4.33432ZM102.46 6.57678C102.038 6.16902 101.882 5.55484 102.04 4.98012C102.114 4.74331 102.245 4.51676 102.421 4.33429C102.84 3.90092 103.454 3.7446 104.018 3.91439C105.518 4.37099 107.018 4.87244 108.485 5.38568C108.508 5.3864 108.541 5.39594 108.576 5.40767L108.688 5.4495L108.677 5.46091C109.422 5.78461 109.808 6.68649 109.542 7.44362C109.467 7.658 109.347 7.85073 109.193 8.01039C108.752 8.46657 108.104 8.61225 107.506 8.40939C106.06 7.89467 104.582 7.39283 103.106 6.95827C102.87 6.88492 102.643 6.75421 102.46 6.57678ZM111.342 9.73446C110.874 9.28262 110.728 8.58975 110.976 7.99107C111.062 7.81013 111.16 7.64022 111.303 7.49196C111.755 7.02438 112.437 6.88933 113.047 7.12564C114.493 7.72896 115.962 8.37675 117.42 9.05837C118.2 9.41513 118.555 10.3972 118.198 11.1547C118.122 11.3243 118.024 11.4718 117.913 11.5858C117.44 12.0762 116.702 12.2234 116.091 11.9423C114.668 11.2724 113.231 10.6341 111.842 10.0635C111.649 9.98716 111.489 9.87662 111.342 9.73446ZM119.878 13.7269C119.377 13.2431 119.251 12.459 119.577 11.8478C119.642 11.7121 119.729 11.5985 119.829 11.4958C120.313 10.9716 121.096 10.846 121.719 11.1831C123.133 11.9103 124.537 12.6938 125.919 13.4776C126.657 13.9036 126.919 14.9074 126.495 15.6436C126.43 15.758 126.341 15.8706 126.253 15.9618C125.735 16.4754 124.952 16.5786 124.318 16.2305C123.094 15.5112 121.87 14.8357 120.683 14.2178L120.242 13.9899C120.117 13.9135 119.991 13.836 119.878 13.7269ZM128.044 18.4199C127.508 17.902 127.404 17.0738 127.798 16.4401C127.864 16.3492 127.928 16.2573 127.994 16.1888C128.523 15.6414 129.363 15.5485 129.999 15.9425C131.326 16.7834 132.664 17.6802 133.981 18.5774C134.696 19.0698 134.881 20.0649 134.388 20.7788C134.333 20.8582 134.279 20.9388 134.201 20.9951C133.672 21.5425 132.821 21.6244 132.185 21.1866C130.881 20.3016 129.577 19.4379 128.305 18.6286C128.205 18.5753 128.125 18.4982 128.044 18.4199ZM135.819 23.7724C135.249 23.2214 135.178 22.3141 135.638 21.6782C135.682 21.6326 135.737 21.5755 135.781 21.5299C136.321 20.9487 137.228 20.8771 137.864 21.3597C139.114 22.2804 140.387 23.268 141.638 24.256C142.32 24.8051 142.438 25.8013 141.889 26.4836C141.867 26.5289 141.823 26.5745 141.79 26.6087C141.217 27.2017 140.309 27.2509 139.661 26.7349C138.456 25.7686 137.217 24.814 135.979 23.9043C135.922 23.8492 135.865 23.8165 135.819 23.7724ZM143.188 29.6355C142.583 29.0514 142.545 28.1099 143.083 27.4614C143.094 27.45 143.116 27.4272 143.138 27.4044C143.722 26.7999 144.686 26.7386 145.323 27.2884C146.506 28.2989 147.713 29.355 148.899 30.4349L148.932 30.4669C149.56 31.0741 149.598 32.0369 149.015 32.6638L148.981 32.698C148.399 33.3259 147.4 33.3531 146.774 32.7919C145.567 31.6921 144.382 30.657 143.268 29.7126C143.233 29.6795 143.211 29.6575 143.188 29.6355ZM150.239 36.0086L150.194 35.9646C149.567 35.3584 149.538 34.3607 150.144 33.7335C150.442 33.4256 150.831 33.2506 151.258 33.2434C151.682 33.235 152.078 33.3964 152.386 33.6726L152.432 33.7167C153.059 34.3229 153.077 35.332 152.47 35.9592C152.173 36.2671 151.782 36.4409 151.357 36.4493C150.931 36.4566 150.536 36.2952 150.239 36.0086Z" fill="#E2001A"/><path d="M151.939 37.6731C151.936 37.6698 151.931 37.6654 151.926 37.661C151.363 37.1054 150.804 36.5586 150.238 36.0165L150.235 36.0132C149.607 35.406 149.588 34.4047 150.193 33.7741C150.799 33.1424 151.803 33.1218 152.436 33.729C153.009 34.2811 153.583 34.8377 154.156 35.4043C154.779 36.0195 154.786 37.0232 154.169 37.6473C153.559 38.2656 152.564 38.277 151.939 37.6731Z" fill="#E2001A"/><path d="M141.356 36.5039C140.991 36.1513 140.8 35.6274 140.894 35.0897C141.044 34.2269 141.868 33.6508 142.731 33.801L152.023 35.4251L150.229 26.0077C150.065 25.148 150.628 24.3163 151.49 24.1523C152.352 23.9884 153.183 24.5529 153.345 25.4137L156 39.3409L142.186 36.9271C141.859 36.8688 141.577 36.7177 141.356 36.5039Z" fill="#E2001A"/></svg>